<svg xmlns="http://www.w3.org/2000/svg" xmlns:xlink="http://www.w3.org/1999/xlink" width="1080" zoomAndPan="magnify" viewBox="0 0 810 809.999993" height="1080" preserveAspectRatio="xMidYMid meet" version="1.2"><defs><clipPath id="7733f51601"><path d="M 357 81 L 485 81 L 485 150 L 357 150 Z M 357 81 "/></clipPath><clipPath id="463c913568"><path d="M 364.636719 148.9375 C 367.238281 149.65625 369.832031 149.652344 372.425781 148.917969 C 373.4375 148.628906 374.382812 148.429688 375.269531 148.324219 C 377.3125 148.070312 379.074219 148.9375 381.09375 147.503906 C 384.082031 145.375 386.730469 141.332031 388.75 138.242188 C 390.195312 136.015625 389.917969 133.699219 389.527344 130.722656 C 389.371094 129.492188 389.066406 127.972656 388.617188 126.160156 C 388.492188 125.652344 388.703125 125.121094 389.148438 124.832031 C 391.601562 123.269531 394.148438 121.863281 396.777344 120.625 C 401.492188 118.410156 406.875 116.0625 412.929688 113.578125 C 420.414062 110.503906 428.390625 108.128906 436.871094 106.4375 C 437.628906 106.285156 438.253906 106.359375 438.742188 106.667969 C 441.621094 108.472656 444.433594 110.523438 447.183594 112.835938 C 452.554688 117.355469 457.464844 122.203125 461.914062 127.375 C 463.570312 129.300781 465.070312 131.226562 466.398438 133.140625 C 468.964844 136.847656 471.214844 140.433594 471.589844 144.71875 C 471.605469 144.941406 471.847656 145.066406 472.039062 144.953125 C 472.933594 144.421875 473.777344 143.816406 474.5625 143.132812 C 478.863281 139.40625 481.753906 134.953125 483.222656 129.78125 C 484.015625 126.992188 484.417969 123.496094 484.417969 119.296875 C 484.417969 113.691406 484.003906 107.957031 482.953125 102.292969 C 482.566406 100.214844 482.234375 98.089844 481.953125 95.921875 C 481.871094 95.316406 481.523438 94.78125 480.996094 94.460938 C 477.226562 92.175781 473.398438 90.234375 469.519531 88.636719 C 464.171875 86.433594 458.96875 84.699219 453.925781 83.421875 C 447.777344 81.886719 442.722656 80.875 436.679688 81.011719 C 433.15625 81.089844 430.195312 81.507812 427.796875 82.269531 C 421.261719 84.332031 415.042969 87.121094 409.125 90.628906 C 401.976562 94.871094 396.226562 98.546875 391.863281 101.660156 C 382.785156 108.144531 373.726562 115.996094 364.679688 125.21875 C 361.980469 127.972656 360.015625 130.847656 358.808594 133.847656 C 356.324219 139.988281 357.484375 146.957031 364.636719 148.933594 Z M 364.636719 148.9375 "/></clipPath><linearGradient x1="279.019345" gradientTransform="matrix(0.565347,0,0,0.564794,194.178252,81.000019)" y1="44.173118" x2="519.546768" gradientUnits="userSpaceOnUse" y2="86.593898" id="d1a2224b23"><stop style="stop-color:#53b430;stop-opacity:1;" offset="0"/><stop style="stop-color:#53b430;stop-opacity:1;" offset="0.0625"/><stop style="stop-color:#53b430;stop-opacity:1;" offset="0.078125"/><stop style="stop-color:#4ba434;stop-opacity:1;" offset="0.0820312"/><stop style="stop-color:#449539;stop-opacity:1;" offset="0.0859375"/><stop style="stop-color:#367a40;stop-opacity:1;" offset="0.0898438"/><stop style="stop-color:#295e48;stop-opacity:1;" offset="0.09375"/><stop style="stop-color:#1f4b4e;stop-opacity:1;" offset="0.0976562"/><stop style="stop-color:#163853;stop-opacity:1;" offset="0.101562"/><stop style="stop-color:#163853;stop-opacity:1;" offset="0.109375"/><stop style="stop-color:#163853;stop-opacity:1;" offset="0.125"/><stop style="stop-color:#153753;stop-opacity:1;" offset="0.15625"/><stop style="stop-color:#153654;stop-opacity:1;" offset="0.1875"/><stop style="stop-color:#143554;stop-opacity:1;" offset="0.21875"/><stop style="stop-color:#143454;stop-opacity:1;" offset="0.25"/><stop style="stop-color:#143355;stop-opacity:1;" offset="0.28125"/><stop style="stop-color:#133255;stop-opacity:1;" offset="0.3125"/><stop style="stop-color:#133155;stop-opacity:1;" offset="0.34375"/><stop style="stop-color:#123055;stop-opacity:1;" offset="0.375"/><stop style="stop-color:#122f56;stop-opacity:1;" offset="0.40625"/><stop style="stop-color:#112e56;stop-opacity:1;" offset="0.4375"/><stop style="stop-color:#112d56;stop-opacity:1;" offset="0.46875"/><stop style="stop-color:#112c57;stop-opacity:1;" offset="0.5"/><stop style="stop-color:#102b57;stop-opacity:1;" offset="0.515625"/><stop style="stop-color:#112c57;stop-opacity:1;" offset="0.519531"/><stop style="stop-color:#112d56;stop-opacity:1;" offset="0.523437"/><stop style="stop-color:#122f56;stop-opacity:1;" offset="0.527344"/><stop style="stop-color:#123056;stop-opacity:1;" offset="0.53125"/><stop style="stop-color:#133155;stop-opacity:1;" offset="0.535156"/><stop style="stop-color:#143255;stop-opacity:1;" offset="0.539062"/><stop style="stop-color:#143355;stop-opacity:1;" offset="0.542969"/><stop style="stop-color:#153554;stop-opacity:1;" offset="0.546875"/><stop style="stop-color:#153654;stop-opacity:1;" offset="0.550781"/><stop style="stop-color:#163754;stop-opacity:1;" offset="0.554687"/><stop style="stop-color:#163853;stop-opacity:1;" offset="0.558594"/><stop style="stop-color:#173953;stop-opacity:1;" offset="0.5625"/><stop style="stop-color:#183a53;stop-opacity:1;" offset="0.566406"/><stop style="stop-color:#183c52;stop-opacity:1;" offset="0.570312"/><stop style="stop-color:#193d52;stop-opacity:1;" offset="0.574219"/><stop style="stop-color:#193e52;stop-opacity:1;" offset="0.578125"/><stop style="stop-color:#1a3f51;stop-opacity:1;" offset="0.582031"/><stop style="stop-color:#1a4051;stop-opacity:1;" offset="0.585937"/><stop style="stop-color:#1b4251;stop-opacity:1;" offset="0.589844"/><stop style="stop-color:#1c4350;stop-opacity:1;" offset="0.59375"/><stop style="stop-color:#1c4450;stop-opacity:1;" offset="0.597656"/><stop style="stop-color:#1d4550;stop-opacity:1;" offset="0.601562"/><stop style="stop-color:#1d464f;stop-opacity:1;" offset="0.605469"/><stop style="stop-color:#1e484f;stop-opacity:1;" offset="0.609375"/><stop style="stop-color:#1f494f;stop-opacity:1;" offset="0.613281"/><stop style="stop-color:#1f4a4e;stop-opacity:1;" offset="0.617187"/><stop style="stop-color:#204b4e;stop-opacity:1;" offset="0.621094"/><stop style="stop-color:#204c4e;stop-opacity:1;" offset="0.625"/><stop style="stop-color:#214d4d;stop-opacity:1;" offset="0.628906"/><stop style="stop-color:#214f4d;stop-opacity:1;" offset="0.632812"/><stop style="stop-color:#22504c;stop-opacity:1;" offset="0.636719"/><stop style="stop-color:#23514c;stop-opacity:1;" offset="0.640625"/><stop style="stop-color:#23524c;stop-opacity:1;" offset="0.644531"/><stop style="stop-color:#24534b;stop-opacity:1;" offset="0.648437"/><stop style="stop-color:#24554b;stop-opacity:1;" offset="0.652344"/><stop style="stop-color:#25564b;stop-opacity:1;" offset="0.65625"/><stop style="stop-color:#25574a;stop-opacity:1;" offset="0.660156"/><stop style="stop-color:#26584a;stop-opacity:1;" offset="0.664062"/><stop style="stop-color:#27594a;stop-opacity:1;" offset="0.667969"/><stop style="stop-color:#275a49;stop-opacity:1;" offset="0.671875"/><stop style="stop-color:#285c49;stop-opacity:1;" offset="0.675781"/><stop style="stop-color:#285d49;stop-opacity:1;" offset="0.679687"/><stop style="stop-color:#295e48;stop-opacity:1;" offset="0.683594"/><stop style="stop-color:#295f48;stop-opacity:1;" offset="0.6875"/><stop style="stop-color:#2a6048;stop-opacity:1;" offset="0.691406"/><stop style="stop-color:#2b6247;stop-opacity:1;" offset="0.695312"/><stop style="stop-color:#2b6347;stop-opacity:1;" offset="0.699219"/><stop style="stop-color:#2c6447;stop-opacity:1;" offset="0.703125"/><stop style="stop-color:#2c6546;stop-opacity:1;" offset="0.707031"/><stop style="stop-color:#2d6646;stop-opacity:1;" offset="0.710937"/><stop style="stop-color:#2e6746;stop-opacity:1;" offset="0.714844"/><stop style="stop-color:#2e6945;stop-opacity:1;" offset="0.71875"/><stop style="stop-color:#2f6a45;stop-opacity:1;" offset="0.722656"/><stop style="stop-color:#2f6b45;stop-opacity:1;" offset="0.726562"/><stop style="stop-color:#306c44;stop-opacity:1;" offset="0.730469"/><stop style="stop-color:#306d44;stop-opacity:1;" offset="0.734375"/><stop style="stop-color:#316f44;stop-opacity:1;" offset="0.738281"/><stop style="stop-color:#327043;stop-opacity:1;" offset="0.742188"/><stop style="stop-color:#327143;stop-opacity:1;" offset="0.746094"/><stop style="stop-color:#337243;stop-opacity:1;" offset="0.75"/><stop style="stop-color:#337342;stop-opacity:1;" offset="0.753906"/><stop style="stop-color:#347542;stop-opacity:1;" offset="0.757812"/><stop style="stop-color:#347642;stop-opacity:1;" offset="0.761719"/><stop style="stop-color:#357741;stop-opacity:1;" offset="0.765625"/><stop style="stop-color:#367841;stop-opacity:1;" offset="0.769531"/><stop style="stop-color:#367941;stop-opacity:1;" offset="0.773437"/><stop style="stop-color:#377a40;stop-opacity:1;" offset="0.777344"/><stop style="stop-color:#377c40;stop-opacity:1;" offset="0.78125"/><stop style="stop-color:#387d40;stop-opacity:1;" offset="0.785156"/><stop style="stop-color:#397e3f;stop-opacity:1;" offset="0.789062"/><stop style="stop-color:#397f3f;stop-opacity:1;" offset="0.792969"/><stop style="stop-color:#3a803f;stop-opacity:1;" offset="0.796875"/><stop style="stop-color:#3a823e;stop-opacity:1;" offset="0.800781"/><stop style="stop-color:#3b833e;stop-opacity:1;" offset="0.804687"/><stop style="stop-color:#3b843e;stop-opacity:1;" offset="0.808594"/><stop style="stop-color:#3c853d;stop-opacity:1;" offset="0.8125"/><stop style="stop-color:#3d863d;stop-opacity:1;" offset="0.816406"/><stop style="stop-color:#3d873d;stop-opacity:1;" offset="0.820312"/><stop style="stop-color:#3e893c;stop-opacity:1;" offset="0.824219"/><stop style="stop-color:#3e8a3c;stop-opacity:1;" offset="0.828125"/><stop style="stop-color:#3f8b3c;stop-opacity:1;" offset="0.832031"/><stop style="stop-color:#3f8c3b;stop-opacity:1;" offset="0.835937"/><stop style="stop-color:#408d3b;stop-opacity:1;" offset="0.839844"/><stop style="stop-color:#418f3b;stop-opacity:1;" offset="0.84375"/><stop style="stop-color:#41903a;stop-opacity:1;" offset="0.847656"/><stop style="stop-color:#42913a;stop-opacity:1;" offset="0.851562"/><stop style="stop-color:#42923a;stop-opacity:1;" offset="0.855469"/><stop style="stop-color:#439339;stop-opacity:1;" offset="0.859375"/><stop style="stop-color:#439439;stop-opacity:1;" offset="0.863281"/><stop style="stop-color:#449639;stop-opacity:1;" offset="0.867187"/><stop style="stop-color:#459738;stop-opacity:1;" offset="0.871094"/><stop style="stop-color:#459838;stop-opacity:1;" offset="0.875"/><stop style="stop-color:#469938;stop-opacity:1;" offset="0.878906"/><stop style="stop-color:#469a37;stop-opacity:1;" offset="0.882812"/><stop style="stop-color:#479c37;stop-opacity:1;" offset="0.886719"/><stop style="stop-color:#489d37;stop-opacity:1;" offset="0.890625"/><stop style="stop-color:#489e36;stop-opacity:1;" offset="0.894531"/><stop style="stop-color:#499f36;stop-opacity:1;" offset="0.898438"/><stop style="stop-color:#49a036;stop-opacity:1;" offset="0.902344"/><stop style="stop-color:#4aa135;stop-opacity:1;" offset="0.90625"/><stop style="stop-color:#4aa335;stop-opacity:1;" offset="0.910156"/><stop style="stop-color:#4ba435;stop-opacity:1;" offset="0.914062"/><stop style="stop-color:#4ca534;stop-opacity:1;" offset="0.917969"/><stop style="stop-color:#4ca634;stop-opacity:1;" offset="0.921875"/><stop style="stop-color:#4da734;stop-opacity:1;" offset="0.925781"/><stop style="stop-color:#4da933;stop-opacity:1;" offset="0.929688"/><stop style="stop-color:#4eaa33;stop-opacity:1;" offset="0.933594"/><stop style="stop-color:#4eab33;stop-opacity:1;" offset="0.9375"/><stop style="stop-color:#4fac32;stop-opacity:1;" offset="0.941406"/><stop style="stop-color:#50ad32;stop-opacity:1;" offset="0.945312"/><stop style="stop-color:#50af32;stop-opacity:1;" offset="0.949219"/><stop style="stop-color:#51b031;stop-opacity:1;" offset="0.953125"/><stop style="stop-color:#51b131;stop-opacity:1;" offset="0.957031"/><stop style="stop-color:#52b230;stop-opacity:1;" offset="0.960938"/><stop style="stop-color:#52b330;stop-opacity:1;" offset="0.964844"/><stop style="stop-color:#53b430;stop-opacity:1;" offset="0.96875"/><stop style="stop-color:#53b430;stop-opacity:1;" offset="1"/></linearGradient><clipPath id="e7c8b28992"><path d="M 412 85 L 654.5625 85 L 654.5625 227 L 412 227 Z M 412 85 "/></clipPath><clipPath id="6a8e18f190"><path d="M 645.042969 124.433594 C 642.828125 122.511719 640.824219 122.054688 637.941406 122.230469 C 635.578125 122.375 633.667969 123.101562 632.203125 124.40625 C 630.925781 125.546875 629.980469 126.78125 628.21875 127.207031 C 625.507812 127.84375 623.0625 129.972656 621.496094 132.121094 C 618.363281 136.417969 619.691406 142.191406 622.113281 146.589844 C 623.1875 148.53125 624.128906 150.300781 624.957031 151.886719 C 625.65625 153.238281 625.605469 154.554688 624.796875 155.839844 C 623.199219 158.375 621.398438 160.675781 619.386719 162.730469 C 616.222656 165.96875 610.941406 171.003906 603.5625 177.832031 C 601.097656 180.109375 597.566406 183.164062 592.957031 186.988281 C 591.164062 188.480469 589.113281 189.761719 587.480469 191.390625 C 587.367188 191.5 587.179688 191.496094 587.070312 191.371094 L 582.097656 185.46875 L 572.339844 174.40625 C 563.773438 164.894531 555.785156 157.207031 547.078125 148.566406 C 546.464844 147.957031 545.847656 147.273438 545.226562 146.523438 C 545.121094 146.398438 545.164062 146.210938 545.304688 146.132812 C 546.507812 145.511719 547.722656 144.851562 548.957031 144.144531 C 549.878906 143.613281 550.777344 143.605469 551.660156 144.121094 C 555.609375 146.429688 557.652344 147.792969 560.855469 149 C 565.339844 150.683594 570.886719 149.96875 573.273438 145.238281 C 574.605469 142.601562 575.769531 140.308594 576.753906 138.359375 C 577.234375 137.398438 577.675781 135.859375 578.070312 133.730469 C 578.265625 132.707031 578.621094 131.835938 579.746094 131.945312 C 580.921875 132.058594 581.9375 132.046875 582.785156 131.898438 C 583.148438 131.835938 583.605469 131.570312 584.164062 131.097656 C 585.132812 128.921875 585.183594 126.617188 584.324219 124.171875 C 583.898438 122.964844 583.453125 121.867188 582.988281 120.890625 C 582.582031 120.03125 582.457031 118.941406 582.640625 118.230469 C 584.273438 111.867188 583.789062 105.96875 581.1875 100.542969 C 575.984375 89.691406 563.402344 83.863281 551.648438 85.621094 C 541.335938 87.160156 533.832031 93.664062 531.90625 104.207031 C 531.492188 106.449219 531.324219 108.488281 531.375 110.328125 C 531.515625 113.238281 531.972656 116.136719 532.746094 119.011719 C 532.882812 119.519531 532.625 120.042969 532.132812 120.234375 L 524.679688 123.15625 C 524.183594 123.347656 523.621094 123.320312 523.160156 123.066406 C 522.457031 122.6875 521.835938 122.292969 521.292969 121.863281 C 518.875 119.972656 515.097656 116.871094 509.957031 112.566406 C 506.746094 109.878906 501.203125 105.710938 493.308594 100.074219 C 492.992188 99.847656 492.664062 99.738281 492.332031 99.761719 C 492.121094 99.773438 491.980469 99.976562 492.027344 100.175781 C 494.636719 111.144531 495.679688 123.203125 492.324219 133.921875 C 489.328125 143.527344 482.667969 151.589844 473.421875 155.605469 C 472.664062 155.929688 471.058594 156.542969 468.59375 157.433594 C 459.746094 160.527344 451.28125 164.472656 443.207031 169.25 C 442.070312 169.921875 440.941406 170.644531 439.808594 171.414062 C 438.855469 171.976562 437.90625 172.597656 436.960938 173.28125 C 428.539062 179.414062 420.222656 187.203125 415.242188 195.953125 C 413.796875 198.484375 411.597656 201.9375 413.082031 204.175781 C 413.503906 204.808594 414.753906 204.527344 415.308594 204.289062 C 420.859375 201.894531 426.433594 199.921875 432.035156 198.363281 C 440.917969 195.890625 448.300781 194.15625 457.03125 192.9375 C 467.460938 191.484375 478.199219 191.433594 489.246094 192.785156 C 493.867188 193.347656 499.714844 194.320312 506.785156 195.699219 C 507.386719 195.8125 508.800781 196.042969 511.027344 196.382812 C 512.023438 196.527344 512.730469 196.4375 513.152344 196.109375 C 515.214844 194.507812 517.453125 193.296875 519.867188 192.496094 C 523.40625 191.320312 525.554688 190.636719 526.308594 190.445312 C 527.28125 190.195312 528.078125 190.191406 528.710938 190.429688 C 530.3125 191.027344 531.90625 191.867188 533.492188 192.949219 C 536.320312 194.875 539.121094 196.800781 541.878906 198.726562 C 554.59375 207.921875 562.839844 213.996094 573.488281 220.765625 C 575.421875 221.988281 577.507812 223.191406 579.746094 224.363281 C 582.878906 226 586.257812 226.6875 589.691406 225.773438 C 593.578125 224.738281 597.054688 222.386719 600.125 219.828125 C 603.28125 217.195312 606.152344 214.597656 608.734375 212.019531 C 616.292969 204.492188 622.902344 196.210938 628.5625 187.167969 C 632.464844 180.65625 635.90625 173.910156 638.890625 166.910156 C 640.292969 163.625 642.210938 160.828125 644.640625 158.519531 C 645.90625 157.308594 646.867188 156.410156 647.523438 155.816406 C 650.363281 153.226562 652.488281 150.085938 653.5625 146.5625 C 656.433594 137.117188 651.84375 130.316406 645.027344 124.425781 Z M 645.042969 124.433594 "/></clipPath><linearGradient x1="370.064956" gradientTransform="matrix(0.565347,0,0,0.564794,194.178252,81.000019)" y1="87.388507" x2="830.108217" gradientUnits="userSpaceOnUse" y2="168.507832" id="8e8bcf06d5"><stop style="stop-color:#53b430;stop-opacity:1;" offset="0"/><stop style="stop-color:#53b430;stop-opacity:1;" offset="0.0625"/><stop style="stop-color:#53b430;stop-opacity:1;" offset="0.078125"/><stop style="stop-color:#4ba434;stop-opacity:1;" offset="0.0820312"/><stop style="stop-color:#439439;stop-opacity:1;" offset="0.0859375"/><stop style="stop-color:#357841;stop-opacity:1;" offset="0.0898437"/><stop style="stop-color:#285c49;stop-opacity:1;" offset="0.09375"/><stop style="stop-color:#1f4a4e;stop-opacity:1;" offset="0.0976562"/><stop style="stop-color:#163853;stop-opacity:1;" offset="0.101562"/><stop style="stop-color:#163853;stop-opacity:1;" offset="0.109375"/><stop style="stop-color:#163853;stop-opacity:1;" offset="0.125"/><stop style="stop-color:#153753;stop-opacity:1;" offset="0.140625"/><stop style="stop-color:#153753;stop-opacity:1;" offset="0.15625"/><stop style="stop-color:#153654;stop-opacity:1;" offset="0.171875"/><stop style="stop-color:#153654;stop-opacity:1;" offset="0.1875"/><stop style="stop-color:#153554;stop-opacity:1;" offset="0.203125"/><stop style="stop-color:#143454;stop-opacity:1;" offset="0.21875"/><stop style="stop-color:#143454;stop-opacity:1;" offset="0.234375"/><stop style="stop-color:#143354;stop-opacity:1;" offset="0.25"/><stop style="stop-color:#143354;stop-opacity:1;" offset="0.265625"/><stop style="stop-color:#133255;stop-opacity:1;" offset="0.28125"/><stop style="stop-color:#133255;stop-opacity:1;" offset="0.296875"/><stop style="stop-color:#133155;stop-opacity:1;" offset="0.3125"/><stop style="stop-color:#133155;stop-opacity:1;" offset="0.328125"/><stop style="stop-color:#123055;stop-opacity:1;" offset="0.34375"/><stop style="stop-color:#123055;stop-opacity:1;" offset="0.359375"/><stop style="stop-color:#122f56;stop-opacity:1;" offset="0.375"/><stop style="stop-color:#122f56;stop-opacity:1;" offset="0.390625"/><stop style="stop-color:#122e56;stop-opacity:1;" offset="0.40625"/><stop style="stop-color:#112e56;stop-opacity:1;" offset="0.421875"/><stop style="stop-color:#112d56;stop-opacity:1;" offset="0.4375"/><stop style="stop-color:#112d56;stop-opacity:1;" offset="0.453125"/><stop style="stop-color:#112c57;stop-opacity:1;" offset="0.46875"/><stop style="stop-color:#102c57;stop-opacity:1;" offset="0.484375"/><stop style="stop-color:#102b57;stop-opacity:1;" offset="0.5"/><stop style="stop-color:#102c57;stop-opacity:1;" offset="0.507812"/><stop style="stop-color:#112d56;stop-opacity:1;" offset="0.511719"/><stop style="stop-color:#122f56;stop-opacity:1;" offset="0.515625"/><stop style="stop-color:#123056;stop-opacity:1;" offset="0.519531"/><stop style="stop-color:#133155;stop-opacity:1;" offset="0.523437"/><stop style="stop-color:#143255;stop-opacity:1;" offset="0.527344"/><stop style="stop-color:#143455;stop-opacity:1;" offset="0.53125"/><stop style="stop-color:#153554;stop-opacity:1;" offset="0.535156"/><stop style="stop-color:#153654;stop-opacity:1;" offset="0.539062"/><stop style="stop-color:#163754;stop-opacity:1;" offset="0.542969"/><stop style="stop-color:#173853;stop-opacity:1;" offset="0.546875"/><stop style="stop-color:#173a53;stop-opacity:1;" offset="0.550781"/><stop style="stop-color:#183b52;stop-opacity:1;" offset="0.554687"/><stop style="stop-color:#183c52;stop-opacity:1;" offset="0.558594"/><stop style="stop-color:#193d52;stop-opacity:1;" offset="0.5625"/><stop style="stop-color:#1a3e51;stop-opacity:1;" offset="0.566406"/><stop style="stop-color:#1a4051;stop-opacity:1;" offset="0.570312"/><stop style="stop-color:#1b4151;stop-opacity:1;" offset="0.574219"/><stop style="stop-color:#1b4250;stop-opacity:1;" offset="0.578125"/><stop style="stop-color:#1c4350;stop-opacity:1;" offset="0.582031"/><stop style="stop-color:#1c4550;stop-opacity:1;" offset="0.585937"/><stop style="stop-color:#1d464f;stop-opacity:1;" offset="0.589844"/><stop style="stop-color:#1e474f;stop-opacity:1;" offset="0.59375"/><stop style="stop-color:#1e484f;stop-opacity:1;" offset="0.597656"/><stop style="stop-color:#1f494e;stop-opacity:1;" offset="0.601562"/><stop style="stop-color:#1f4b4e;stop-opacity:1;" offset="0.605469"/><stop style="stop-color:#204c4e;stop-opacity:1;" offset="0.609375"/><stop style="stop-color:#214d4d;stop-opacity:1;" offset="0.613281"/><stop style="stop-color:#214e4d;stop-opacity:1;" offset="0.617188"/><stop style="stop-color:#224f4d;stop-opacity:1;" offset="0.621094"/><stop style="stop-color:#22514c;stop-opacity:1;" offset="0.625"/><stop style="stop-color:#23524c;stop-opacity:1;" offset="0.628906"/><stop style="stop-color:#24534c;stop-opacity:1;" offset="0.632812"/><stop style="stop-color:#24544b;stop-opacity:1;" offset="0.636719"/><stop style="stop-color:#25564b;stop-opacity:1;" offset="0.640625"/><stop style="stop-color:#25574b;stop-opacity:1;" offset="0.644531"/><stop style="stop-color:#26584a;stop-opacity:1;" offset="0.648438"/><stop style="stop-color:#27594a;stop-opacity:1;" offset="0.652344"/><stop style="stop-color:#275a49;stop-opacity:1;" offset="0.65625"/><stop style="stop-color:#285c49;stop-opacity:1;" offset="0.660156"/><stop style="stop-color:#285d49;stop-opacity:1;" offset="0.664063"/><stop style="stop-color:#295e48;stop-opacity:1;" offset="0.667969"/><stop style="stop-color:#2a5f48;stop-opacity:1;" offset="0.671875"/><stop style="stop-color:#2a6048;stop-opacity:1;" offset="0.675781"/><stop style="stop-color:#2b6247;stop-opacity:1;" offset="0.679688"/><stop style="stop-color:#2b6347;stop-opacity:1;" offset="0.683594"/><stop style="stop-color:#2c6447;stop-opacity:1;" offset="0.6875"/><stop style="stop-color:#2c6546;stop-opacity:1;" offset="0.691406"/><stop style="stop-color:#2d6746;stop-opacity:1;" offset="0.695313"/><stop style="stop-color:#2e6846;stop-opacity:1;" offset="0.699219"/><stop style="stop-color:#2e6945;stop-opacity:1;" offset="0.703125"/><stop style="stop-color:#2f6a45;stop-opacity:1;" offset="0.707031"/><stop style="stop-color:#2f6b45;stop-opacity:1;" offset="0.710938"/><stop style="stop-color:#306d44;stop-opacity:1;" offset="0.714844"/><stop style="stop-color:#316e44;stop-opacity:1;" offset="0.71875"/><stop style="stop-color:#316f44;stop-opacity:1;" offset="0.722656"/><stop style="stop-color:#327043;stop-opacity:1;" offset="0.726563"/><stop style="stop-color:#327243;stop-opacity:1;" offset="0.730469"/><stop style="stop-color:#337343;stop-opacity:1;" offset="0.734375"/><stop style="stop-color:#347442;stop-opacity:1;" offset="0.738281"/><stop style="stop-color:#347542;stop-opacity:1;" offset="0.742188"/><stop style="stop-color:#357642;stop-opacity:1;" offset="0.746094"/><stop style="stop-color:#357841;stop-opacity:1;" offset="0.75"/><stop style="stop-color:#367941;stop-opacity:1;" offset="0.753906"/><stop style="stop-color:#377a40;stop-opacity:1;" offset="0.757812"/><stop style="stop-color:#377b40;stop-opacity:1;" offset="0.761719"/><stop style="stop-color:#387c40;stop-opacity:1;" offset="0.765625"/><stop style="stop-color:#387e3f;stop-opacity:1;" offset="0.769531"/><stop style="stop-color:#397f3f;stop-opacity:1;" offset="0.773437"/><stop style="stop-color:#3a803f;stop-opacity:1;" offset="0.777344"/><stop style="stop-color:#3a813e;stop-opacity:1;" offset="0.78125"/><stop style="stop-color:#3b833e;stop-opacity:1;" offset="0.785156"/><stop style="stop-color:#3b843e;stop-opacity:1;" offset="0.789062"/><stop style="stop-color:#3c853d;stop-opacity:1;" offset="0.792969"/><stop style="stop-color:#3d863d;stop-opacity:1;" offset="0.796875"/><stop style="stop-color:#3d873d;stop-opacity:1;" offset="0.800781"/><stop style="stop-color:#3e893c;stop-opacity:1;" offset="0.804687"/><stop style="stop-color:#3e8a3c;stop-opacity:1;" offset="0.808594"/><stop style="stop-color:#3f8b3c;stop-opacity:1;" offset="0.8125"/><stop style="stop-color:#3f8c3b;stop-opacity:1;" offset="0.816406"/><stop style="stop-color:#408d3b;stop-opacity:1;" offset="0.820312"/><stop style="stop-color:#418f3b;stop-opacity:1;" offset="0.824219"/><stop style="stop-color:#41903a;stop-opacity:1;" offset="0.828125"/><stop style="stop-color:#42913a;stop-opacity:1;" offset="0.832031"/><stop style="stop-color:#42923a;stop-opacity:1;" offset="0.835937"/><stop style="stop-color:#439439;stop-opacity:1;" offset="0.839844"/><stop style="stop-color:#449539;stop-opacity:1;" offset="0.84375"/><stop style="stop-color:#449638;stop-opacity:1;" offset="0.847656"/><stop style="stop-color:#459738;stop-opacity:1;" offset="0.851562"/><stop style="stop-color:#459838;stop-opacity:1;" offset="0.855469"/><stop style="stop-color:#469a37;stop-opacity:1;" offset="0.859375"/><stop style="stop-color:#479b37;stop-opacity:1;" offset="0.863281"/><stop style="stop-color:#479c37;stop-opacity:1;" offset="0.867188"/><stop style="stop-color:#489d36;stop-opacity:1;" offset="0.871094"/><stop style="stop-color:#489e36;stop-opacity:1;" offset="0.875"/><stop style="stop-color:#49a036;stop-opacity:1;" offset="0.878906"/><stop style="stop-color:#4aa135;stop-opacity:1;" offset="0.882812"/><stop style="stop-color:#4aa235;stop-opacity:1;" offset="0.886719"/><stop style="stop-color:#4ba335;stop-opacity:1;" offset="0.890625"/><stop style="stop-color:#4ba534;stop-opacity:1;" offset="0.894531"/><stop style="stop-color:#4ca634;stop-opacity:1;" offset="0.898438"/><stop style="stop-color:#4da734;stop-opacity:1;" offset="0.902344"/><stop style="stop-color:#4da833;stop-opacity:1;" offset="0.90625"/><stop style="stop-color:#4ea933;stop-opacity:1;" offset="0.910156"/><stop style="stop-color:#4eab33;stop-opacity:1;" offset="0.914063"/><stop style="stop-color:#4fac32;stop-opacity:1;" offset="0.917969"/><stop style="stop-color:#4fad32;stop-opacity:1;" offset="0.921875"/><stop style="stop-color:#50ae32;stop-opacity:1;" offset="0.925781"/><stop style="stop-color:#51b031;stop-opacity:1;" offset="0.929688"/><stop style="stop-color:#51b131;stop-opacity:1;" offset="0.933594"/><stop style="stop-color:#52b231;stop-opacity:1;" offset="0.9375"/><stop style="stop-color:#52b330;stop-opacity:1;" offset="0.941406"/><stop style="stop-color:#53b430;stop-opacity:1;" offset="0.945313"/><stop style="stop-color:#53b430;stop-opacity:1;" offset="0.953125"/><stop style="stop-color:#53b430;stop-opacity:1;" offset="0.96875"/><stop style="stop-color:#53b430;stop-opacity:1;" offset="1"/></linearGradient><clipPath id="70a9f15b8d"><path d="M 362 201 L 552 201 L 552 358.5 L 362 358.5 Z M 362 201 "/></clipPath><clipPath id="96ba067ab8"><path d="M 545.992188 222.832031 C 538.445312 216.308594 529.351562 212.058594 519.703125 208.875 C 500.792969 202.632812 481.59375 200.429688 462.097656 202.277344 C 456.222656 202.832031 450.054688 203.875 443.609375 205.425781 C 437.171875 206.964844 431.15625 208.699219 425.570312 210.621094 C 422.1875 211.785156 418.382812 213.640625 414.148438 216.199219 C 411.875 217.566406 409.65625 219.234375 407.484375 221.1875 C 404.335938 224.023438 401.308594 227.050781 398.421875 230.261719 C 391.449219 238.679688 384.039062 246.726562 376.175781 254.402344 C 371.71875 258.757812 368.390625 262.496094 364.566406 266.664062 C 363.652344 267.660156 362.121094 269.566406 362.375 270.867188 C 362.449219 271.25 362.753906 271.542969 363.136719 271.601562 C 364.097656 271.746094 365.054688 271.675781 366 271.378906 C 373.726562 268.984375 381.816406 266.230469 389.410156 264.277344 C 397.421875 262.21875 401.46875 261.1875 401.535156 261.167969 C 417.738281 257.238281 433.824219 254.378906 450.898438 252.820312 C 451.824219 252.753906 452.726562 252.695312 453.621094 252.636719 L 484.261719 265.054688 C 483.988281 265.398438 483.703125 265.742188 483.425781 266.09375 C 477.992188 272.945312 473.851562 278.101562 470.996094 281.550781 C 469.164062 283.761719 467.410156 285.660156 465.421875 287.691406 C 464.035156 289.105469 462.445312 290.199219 460.648438 290.972656 C 458.804688 291.199219 456.640625 291.214844 455.113281 291.417969 C 451 291.984375 446.820312 292.949219 442.582031 294.324219 C 438.777344 295.546875 437.046875 297.835938 436.125 301.445312 C 435.777344 302.792969 435.558594 303.816406 435.480469 304.503906 C 435.132812 307.453125 434.316406 312.375 433.019531 319.265625 C 432.386719 322.628906 431.652344 327.824219 430.808594 334.839844 C 429.90625 342.398438 430.328125 352.101562 436.394531 357.738281 C 437.0625 358.351562 438.023438 358.601562 439.285156 358.472656 C 441.917969 358.199219 444.949219 353.382812 445.960938 351.257812 C 446.933594 349.210938 448.933594 345.183594 451.972656 339.179688 C 453.796875 335.5625 456.148438 332.304688 459.039062 329.394531 C 459.28125 329.152344 460.292969 328.222656 462.066406 326.59375 C 468.078125 321.117188 474.125 315.738281 480.238281 310.453125 C 487.25 304.972656 494.285156 299.574219 501.347656 294.253906 C 506.644531 290.261719 512.519531 285.21875 518.96875 279.125 C 525.839844 272.628906 532.234375 265.714844 538.148438 258.375 C 540.46875 255.488281 542.667969 252.464844 544.75 249.304688 C 547.566406 245.027344 549.945312 240.210938 550.777344 235.109375 C 551.371094 231.476562 550.972656 228.917969 548.871094 226.011719 C 547.960938 224.757812 547.003906 223.699219 546 222.835938 Z M 545.992188 222.832031 "/></clipPath><linearGradient x1="278.316167" gradientTransform="matrix(0.565347,0,0,0.564794,194.178252,81.000019)" y1="317.747204" x2="650.836034" gradientUnits="userSpaceOnUse" y2="383.441158" id="1969408652"><stop style="stop-color:#53b430;stop-opacity:1;" offset="0"/><stop style="stop-color:#53b430;stop-opacity:1;" offset="0.03125"/><stop style="stop-color:#53b430;stop-opacity:1;" offset="0.046875"/><stop style="stop-color:#53b430;stop-opacity:1;" offset="0.0546875"/><stop style="stop-color:#4aa335;stop-opacity:1;" offset="0.0585938"/><stop style="stop-color:#42923a;stop-opacity:1;" offset="0.0625"/><stop style="stop-color:#347542;stop-opacity:1;" offset="0.0664062"/><stop style="stop-color:#26584a;stop-opacity:1;" offset="0.0703125"/><stop style="stop-color:#1e484e;stop-opacity:1;" offset="0.0742188"/><stop style="stop-color:#163853;stop-opacity:1;" offset="0.078125"/><stop style="stop-color:#163853;stop-opacity:1;" offset="0.09375"/><stop style="stop-color:#163753;stop-opacity:1;" offset="0.109375"/><stop style="stop-color:#153753;stop-opacity:1;" offset="0.125"/><stop style="stop-color:#153653;stop-opacity:1;" offset="0.128494"/><stop style="stop-color:#153654;stop-opacity:1;" offset="0.140625"/><stop style="stop-color:#153654;stop-opacity:1;" offset="0.15625"/><stop style="stop-color:#153554;stop-opacity:1;" offset="0.171875"/><stop style="stop-color:#143554;stop-opacity:1;" offset="0.1875"/><stop style="stop-color:#143454;stop-opacity:1;" offset="0.203125"/><stop style="stop-color:#143454;stop-opacity:1;" offset="0.21875"/><stop style="stop-color:#143354;stop-opacity:1;" offset="0.234375"/><stop style="stop-color:#133355;stop-opacity:1;" offset="0.25"/><stop style="stop-color:#133255;stop-opacity:1;" offset="0.265625"/><stop style="stop-color:#133255;stop-opacity:1;" offset="0.28125"/><stop style="stop-color:#133155;stop-opacity:1;" offset="0.296875"/><stop style="stop-color:#133155;stop-opacity:1;" offset="0.3125"/><stop style="stop-color:#123055;stop-opacity:1;" offset="0.328125"/><stop style="stop-color:#122f56;stop-opacity:1;" offset="0.34375"/><stop style="stop-color:#122f56;stop-opacity:1;" offset="0.359375"/><stop style="stop-color:#122e56;stop-opacity:1;" offset="0.375"/><stop style="stop-color:#112e56;stop-opacity:1;" offset="0.390625"/><stop style="stop-color:#112d56;stop-opacity:1;" offset="0.40625"/><stop style="stop-color:#112d56;stop-opacity:1;" offset="0.421875"/><stop style="stop-color:#112c57;stop-opacity:1;" offset="0.4375"/><stop style="stop-color:#102c57;stop-opacity:1;" offset="0.453125"/><stop style="stop-color:#102b57;stop-opacity:1;" offset="0.46875"/><stop style="stop-color:#112c57;stop-opacity:1;" offset="0.472656"/><stop style="stop-color:#112e56;stop-opacity:1;" offset="0.476562"/><stop style="stop-color:#122f56;stop-opacity:1;" offset="0.480469"/><stop style="stop-color:#123056;stop-opacity:1;" offset="0.484375"/><stop style="stop-color:#133155;stop-opacity:1;" offset="0.488281"/><stop style="stop-color:#143355;stop-opacity:1;" offset="0.492188"/><stop style="stop-color:#143454;stop-opacity:1;" offset="0.496094"/><stop style="stop-color:#153554;stop-opacity:1;" offset="0.5"/><stop style="stop-color:#163654;stop-opacity:1;" offset="0.503906"/><stop style="stop-color:#163853;stop-opacity:1;" offset="0.507812"/><stop style="stop-color:#173953;stop-opacity:1;" offset="0.511719"/><stop style="stop-color:#173a53;stop-opacity:1;" offset="0.515625"/><stop style="stop-color:#183b52;stop-opacity:1;" offset="0.519531"/><stop style="stop-color:#193d52;stop-opacity:1;" offset="0.523438"/><stop style="stop-color:#193e52;stop-opacity:1;" offset="0.527344"/><stop style="stop-color:#1a3f51;stop-opacity:1;" offset="0.53125"/><stop style="stop-color:#1a4051;stop-opacity:1;" offset="0.535156"/><stop style="stop-color:#1b4251;stop-opacity:1;" offset="0.539063"/><stop style="stop-color:#1c4350;stop-opacity:1;" offset="0.542969"/><stop style="stop-color:#1c4450;stop-opacity:1;" offset="0.546875"/><stop style="stop-color:#1d454f;stop-opacity:1;" offset="0.550781"/><stop style="stop-color:#1d474f;stop-opacity:1;" offset="0.554688"/><stop style="stop-color:#1e484f;stop-opacity:1;" offset="0.558594"/><stop style="stop-color:#1f494e;stop-opacity:1;" offset="0.5625"/><stop style="stop-color:#1f4a4e;stop-opacity:1;" offset="0.566406"/><stop style="stop-color:#204c4e;stop-opacity:1;" offset="0.570312"/><stop style="stop-color:#204d4d;stop-opacity:1;" offset="0.574219"/><stop style="stop-color:#214e4d;stop-opacity:1;" offset="0.578125"/><stop style="stop-color:#224f4d;stop-opacity:1;" offset="0.582031"/><stop style="stop-color:#22514c;stop-opacity:1;" offset="0.585937"/><stop style="stop-color:#23524c;stop-opacity:1;" offset="0.589844"/><stop style="stop-color:#24534c;stop-opacity:1;" offset="0.59375"/><stop style="stop-color:#24544b;stop-opacity:1;" offset="0.597656"/><stop style="stop-color:#25564b;stop-opacity:1;" offset="0.601562"/><stop style="stop-color:#25574b;stop-opacity:1;" offset="0.605469"/><stop style="stop-color:#26584a;stop-opacity:1;" offset="0.609375"/><stop style="stop-color:#27594a;stop-opacity:1;" offset="0.613281"/><stop style="stop-color:#275b49;stop-opacity:1;" offset="0.617187"/><stop style="stop-color:#285c49;stop-opacity:1;" offset="0.621094"/><stop style="stop-color:#285d49;stop-opacity:1;" offset="0.625"/><stop style="stop-color:#295e48;stop-opacity:1;" offset="0.628906"/><stop style="stop-color:#2a6048;stop-opacity:1;" offset="0.632812"/><stop style="stop-color:#2a6148;stop-opacity:1;" offset="0.636719"/><stop style="stop-color:#2b6247;stop-opacity:1;" offset="0.640625"/><stop style="stop-color:#2b6347;stop-opacity:1;" offset="0.644531"/><stop style="stop-color:#2c6547;stop-opacity:1;" offset="0.648437"/><stop style="stop-color:#2d6646;stop-opacity:1;" offset="0.652344"/><stop style="stop-color:#2d6746;stop-opacity:1;" offset="0.65625"/><stop style="stop-color:#2e6846;stop-opacity:1;" offset="0.660156"/><stop style="stop-color:#2f6a45;stop-opacity:1;" offset="0.664062"/><stop style="stop-color:#2f6b45;stop-opacity:1;" offset="0.667969"/><stop style="stop-color:#306c44;stop-opacity:1;" offset="0.671875"/><stop style="stop-color:#306d44;stop-opacity:1;" offset="0.675781"/><stop style="stop-color:#316f44;stop-opacity:1;" offset="0.679688"/><stop style="stop-color:#327043;stop-opacity:1;" offset="0.683594"/><stop style="stop-color:#327143;stop-opacity:1;" offset="0.6875"/><stop style="stop-color:#337243;stop-opacity:1;" offset="0.691406"/><stop style="stop-color:#337442;stop-opacity:1;" offset="0.695312"/><stop style="stop-color:#347542;stop-opacity:1;" offset="0.699219"/><stop style="stop-color:#357642;stop-opacity:1;" offset="0.703125"/><stop style="stop-color:#357741;stop-opacity:1;" offset="0.707031"/><stop style="stop-color:#367941;stop-opacity:1;" offset="0.710938"/><stop style="stop-color:#367a41;stop-opacity:1;" offset="0.714844"/><stop style="stop-color:#377b40;stop-opacity:1;" offset="0.71875"/><stop style="stop-color:#387c40;stop-opacity:1;" offset="0.722656"/><stop style="stop-color:#387e3f;stop-opacity:1;" offset="0.726562"/><stop style="stop-color:#397f3f;stop-opacity:1;" offset="0.730469"/><stop style="stop-color:#39803f;stop-opacity:1;" offset="0.734375"/><stop style="stop-color:#3a813e;stop-opacity:1;" offset="0.738281"/><stop style="stop-color:#3b833e;stop-opacity:1;" offset="0.742187"/><stop style="stop-color:#3b843e;stop-opacity:1;" offset="0.746094"/><stop style="stop-color:#3c853d;stop-opacity:1;" offset="0.75"/><stop style="stop-color:#3d863d;stop-opacity:1;" offset="0.753906"/><stop style="stop-color:#3d883d;stop-opacity:1;" offset="0.757812"/><stop style="stop-color:#3e893c;stop-opacity:1;" offset="0.761719"/><stop style="stop-color:#3e8a3c;stop-opacity:1;" offset="0.765625"/><stop style="stop-color:#3f8b3c;stop-opacity:1;" offset="0.769531"/><stop style="stop-color:#408d3b;stop-opacity:1;" offset="0.773437"/><stop style="stop-color:#408e3b;stop-opacity:1;" offset="0.777344"/><stop style="stop-color:#418f3a;stop-opacity:1;" offset="0.78125"/><stop style="stop-color:#41903a;stop-opacity:1;" offset="0.785156"/><stop style="stop-color:#42923a;stop-opacity:1;" offset="0.789062"/><stop style="stop-color:#439339;stop-opacity:1;" offset="0.792969"/><stop style="stop-color:#439439;stop-opacity:1;" offset="0.796875"/><stop style="stop-color:#449539;stop-opacity:1;" offset="0.800781"/><stop style="stop-color:#449738;stop-opacity:1;" offset="0.804688"/><stop style="stop-color:#459838;stop-opacity:1;" offset="0.808594"/><stop style="stop-color:#469938;stop-opacity:1;" offset="0.8125"/><stop style="stop-color:#469a37;stop-opacity:1;" offset="0.816406"/><stop style="stop-color:#479c37;stop-opacity:1;" offset="0.820312"/><stop style="stop-color:#489d37;stop-opacity:1;" offset="0.824219"/><stop style="stop-color:#489e36;stop-opacity:1;" offset="0.828125"/><stop style="stop-color:#499f36;stop-opacity:1;" offset="0.832031"/><stop style="stop-color:#49a135;stop-opacity:1;" offset="0.835938"/><stop style="stop-color:#4aa235;stop-opacity:1;" offset="0.839844"/><stop style="stop-color:#4ba335;stop-opacity:1;" offset="0.84375"/><stop style="stop-color:#4ba434;stop-opacity:1;" offset="0.847656"/><stop style="stop-color:#4ca634;stop-opacity:1;" offset="0.851562"/><stop style="stop-color:#4ca734;stop-opacity:1;" offset="0.855469"/><stop style="stop-color:#4da833;stop-opacity:1;" offset="0.859375"/><stop style="stop-color:#4ea933;stop-opacity:1;" offset="0.863281"/><stop style="stop-color:#4eab33;stop-opacity:1;" offset="0.867187"/><stop style="stop-color:#4fac32;stop-opacity:1;" offset="0.871094"/><stop style="stop-color:#4fad32;stop-opacity:1;" offset="0.875"/><stop style="stop-color:#50ae32;stop-opacity:1;" offset="0.878906"/><stop style="stop-color:#51b031;stop-opacity:1;" offset="0.882812"/><stop style="stop-color:#51b131;stop-opacity:1;" offset="0.886719"/><stop style="stop-color:#52b231;stop-opacity:1;" offset="0.890625"/><stop style="stop-color:#52b330;stop-opacity:1;" offset="0.894531"/><stop style="stop-color:#53b430;stop-opacity:1;" offset="0.898437"/><stop style="stop-color:#53b430;stop-opacity:1;" offset="0.90625"/><stop style="stop-color:#53b430;stop-opacity:1;" offset="0.9375"/><stop style="stop-color:#53b430;stop-opacity:1;" offset="1"/></linearGradient><clipPath id="9654aa95b7"><path d="M 194.0625 262 L 440 262 L 440 356 L 194.0625 356 Z M 194.0625 262 "/></clipPath><clipPath id="23b74c708c"><path d="M 439.945312 263.0625 C 439.992188 262.949219 439.921875 262.828125 439.804688 262.824219 C 439.425781 262.808594 439.160156 262.824219 439.019531 262.863281 C 437.859375 263.203125 435.078125 263.765625 430.675781 264.5625 C 425.652344 265.46875 417.394531 267.21875 405.902344 269.804688 C 402.125 270.65625 398.007812 271.691406 393.554688 272.917969 C 386.273438 274.921875 377.152344 277.089844 369.164062 279.75 C 362.035156 282.117188 354.902344 284.410156 347.742188 286.617188 C 344.601562 287.460938 340.160156 288.492188 334.433594 289.726562 C 331.851562 290.277344 327.960938 291.238281 322.765625 292.605469 C 311.6875 295.519531 301.539062 299.457031 290.34375 304.046875 C 287.550781 305.195312 284.242188 306.628906 280.433594 308.363281 C 275.632812 310.539062 272.320312 311.972656 270.503906 312.660156 C 265.632812 314.515625 261.765625 315.835938 257.242188 316.207031 C 255.648438 316.332031 254.671875 315.777344 253.78125 314.355469 C 252.183594 311.792969 249.996094 308.53125 246.964844 307.789062 C 245.3125 307.375 243.542969 307.125 241.65625 307.035156 C 238.140625 306.859375 235.296875 308.742188 232.832031 310.824219 C 229.824219 313.363281 226.921875 315.695312 224.148438 317.824219 C 219.289062 321.539062 215.316406 324.917969 211.445312 328.53125 C 209.769531 330.097656 207.382812 332.65625 204.285156 336.214844 C 200.226562 340.878906 197.105469 345.515625 194.914062 350.128906 C 194.003906 352.042969 193.496094 355.167969 196.167969 355.773438 C 197.394531 356.050781 198.882812 355.929688 200.617188 355.398438 C 206.535156 353.601562 212.355469 351.496094 218.601562 348.792969 C 225.871094 345.652344 230.757812 343.617188 233.253906 342.703125 C 238.269531 340.867188 243.4375 339.882812 248.757812 339.765625 C 255.460938 339.613281 262.484375 339.398438 269.820312 339.121094 C 277.425781 338.839844 283.644531 338.421875 288.5 337.878906 C 295.023438 337.144531 301.203125 336.257812 307.039062 335.214844 C 331.796875 330.769531 355.183594 322.476562 377.203125 310.347656 C 384.859375 306.183594 391.367188 302.261719 396.71875 298.597656 C 404.832031 293.039062 413.113281 286.617188 421.578125 279.339844 C 426.839844 274.816406 433.195312 268.878906 439.335938 263.867188 C 439.59375 263.652344 439.800781 263.390625 439.945312 263.066406 Z M 439.945312 263.0625 "/></clipPath><linearGradient x1="-7.675199" gradientTransform="matrix(0.565347,0,0,0.564794,194.178252,81.000019)" y1="364.248852" x2="442.446871" gradientUnits="userSpaceOnUse" y2="443.627793" id="e787671fff"><stop style="stop-color:#53b430;stop-opacity:1;" offset="0"/><stop style="stop-color:#53b430;stop-opacity:1;" offset="0.03125"/><stop style="stop-color:#53b430;stop-opacity:1;" offset="0.046875"/><stop style="stop-color:#53b430;stop-opacity:1;" offset="0.0546875"/><stop style="stop-color:#50ae32;stop-opacity:1;" offset="0.0585938"/><stop style="stop-color:#4da833;stop-opacity:1;" offset="0.0625"/><stop style="stop-color:#408d3b;stop-opacity:1;" offset="0.0664063"/><stop style="stop-color:#327143;stop-opacity:1;" offset="0.0703125"/><stop style="stop-color:#24564b;stop-opacity:1;" offset="0.0742188"/><stop style="stop-color:#173a52;stop-opacity:1;" offset="0.078125"/><stop style="stop-color:#163953;stop-opacity:1;" offset="0.0820313"/><stop style="stop-color:#163853;stop-opacity:1;" offset="0.0859375"/><stop style="stop-color:#163853;stop-opacity:1;" offset="0.09375"/><stop style="stop-color:#153753;stop-opacity:1;" offset="0.125"/><stop style="stop-color:#153653;stop-opacity:1;" offset="0.15625"/><stop style="stop-color:#153554;stop-opacity:1;" offset="0.1875"/><stop style="stop-color:#143454;stop-opacity:1;" offset="0.21875"/><stop style="stop-color:#143354;stop-opacity:1;" offset="0.25"/><stop style="stop-color:#133255;stop-opacity:1;" offset="0.28125"/><stop style="stop-color:#133155;stop-opacity:1;" offset="0.3125"/><stop style="stop-color:#123055;stop-opacity:1;" offset="0.34375"/><stop style="stop-color:#122f56;stop-opacity:1;" offset="0.375"/><stop style="stop-color:#112e56;stop-opacity:1;" offset="0.40625"/><stop style="stop-color:#112d56;stop-opacity:1;" offset="0.4375"/><stop style="stop-color:#112c57;stop-opacity:1;" offset="0.46875"/><stop style="stop-color:#102c57;stop-opacity:1;" offset="0.484375"/><stop style="stop-color:#102b57;stop-opacity:1;" offset="0.492188"/><stop style="stop-color:#112d56;stop-opacity:1;" offset="0.496094"/><stop style="stop-color:#122e56;stop-opacity:1;" offset="0.5"/><stop style="stop-color:#122f56;stop-opacity:1;" offset="0.503906"/><stop style="stop-color:#133055;stop-opacity:1;" offset="0.507812"/><stop style="stop-color:#133255;stop-opacity:1;" offset="0.511719"/><stop style="stop-color:#143355;stop-opacity:1;" offset="0.515625"/><stop style="stop-color:#143454;stop-opacity:1;" offset="0.519531"/><stop style="stop-color:#153554;stop-opacity:1;" offset="0.523438"/><stop style="stop-color:#163654;stop-opacity:1;" offset="0.527344"/><stop style="stop-color:#163853;stop-opacity:1;" offset="0.53125"/><stop style="stop-color:#173953;stop-opacity:1;" offset="0.535156"/><stop style="stop-color:#173a53;stop-opacity:1;" offset="0.539062"/><stop style="stop-color:#183b52;stop-opacity:1;" offset="0.542969"/><stop style="stop-color:#193c52;stop-opacity:1;" offset="0.546875"/><stop style="stop-color:#193e52;stop-opacity:1;" offset="0.550781"/><stop style="stop-color:#1a3f51;stop-opacity:1;" offset="0.554688"/><stop style="stop-color:#1a4051;stop-opacity:1;" offset="0.558594"/><stop style="stop-color:#1b4151;stop-opacity:1;" offset="0.5625"/><stop style="stop-color:#1b4250;stop-opacity:1;" offset="0.566406"/><stop style="stop-color:#1c4450;stop-opacity:1;" offset="0.570312"/><stop style="stop-color:#1d4550;stop-opacity:1;" offset="0.574219"/><stop style="stop-color:#1d464f;stop-opacity:1;" offset="0.578125"/><stop style="stop-color:#1e474f;stop-opacity:1;" offset="0.582031"/><stop style="stop-color:#1e484f;stop-opacity:1;" offset="0.585938"/><stop style="stop-color:#1f4a4e;stop-opacity:1;" offset="0.589844"/><stop style="stop-color:#204b4e;stop-opacity:1;" offset="0.59375"/><stop style="stop-color:#204c4e;stop-opacity:1;" offset="0.597656"/><stop style="stop-color:#214d4d;stop-opacity:1;" offset="0.601562"/><stop style="stop-color:#214e4d;stop-opacity:1;" offset="0.605469"/><stop style="stop-color:#22504d;stop-opacity:1;" offset="0.609375"/><stop style="stop-color:#22514c;stop-opacity:1;" offset="0.613281"/><stop style="stop-color:#23524c;stop-opacity:1;" offset="0.617188"/><stop style="stop-color:#24534c;stop-opacity:1;" offset="0.621094"/><stop style="stop-color:#24544b;stop-opacity:1;" offset="0.625"/><stop style="stop-color:#25564b;stop-opacity:1;" offset="0.628906"/><stop style="stop-color:#25574b;stop-opacity:1;" offset="0.632812"/><stop style="stop-color:#26584a;stop-opacity:1;" offset="0.636719"/><stop style="stop-color:#27594a;stop-opacity:1;" offset="0.640625"/><stop style="stop-color:#275a49;stop-opacity:1;" offset="0.644531"/><stop style="stop-color:#285c49;stop-opacity:1;" offset="0.648438"/><stop style="stop-color:#285d49;stop-opacity:1;" offset="0.652344"/><stop style="stop-color:#295e48;stop-opacity:1;" offset="0.65625"/><stop style="stop-color:#295f48;stop-opacity:1;" offset="0.660156"/><stop style="stop-color:#2a6048;stop-opacity:1;" offset="0.664062"/><stop style="stop-color:#2b6247;stop-opacity:1;" offset="0.667969"/><stop style="stop-color:#2b6347;stop-opacity:1;" offset="0.671875"/><stop style="stop-color:#2c6447;stop-opacity:1;" offset="0.675781"/><stop style="stop-color:#2c6546;stop-opacity:1;" offset="0.679688"/><stop style="stop-color:#2d6646;stop-opacity:1;" offset="0.683594"/><stop style="stop-color:#2e6846;stop-opacity:1;" offset="0.6875"/><stop style="stop-color:#2e6945;stop-opacity:1;" offset="0.691406"/><stop style="stop-color:#2f6a45;stop-opacity:1;" offset="0.695312"/><stop style="stop-color:#2f6b45;stop-opacity:1;" offset="0.699219"/><stop style="stop-color:#306c44;stop-opacity:1;" offset="0.703125"/><stop style="stop-color:#306d44;stop-opacity:1;" offset="0.707031"/><stop style="stop-color:#316f44;stop-opacity:1;" offset="0.710938"/><stop style="stop-color:#327043;stop-opacity:1;" offset="0.714844"/><stop style="stop-color:#327143;stop-opacity:1;" offset="0.71875"/><stop style="stop-color:#337243;stop-opacity:1;" offset="0.722656"/><stop style="stop-color:#337342;stop-opacity:1;" offset="0.726563"/><stop style="stop-color:#347542;stop-opacity:1;" offset="0.730469"/><stop style="stop-color:#357642;stop-opacity:1;" offset="0.734375"/><stop style="stop-color:#357741;stop-opacity:1;" offset="0.738281"/><stop style="stop-color:#367841;stop-opacity:1;" offset="0.742188"/><stop style="stop-color:#367941;stop-opacity:1;" offset="0.746094"/><stop style="stop-color:#377b40;stop-opacity:1;" offset="0.75"/><stop style="stop-color:#377c40;stop-opacity:1;" offset="0.753906"/><stop style="stop-color:#387d40;stop-opacity:1;" offset="0.757813"/><stop style="stop-color:#397e3f;stop-opacity:1;" offset="0.761719"/><stop style="stop-color:#397f3f;stop-opacity:1;" offset="0.765625"/><stop style="stop-color:#3a813f;stop-opacity:1;" offset="0.769531"/><stop style="stop-color:#3a823e;stop-opacity:1;" offset="0.773438"/><stop style="stop-color:#3b833e;stop-opacity:1;" offset="0.777344"/><stop style="stop-color:#3c843e;stop-opacity:1;" offset="0.78125"/><stop style="stop-color:#3c853d;stop-opacity:1;" offset="0.785156"/><stop style="stop-color:#3d873d;stop-opacity:1;" offset="0.789063"/><stop style="stop-color:#3d883d;stop-opacity:1;" offset="0.792969"/><stop style="stop-color:#3e893c;stop-opacity:1;" offset="0.796875"/><stop style="stop-color:#3e8a3c;stop-opacity:1;" offset="0.800781"/><stop style="stop-color:#3f8b3c;stop-opacity:1;" offset="0.804688"/><stop style="stop-color:#408d3b;stop-opacity:1;" offset="0.808594"/><stop style="stop-color:#408e3b;stop-opacity:1;" offset="0.8125"/><stop style="stop-color:#418f3a;stop-opacity:1;" offset="0.816406"/><stop style="stop-color:#41903a;stop-opacity:1;" offset="0.820313"/><stop style="stop-color:#42913a;stop-opacity:1;" offset="0.824219"/><stop style="stop-color:#439339;stop-opacity:1;" offset="0.828125"/><stop style="stop-color:#439439;stop-opacity:1;" offset="0.832031"/><stop style="stop-color:#449539;stop-opacity:1;" offset="0.835938"/><stop style="stop-color:#449638;stop-opacity:1;" offset="0.839844"/><stop style="stop-color:#459738;stop-opacity:1;" offset="0.84375"/><stop style="stop-color:#459938;stop-opacity:1;" offset="0.847656"/><stop style="stop-color:#469a37;stop-opacity:1;" offset="0.851563"/><stop style="stop-color:#479b37;stop-opacity:1;" offset="0.855469"/><stop style="stop-color:#479c37;stop-opacity:1;" offset="0.859375"/><stop style="stop-color:#489d36;stop-opacity:1;" offset="0.863281"/><stop style="stop-color:#489f36;stop-opacity:1;" offset="0.867188"/><stop style="stop-color:#49a036;stop-opacity:1;" offset="0.871094"/><stop style="stop-color:#4aa135;stop-opacity:1;" offset="0.875"/><stop style="stop-color:#4aa235;stop-opacity:1;" offset="0.878906"/><stop style="stop-color:#4ba335;stop-opacity:1;" offset="0.882812"/><stop style="stop-color:#4ba534;stop-opacity:1;" offset="0.886719"/><stop style="stop-color:#4ca634;stop-opacity:1;" offset="0.890625"/><stop style="stop-color:#4ca734;stop-opacity:1;" offset="0.894531"/><stop style="stop-color:#4da833;stop-opacity:1;" offset="0.898438"/><stop style="stop-color:#4ea933;stop-opacity:1;" offset="0.902344"/><stop style="stop-color:#4eab33;stop-opacity:1;" offset="0.90625"/><stop style="stop-color:#4fac32;stop-opacity:1;" offset="0.910156"/><stop style="stop-color:#4fad32;stop-opacity:1;" offset="0.914062"/><stop style="stop-color:#50ae32;stop-opacity:1;" offset="0.917969"/><stop style="stop-color:#51af31;stop-opacity:1;" offset="0.921875"/><stop style="stop-color:#51b031;stop-opacity:1;" offset="0.925781"/><stop style="stop-color:#52b231;stop-opacity:1;" offset="0.929688"/><stop style="stop-color:#52b330;stop-opacity:1;" offset="0.933594"/><stop style="stop-color:#53b430;stop-opacity:1;" offset="0.9375"/><stop style="stop-color:#53b430;stop-opacity:1;" offset="1"/></linearGradient></defs><g id="82afda115d"><rect x="0" width="810" y="0" height="809.999993" style="fill:#ffffff;fill-opacity:1;stroke:none;"/><rect x="0" width="810" y="0" height="809.999993" style="fill:#ffffff;fill-opacity:1;stroke:none;"/><g style="fill:#102b57;fill-opacity:1;"><g transform="translate(67.362159, 536.286369)"><path style="stroke:none" d="M 11.625 0 L 11.625 -115.921875 C 11.625 -121.671875 12.5625 -126.648438 14.4375 -130.859375 C 16.3125 -135.078125 18.816406 -138.320312 21.953125 -140.59375 C 25.097656 -142.863281 28.441406 -144.5 31.984375 -145.5 C 35.523438 -146.507812 39.367188 -146.945312 43.515625 -146.8125 C 78.015625 -145.875 99.546875 -144.804688 108.109375 -143.609375 L 108.109375 -120.34375 L 50.140625 -120.34375 C 47.597656 -120.34375 45.59375 -120.070312 44.125 -119.53125 C 42.65625 -119 41.617188 -118.0625 41.015625 -116.71875 C 40.410156 -115.382812 40.039062 -114.25 39.90625 -113.3125 C 39.78125 -112.375 39.71875 -110.972656 39.71875 -109.109375 L 39.71875 -86.234375 L 99.078125 -84.234375 L 99.078125 -60.96875 L 39.71875 -59.171875 L 39.71875 0 Z M 11.625 0 "/></g></g><g style="fill:#102b57;fill-opacity:1;"><g transform="translate(186.088623, 536.286369)"><path style="stroke:none" d="M 11.625 -28.875 L 11.625 -116.328125 C 11.625 -121.273438 12.289062 -125.617188 13.625 -129.359375 C 14.96875 -133.109375 16.707031 -136.050781 18.84375 -138.1875 C 20.988281 -140.320312 23.5 -142.09375 26.375 -143.5 C 29.25 -144.90625 32.054688 -145.804688 34.796875 -146.203125 C 37.535156 -146.609375 40.441406 -146.8125 43.515625 -146.8125 C 78.015625 -145.875 99.546875 -144.804688 108.109375 -143.609375 L 108.109375 -120.34375 L 50.140625 -120.34375 C 47.597656 -120.34375 45.59375 -120.070312 44.125 -119.53125 C 42.65625 -119 41.617188 -118.0625 41.015625 -116.71875 C 40.410156 -115.382812 40.039062 -114.25 39.90625 -113.3125 C 39.78125 -112.375 39.71875 -110.972656 39.71875 -109.109375 L 39.71875 -86.234375 L 99.078125 -84.234375 L 99.078125 -60.96875 L 39.71875 -59.171875 L 39.71875 -36.296875 C 39.71875 -33.753906 40.050781 -31.710938 40.71875 -30.171875 C 41.382812 -28.640625 42.453125 -27.570312 43.921875 -26.96875 C 45.390625 -26.375 46.625 -26.039062 47.625 -25.96875 C 48.632812 -25.90625 50.140625 -25.875 52.140625 -25.875 L 108.109375 -25.875 L 108.109375 -2.8125 C 104.765625 -2.40625 97.875 -1.898438 87.4375 -1.296875 C 77.007812 -0.703125 67.382812 -0.269531 58.5625 0 L 45.53125 0.609375 C 42.457031 0.734375 39.582031 0.660156 36.90625 0.390625 C 34.226562 0.128906 31.285156 -0.597656 28.078125 -1.796875 C 24.867188 -3.003906 22.09375 -4.609375 19.75 -6.609375 C 17.414062 -8.617188 15.476562 -11.53125 13.9375 -15.34375 C 12.394531 -19.15625 11.625 -23.664062 11.625 -28.875 Z M 11.625 -28.875 "/></g></g><g style="fill:#102b57;fill-opacity:1;"><g transform="translate(304.815087, 536.286369)"><path style="stroke:none" d="M 9.828125 -97.46875 L 9.828125 -110.109375 C 9.828125 -115.722656 10.492188 -120.734375 11.828125 -125.140625 C 13.171875 -129.554688 14.976562 -133.164062 17.25 -135.96875 C 19.519531 -138.78125 22.359375 -141.085938 25.765625 -142.890625 C 29.179688 -144.703125 32.789062 -145.972656 36.59375 -146.703125 C 40.40625 -147.441406 44.71875 -147.878906 49.53125 -148.015625 C 59.695312 -148.285156 70.191406 -147.816406 81.015625 -146.609375 C 91.847656 -145.410156 100.273438 -143.941406 106.296875 -142.203125 L 106.296875 -120.140625 C 91.054688 -121.472656 74.675781 -122.140625 57.15625 -122.140625 C 50.070312 -122.273438 45.09375 -121.503906 42.21875 -119.828125 C 39.34375 -118.160156 37.90625 -114.1875 37.90625 -107.90625 L 37.90625 -100.6875 C 37.90625 -95.070312 39.039062 -91.328125 41.3125 -89.453125 C 43.582031 -87.578125 47.660156 -86.640625 53.546875 -86.640625 L 76.8125 -86.640625 C 80.289062 -86.640625 83.53125 -86.304688 86.53125 -85.640625 C 89.539062 -84.972656 92.148438 -84.035156 94.359375 -82.828125 C 96.566406 -81.628906 98.570312 -80.226562 100.375 -78.625 C 102.1875 -77.019531 103.722656 -75.210938 104.984375 -73.203125 C 106.253906 -71.203125 107.320312 -69.164062 108.1875 -67.09375 C 109.0625 -65.019531 109.734375 -62.84375 110.203125 -60.5625 C 110.671875 -58.289062 111.003906 -56.117188 111.203125 -54.046875 C 111.410156 -51.972656 111.515625 -49.867188 111.515625 -47.734375 L 111.515625 -37.90625 C 111.515625 -31.488281 110.710938 -25.875 109.109375 -21.0625 C 107.503906 -16.25 105.460938 -12.4375 102.984375 -9.625 C 100.515625 -6.820312 97.441406 -4.550781 93.765625 -2.8125 C 90.085938 -1.070312 86.441406 0.0976562 82.828125 0.703125 C 79.222656 1.304688 75.28125 1.609375 71 1.609375 C 46.789062 1.609375 27.867188 -0.394531 14.234375 -4.40625 L 14.234375 -26.46875 C 28.941406 -25 45.988281 -24.265625 65.375 -24.265625 C 67.914062 -24.265625 70.085938 -24.394531 71.890625 -24.65625 C 73.703125 -24.925781 75.578125 -25.460938 77.515625 -26.265625 C 79.453125 -27.078125 80.921875 -28.382812 81.921875 -30.1875 C 82.929688 -31.988281 83.4375 -34.226562 83.4375 -36.90625 L 83.4375 -44.71875 C 83.4375 -49.40625 82.5 -52.882812 80.625 -55.15625 C 78.75 -57.425781 75.269531 -58.5625 70.1875 -58.5625 L 47.734375 -58.5625 C 22.460938 -58.695312 9.828125 -71.664062 9.828125 -97.46875 Z M 9.828125 -97.46875 "/></g></g><g style="fill:#102b57;fill-opacity:1;"><g transform="translate(428.212688, 536.286369)"><path style="stroke:none" d="M 12.03125 0 L 12.03125 -146.8125 L 72.40625 -146.8125 C 95.800781 -146.8125 107.5 -132.640625 107.5 -104.296875 C 107.5 -96.273438 106.726562 -89.390625 105.1875 -83.640625 C 103.65625 -77.890625 101.785156 -73.507812 99.578125 -70.5 C 97.367188 -67.488281 94.523438 -65.144531 91.046875 -63.46875 C 87.578125 -61.800781 84.503906 -60.765625 81.828125 -60.359375 C 79.148438 -59.960938 76.007812 -59.765625 72.40625 -59.765625 C 68.53125 -59.765625 60.101562 -60.363281 47.125 -61.5625 C 34.15625 -62.769531 27.40625 -63.507812 26.875 -63.78125 L 26.875 0 Z M 26.875 -74.609375 L 72.40625 -74.609375 C 78.820312 -74.609375 83.765625 -76.546875 87.234375 -80.421875 C 90.710938 -84.296875 92.453125 -92.253906 92.453125 -104.296875 C 92.328125 -110.441406 91.59375 -115.519531 90.25 -119.53125 C 88.914062 -123.539062 87.078125 -126.347656 84.734375 -127.953125 C 82.398438 -129.554688 80.363281 -130.59375 78.625 -131.0625 C 76.882812 -131.53125 74.8125 -131.765625 72.40625 -131.765625 L 26.875 -131.765625 Z M 26.875 -74.609375 "/></g></g><g style="fill:#102b57;fill-opacity:1;"><g transform="translate(549.74688, 536.286369)"><path style="stroke:none" d="M 16.046875 0 L 16.046875 -146.8125 L 30.890625 -146.8125 L 30.890625 0 Z M 16.046875 0 "/></g></g><g style="fill:#102b57;fill-opacity:1;"><g transform="translate(597.678972, 536.286369)"><path style="stroke:none" d="M 16.046875 0 L 16.046875 -146.8125 L 31.28125 -146.8125 L 109.5 -27.671875 L 109.5 -146.8125 L 124.34375 -146.8125 L 124.34375 0 L 109.5 0 L 31.09375 -119.140625 L 31.09375 0 Z M 16.046875 0 "/></g></g><g style="fill:#102b57;fill-opacity:1;"><g transform="translate(67.362159, 614.991678)"><path style="stroke:none" d="M 9.78125 -29.234375 L 9.78125 -17.59375 L 26.515625 -17.59375 L 26.515625 -13.5 L 9.78125 -13.5 L 9.78125 0 L 5 0 L 5 -33.375 L 28.5625 -33.375 L 28.5625 -29.234375 Z M 9.78125 -29.234375 "/></g></g><g style="fill:#102b57;fill-opacity:1;"><g transform="translate(109.498597, 614.991678)"><path style="stroke:none" d="M 29.234375 -4.15625 L 29.234375 0 L 5 0 L 5 -33.375 L 28.5625 -33.375 L 28.5625 -29.234375 L 9.78125 -29.234375 L 9.78125 -18.984375 L 26.515625 -18.984375 L 26.515625 -14.921875 L 9.78125 -14.921875 L 9.78125 -4.15625 Z M 29.234375 -4.15625 "/></g></g><g style="fill:#102b57;fill-opacity:1;"><g transform="translate(153.302686, 614.991678)"><path style="stroke:none" d="M 5 -33.375 L 9.78125 -33.375 L 9.78125 0 L 5 0 Z M 5 -33.375 "/></g></g><g style="fill:#102b57;fill-opacity:1;"><g transform="translate(179.953621, 614.991678)"><path style="stroke:none" d="M 27.328125 0 L 20.125 -10.25 C 19.226562 -10.1875 18.53125 -10.15625 18.03125 -10.15625 L 9.78125 -10.15625 L 9.78125 0 L 5 0 L 5 -33.375 L 18.03125 -33.375 C 22.351562 -33.375 25.753906 -32.34375 28.234375 -30.28125 C 30.710938 -28.21875 31.953125 -25.375 31.953125 -21.75 C 31.953125 -19.175781 31.316406 -16.984375 30.046875 -15.171875 C 28.773438 -13.359375 26.960938 -12.035156 24.609375 -11.203125 L 32.515625 0 Z M 17.890625 -14.203125 C 20.898438 -14.203125 23.203125 -14.851562 24.796875 -16.15625 C 26.390625 -17.46875 27.1875 -19.332031 27.1875 -21.75 C 27.1875 -24.164062 26.390625 -26.015625 24.796875 -27.296875 C 23.203125 -28.585938 20.898438 -29.234375 17.890625 -29.234375 L 9.78125 -29.234375 L 9.78125 -14.203125 Z M 17.890625 -14.203125 "/></g></g><g style="fill:#102b57;fill-opacity:1;"><g transform="translate(226.473653, 614.991678)"><path style="stroke:none" d="M 26.28125 -8.34375 L 8.53125 -8.34375 L 4.859375 0 L -0.046875 0 L 15.0625 -33.375 L 19.796875 -33.375 L 34.953125 0 L 29.953125 0 Z M 24.609375 -12.15625 L 17.40625 -28.515625 L 10.203125 -12.15625 Z M 24.609375 -12.15625 "/></g></g><g style="fill:#102b57;fill-opacity:1;"><g transform="translate(273.231914, 614.991678)"><path style="stroke:none" d=""/></g></g><g style="fill:#102b57;fill-opacity:1;"><g transform="translate(297.929259, 614.991678)"><path style="stroke:none" d="M 5 -33.375 L 19.078125 -33.375 C 22.609375 -33.375 25.738281 -32.675781 28.46875 -31.28125 C 31.207031 -29.882812 33.328125 -27.921875 34.828125 -25.390625 C 36.335938 -22.867188 37.09375 -19.96875 37.09375 -16.6875 C 37.09375 -13.414062 36.335938 -10.515625 34.828125 -7.984375 C 33.328125 -5.460938 31.207031 -3.5 28.46875 -2.09375 C 25.738281 -0.695312 22.609375 0 19.078125 0 L 5 0 Z M 18.78125 -4.15625 C 21.488281 -4.15625 23.867188 -4.675781 25.921875 -5.71875 C 27.972656 -6.769531 29.550781 -8.238281 30.65625 -10.125 C 31.769531 -12.019531 32.328125 -14.207031 32.328125 -16.6875 C 32.328125 -19.164062 31.769531 -21.347656 30.65625 -23.234375 C 29.550781 -25.128906 27.972656 -26.601562 25.921875 -27.65625 C 23.867188 -28.707031 21.488281 -29.234375 18.78125 -29.234375 L 9.78125 -29.234375 L 9.78125 -4.15625 Z M 18.78125 -4.15625 "/></g></g><g style="fill:#102b57;fill-opacity:1;"><g transform="translate(349.166398, 614.991678)"><path style="stroke:none" d="M 20.078125 0.375 C 16.703125 0.375 13.664062 -0.359375 10.96875 -1.828125 C 8.269531 -3.304688 6.144531 -5.347656 4.59375 -7.953125 C 3.050781 -10.566406 2.28125 -13.476562 2.28125 -16.6875 C 2.28125 -19.894531 3.050781 -22.800781 4.59375 -25.40625 C 6.144531 -28.019531 8.269531 -30.066406 10.96875 -31.546875 C 13.664062 -33.023438 16.703125 -33.765625 20.078125 -33.765625 C 23.410156 -33.765625 26.425781 -33.023438 29.125 -31.546875 C 31.832031 -30.066406 33.945312 -28.03125 35.46875 -25.4375 C 37 -22.851562 37.765625 -19.9375 37.765625 -16.6875 C 37.765625 -13.445312 37 -10.53125 35.46875 -7.9375 C 33.945312 -5.34375 31.832031 -3.304688 29.125 -1.828125 C 26.425781 -0.359375 23.410156 0.375 20.078125 0.375 Z M 20.078125 -3.859375 C 22.523438 -3.859375 24.722656 -4.414062 26.671875 -5.53125 C 28.628906 -6.644531 30.171875 -8.175781 31.296875 -10.125 C 32.429688 -12.082031 33 -14.269531 33 -16.6875 C 33 -19.101562 32.429688 -21.289062 31.296875 -23.25 C 30.171875 -25.207031 28.628906 -26.738281 26.671875 -27.84375 C 24.722656 -28.957031 22.523438 -29.515625 20.078125 -29.515625 C 17.628906 -29.515625 15.410156 -28.957031 13.421875 -27.84375 C 11.429688 -26.738281 9.875 -25.207031 8.75 -23.25 C 7.625 -21.289062 7.0625 -19.101562 7.0625 -16.6875 C 7.0625 -14.269531 7.625 -12.082031 8.75 -10.125 C 9.875 -8.175781 11.429688 -6.644531 13.421875 -5.53125 C 15.410156 -4.414062 17.628906 -3.859375 20.078125 -3.859375 Z M 20.078125 -3.859375 "/></g></g><g style="fill:#102b57;fill-opacity:1;"><g transform="translate(401.070605, 614.991678)"><path style="stroke:none" d=""/></g></g><g style="fill:#102b57;fill-opacity:1;"><g transform="translate(425.76795, 614.991678)"><path style="stroke:none" d="M 29.234375 -4.15625 L 29.234375 0 L 5 0 L 5 -33.375 L 28.5625 -33.375 L 28.5625 -29.234375 L 9.78125 -29.234375 L 9.78125 -18.984375 L 26.515625 -18.984375 L 26.515625 -14.921875 L 9.78125 -14.921875 L 9.78125 -4.15625 Z M 29.234375 -4.15625 "/></g></g><g style="fill:#102b57;fill-opacity:1;"><g transform="translate(469.572039, 614.991678)"><path style="stroke:none" d="M 14.734375 0.375 C 12.222656 0.375 9.796875 -0.0078125 7.453125 -0.78125 C 5.117188 -1.5625 3.285156 -2.570312 1.953125 -3.8125 L 3.71875 -7.53125 C 4.988281 -6.382812 6.617188 -5.453125 8.609375 -4.734375 C 10.597656 -4.023438 12.640625 -3.671875 14.734375 -3.671875 C 17.503906 -3.671875 19.570312 -4.140625 20.9375 -5.078125 C 22.300781 -6.015625 22.984375 -7.265625 22.984375 -8.828125 C 22.984375 -9.960938 22.609375 -10.890625 21.859375 -11.609375 C 21.117188 -12.328125 20.195312 -12.875 19.09375 -13.25 C 18 -13.632812 16.453125 -14.066406 14.453125 -14.546875 C 11.941406 -15.148438 9.914062 -15.753906 8.375 -16.359375 C 6.832031 -16.960938 5.507812 -17.890625 4.40625 -19.140625 C 3.3125 -20.398438 2.765625 -22.09375 2.765625 -24.21875 C 2.765625 -26 3.234375 -27.601562 4.171875 -29.03125 C 5.109375 -30.46875 6.53125 -31.613281 8.4375 -32.46875 C 10.34375 -33.332031 12.710938 -33.765625 15.546875 -33.765625 C 17.515625 -33.765625 19.453125 -33.507812 21.359375 -33 C 23.265625 -32.488281 24.90625 -31.757812 26.28125 -30.8125 L 24.703125 -26.984375 C 23.304688 -27.878906 21.8125 -28.554688 20.21875 -29.015625 C 18.625 -29.472656 17.066406 -29.703125 15.546875 -29.703125 C 12.847656 -29.703125 10.820312 -29.207031 9.46875 -28.21875 C 8.113281 -27.238281 7.4375 -25.972656 7.4375 -24.421875 C 7.4375 -23.273438 7.816406 -22.34375 8.578125 -21.625 C 9.347656 -20.90625 10.296875 -20.347656 11.421875 -19.953125 C 12.546875 -19.554688 14.078125 -19.132812 16.015625 -18.6875 C 18.535156 -18.082031 20.554688 -17.476562 22.078125 -16.875 C 23.609375 -16.269531 24.921875 -15.347656 26.015625 -14.109375 C 27.109375 -12.867188 27.65625 -11.203125 27.65625 -9.109375 C 27.65625 -7.359375 27.175781 -5.757812 26.21875 -4.3125 C 25.269531 -2.863281 23.828125 -1.71875 21.890625 -0.875 C 19.953125 -0.0390625 17.566406 0.375 14.734375 0.375 Z M 14.734375 0.375 "/></g></g><g style="fill:#102b57;fill-opacity:1;"><g transform="translate(511.041408, 614.991678)"><path style="stroke:none" d="M 18.03125 -33.375 C 22.351562 -33.375 25.753906 -32.34375 28.234375 -30.28125 C 30.710938 -28.21875 31.953125 -25.375 31.953125 -21.75 C 31.953125 -18.125 30.710938 -15.273438 28.234375 -13.203125 C 25.753906 -11.140625 22.351562 -10.109375 18.03125 -10.109375 L 9.78125 -10.109375 L 9.78125 0 L 5 0 L 5 -33.375 Z M 17.890625 -14.265625 C 20.898438 -14.265625 23.203125 -14.90625 24.796875 -16.1875 C 26.390625 -17.476562 27.1875 -19.332031 27.1875 -21.75 C 27.1875 -24.164062 26.390625 -26.015625 24.796875 -27.296875 C 23.203125 -28.585938 20.898438 -29.234375 17.890625 -29.234375 L 9.78125 -29.234375 L 9.78125 -14.265625 Z M 17.890625 -14.265625 "/></g></g><g style="fill:#102b57;fill-opacity:1;"><g transform="translate(557.323211, 614.991678)"><path style="stroke:none" d="M 20.078125 0.375 C 16.703125 0.375 13.664062 -0.359375 10.96875 -1.828125 C 8.269531 -3.304688 6.144531 -5.347656 4.59375 -7.953125 C 3.050781 -10.566406 2.28125 -13.476562 2.28125 -16.6875 C 2.28125 -19.894531 3.050781 -22.800781 4.59375 -25.40625 C 6.144531 -28.019531 8.269531 -30.066406 10.96875 -31.546875 C 13.664062 -33.023438 16.703125 -33.765625 20.078125 -33.765625 C 23.410156 -33.765625 26.425781 -33.023438 29.125 -31.546875 C 31.832031 -30.066406 33.945312 -28.03125 35.46875 -25.4375 C 37 -22.851562 37.765625 -19.9375 37.765625 -16.6875 C 37.765625 -13.445312 37 -10.53125 35.46875 -7.9375 C 33.945312 -5.34375 31.832031 -3.304688 29.125 -1.828125 C 26.425781 -0.359375 23.410156 0.375 20.078125 0.375 Z M 20.078125 -3.859375 C 22.523438 -3.859375 24.722656 -4.414062 26.671875 -5.53125 C 28.628906 -6.644531 30.171875 -8.175781 31.296875 -10.125 C 32.429688 -12.082031 33 -14.269531 33 -16.6875 C 33 -19.101562 32.429688 -21.289062 31.296875 -23.25 C 30.171875 -25.207031 28.628906 -26.738281 26.671875 -27.84375 C 24.722656 -28.957031 22.523438 -29.515625 20.078125 -29.515625 C 17.628906 -29.515625 15.410156 -28.957031 13.421875 -27.84375 C 11.429688 -26.738281 9.875 -25.207031 8.75 -23.25 C 7.625 -21.289062 7.0625 -19.101562 7.0625 -16.6875 C 7.0625 -14.269531 7.625 -12.082031 8.75 -10.125 C 9.875 -8.175781 11.429688 -6.644531 13.421875 -5.53125 C 15.410156 -4.414062 17.628906 -3.859375 20.078125 -3.859375 Z M 20.078125 -3.859375 "/></g></g><g style="fill:#102b57;fill-opacity:1;"><g transform="translate(609.227418, 614.991678)"><path style="stroke:none" d="M 27.328125 0 L 20.125 -10.25 C 19.226562 -10.1875 18.53125 -10.15625 18.03125 -10.15625 L 9.78125 -10.15625 L 9.78125 0 L 5 0 L 5 -33.375 L 18.03125 -33.375 C 22.351562 -33.375 25.753906 -32.34375 28.234375 -30.28125 C 30.710938 -28.21875 31.953125 -25.375 31.953125 -21.75 C 31.953125 -19.175781 31.316406 -16.984375 30.046875 -15.171875 C 28.773438 -13.359375 26.960938 -12.035156 24.609375 -11.203125 L 32.515625 0 Z M 17.890625 -14.203125 C 20.898438 -14.203125 23.203125 -14.851562 24.796875 -16.15625 C 26.390625 -17.46875 27.1875 -19.332031 27.1875 -21.75 C 27.1875 -24.164062 26.390625 -26.015625 24.796875 -27.296875 C 23.203125 -28.585938 20.898438 -29.234375 17.890625 -29.234375 L 9.78125 -29.234375 L 9.78125 -14.203125 Z M 17.890625 -14.203125 "/></g></g><g style="fill:#102b57;fill-opacity:1;"><g transform="translate(655.747451, 614.991678)"><path style="stroke:none" d="M 11.640625 -29.234375 L 0.1875 -29.234375 L 0.1875 -33.375 L 27.796875 -33.375 L 27.796875 -29.234375 L 16.359375 -29.234375 L 16.359375 0 L 11.640625 0 Z M 11.640625 -29.234375 "/></g></g><g style="fill:#102b57;fill-opacity:1;"><g transform="translate(695.596786, 614.991678)"><path style="stroke:none" d="M 29.234375 -4.15625 L 29.234375 0 L 5 0 L 5 -33.375 L 28.5625 -33.375 L 28.5625 -29.234375 L 9.78125 -29.234375 L 9.78125 -18.984375 L 26.515625 -18.984375 L 26.515625 -14.921875 L 9.78125 -14.921875 L 9.78125 -4.15625 Z M 29.234375 -4.15625 "/></g></g><g style="fill:#102b57;fill-opacity:1;"><g transform="translate(67.362159, 677.347082)"><path style="stroke:none" d="M 5 -33.375 L 19.078125 -33.375 C 22.609375 -33.375 25.738281 -32.675781 28.46875 -31.28125 C 31.207031 -29.882812 33.328125 -27.921875 34.828125 -25.390625 C 36.335938 -22.867188 37.09375 -19.96875 37.09375 -16.6875 C 37.09375 -13.414062 36.335938 -10.515625 34.828125 -7.984375 C 33.328125 -5.460938 31.207031 -3.5 28.46875 -2.09375 C 25.738281 -0.695312 22.609375 0 19.078125 0 L 5 0 Z M 18.78125 -4.15625 C 21.488281 -4.15625 23.867188 -4.675781 25.921875 -5.71875 C 27.972656 -6.769531 29.550781 -8.238281 30.65625 -10.125 C 31.769531 -12.019531 32.328125 -14.207031 32.328125 -16.6875 C 32.328125 -19.164062 31.769531 -21.347656 30.65625 -23.234375 C 29.550781 -25.128906 27.972656 -26.601562 25.921875 -27.65625 C 23.867188 -28.707031 21.488281 -29.234375 18.78125 -29.234375 L 9.78125 -29.234375 L 9.78125 -4.15625 Z M 18.78125 -4.15625 "/></g></g><g style="fill:#102b57;fill-opacity:1;"><g transform="translate(118.599297, 677.347082)"><path style="stroke:none" d="M 29.234375 -4.15625 L 29.234375 0 L 5 0 L 5 -33.375 L 28.5625 -33.375 L 28.5625 -29.234375 L 9.78125 -29.234375 L 9.78125 -18.984375 L 26.515625 -18.984375 L 26.515625 -14.921875 L 9.78125 -14.921875 L 9.78125 -4.15625 Z M 29.234375 -4.15625 "/></g></g><g style="fill:#102b57;fill-opacity:1;"><g transform="translate(162.403387, 677.347082)"><path style="stroke:none" d=""/></g></g><g style="fill:#102b57;fill-opacity:1;"><g transform="translate(187.100731, 677.347082)"><path style="stroke:none" d="M 5 -33.375 L 9.78125 -33.375 L 9.78125 0 L 5 0 Z M 5 -33.375 "/></g></g><g style="fill:#102b57;fill-opacity:1;"><g transform="translate(213.751666, 677.347082)"><path style="stroke:none" d="M 33.71875 -33.375 L 33.71875 0 L 29.8125 0 L 9.78125 -24.890625 L 9.78125 0 L 5 0 L 5 -33.375 L 8.921875 -33.375 L 28.953125 -8.484375 L 28.953125 -33.375 Z M 33.71875 -33.375 "/></g></g><g style="fill:#102b57;fill-opacity:1;"><g transform="translate(264.321735, 677.347082)"><path style="stroke:none" d="M 5 -33.375 L 19.078125 -33.375 C 22.609375 -33.375 25.738281 -32.675781 28.46875 -31.28125 C 31.207031 -29.882812 33.328125 -27.921875 34.828125 -25.390625 C 36.335938 -22.867188 37.09375 -19.96875 37.09375 -16.6875 C 37.09375 -13.414062 36.335938 -10.515625 34.828125 -7.984375 C 33.328125 -5.460938 31.207031 -3.5 28.46875 -2.09375 C 25.738281 -0.695312 22.609375 0 19.078125 0 L 5 0 Z M 18.78125 -4.15625 C 21.488281 -4.15625 23.867188 -4.675781 25.921875 -5.71875 C 27.972656 -6.769531 29.550781 -8.238281 30.65625 -10.125 C 31.769531 -12.019531 32.328125 -14.207031 32.328125 -16.6875 C 32.328125 -19.164062 31.769531 -21.347656 30.65625 -23.234375 C 29.550781 -25.128906 27.972656 -26.601562 25.921875 -27.65625 C 23.867188 -28.707031 21.488281 -29.234375 18.78125 -29.234375 L 9.78125 -29.234375 L 9.78125 -4.15625 Z M 18.78125 -4.15625 "/></g></g><g style="fill:#102b57;fill-opacity:1;"><g transform="translate(315.558874, 677.347082)"><path style="stroke:none" d="M 26.28125 -8.34375 L 8.53125 -8.34375 L 4.859375 0 L -0.046875 0 L 15.0625 -33.375 L 19.796875 -33.375 L 34.953125 0 L 29.953125 0 Z M 24.609375 -12.15625 L 17.40625 -28.515625 L 10.203125 -12.15625 Z M 24.609375 -12.15625 "/></g></g><g style="fill:#102b57;fill-opacity:1;"><g transform="translate(362.317135, 677.347082)"><path style="stroke:none" d="M 5 -33.375 L 9.78125 -33.375 L 9.78125 0 L 5 0 Z M 5 -33.375 "/></g></g><g style="fill:#102b57;fill-opacity:1;"><g transform="translate(388.96807, 677.347082)"><path style="stroke:none" d="M 26.28125 -8.34375 L 8.53125 -8.34375 L 4.859375 0 L -0.046875 0 L 15.0625 -33.375 L 19.796875 -33.375 L 34.953125 0 L 29.953125 0 Z M 24.609375 -12.15625 L 17.40625 -28.515625 L 10.203125 -12.15625 Z M 24.609375 -12.15625 "/></g></g><g style="fill:#102b57;fill-opacity:1;"><g transform="translate(435.726331, 677.347082)"><path style="stroke:none" d="M 11.640625 -29.234375 L 0.1875 -29.234375 L 0.1875 -33.375 L 27.796875 -33.375 L 27.796875 -29.234375 L 16.359375 -29.234375 L 16.359375 0 L 11.640625 0 Z M 11.640625 -29.234375 "/></g></g><g style="fill:#102b57;fill-opacity:1;"><g transform="translate(475.575667, 677.347082)"><path style="stroke:none" d="M 18.84375 0.375 C 14.382812 0.375 10.914062 -0.894531 8.4375 -3.4375 C 5.957031 -5.976562 4.71875 -9.632812 4.71875 -14.40625 L 4.71875 -33.375 L 9.484375 -33.375 L 9.484375 -14.59375 C 9.484375 -7.4375 12.617188 -3.859375 18.890625 -3.859375 C 21.941406 -3.859375 24.273438 -4.738281 25.890625 -6.5 C 27.515625 -8.269531 28.328125 -10.96875 28.328125 -14.59375 L 28.328125 -33.375 L 32.953125 -33.375 L 32.953125 -14.40625 C 32.953125 -9.601562 31.710938 -5.9375 29.234375 -3.40625 C 26.753906 -0.882812 23.289062 0.375 18.84375 0.375 Z M 18.84375 0.375 "/></g></g><g style="fill:#102b57;fill-opacity:1;"><g transform="translate(525.145154, 677.347082)"><path style="stroke:none" d="M 27.46875 -17.3125 C 29.40625 -16.769531 30.929688 -15.789062 32.046875 -14.375 C 33.160156 -12.957031 33.71875 -11.171875 33.71875 -9.015625 C 33.71875 -6.117188 32.628906 -3.890625 30.453125 -2.328125 C 28.273438 -0.773438 25.101562 0 20.9375 0 L 5 0 L 5 -33.375 L 19.984375 -33.375 C 23.796875 -33.375 26.742188 -32.609375 28.828125 -31.078125 C 30.910156 -29.554688 31.953125 -27.445312 31.953125 -24.75 C 31.953125 -23 31.546875 -21.488281 30.734375 -20.21875 C 29.921875 -18.945312 28.832031 -17.976562 27.46875 -17.3125 Z M 9.78125 -29.515625 L 9.78125 -18.84375 L 19.546875 -18.84375 C 21.992188 -18.84375 23.878906 -19.296875 25.203125 -20.203125 C 26.523438 -21.109375 27.1875 -22.429688 27.1875 -24.171875 C 27.1875 -25.921875 26.523438 -27.25 25.203125 -28.15625 C 23.878906 -29.0625 21.992188 -29.515625 19.546875 -29.515625 Z M 20.75 -3.859375 C 23.445312 -3.859375 25.476562 -4.300781 26.84375 -5.1875 C 28.21875 -6.082031 28.90625 -7.484375 28.90625 -9.390625 C 28.90625 -13.109375 26.1875 -14.96875 20.75 -14.96875 L 9.78125 -14.96875 L 9.78125 -3.859375 Z M 20.75 -3.859375 "/></g></g><g style="fill:#102b57;fill-opacity:1;"><g transform="translate(573.094608, 677.347082)"><path style="stroke:none" d="M 26.28125 -8.34375 L 8.53125 -8.34375 L 4.859375 0 L -0.046875 0 L 15.0625 -33.375 L 19.796875 -33.375 L 34.953125 0 L 29.953125 0 Z M 24.609375 -12.15625 L 17.40625 -28.515625 L 10.203125 -12.15625 Z M 24.609375 -12.15625 "/></g></g><g clip-rule="nonzero" clip-path="url(#7733f51601)"><g clip-rule="nonzero" clip-path="url(#463c913568)"><path style=" stroke:none;fill-rule:nonzero;fill:url(#d1a2224b23);" d="M 356.324219 81 L 356.324219 149.65625 L 484.417969 149.65625 L 484.417969 81 Z M 356.324219 81 "/></g></g><g clip-rule="nonzero" clip-path="url(#e7c8b28992)"><g clip-rule="nonzero" clip-path="url(#6a8e18f190)"><path style=" stroke:none;fill-rule:nonzero;fill:url(#8e8bcf06d5);" d="M 411.597656 83.863281 L 411.597656 226.6875 L 654.5625 226.6875 L 654.5625 83.863281 Z M 411.597656 83.863281 "/></g></g><g clip-rule="nonzero" clip-path="url(#70a9f15b8d)"><g clip-rule="nonzero" clip-path="url(#96ba067ab8)"><path style=" stroke:none;fill-rule:nonzero;fill:url(#1969408652);" d="M 362.121094 200.429688 L 362.121094 358.5 L 551.371094 358.5 L 551.371094 200.429688 Z M 362.121094 200.429688 "/></g></g><g clip-rule="nonzero" clip-path="url(#9654aa95b7)"><g clip-rule="nonzero" clip-path="url(#23b74c708c)"><path style=" stroke:none;fill-rule:nonzero;fill:url(#e787671fff);" d="M 194.0625 262.808594 L 194.0625 356.050781 L 439.992188 356.050781 L 439.992188 262.808594 Z M 194.0625 262.808594 "/></g></g></g></svg>