<svg xmlns="http://www.w3.org/2000/svg" xmlns:xlink="http://www.w3.org/1999/xlink" width="1000" zoomAndPan="magnify" viewBox="0 0 750 346.49999" height="462" preserveAspectRatio="xMidYMid meet" version="1.2"><defs><clipPath id="0fb86f6042"><path d="M 448 12.824219 L 508 12.824219 L 508 82 L 448 82 Z M 448 12.824219 "/></clipPath><clipPath id="e1ce32200c"><path d="M 24.03125 213 L 99 213 L 99 293 L 24.03125 293 Z M 24.03125 213 "/></clipPath><clipPath id="c557d82e77"><path d="M 697 311 L 714.535156 311 L 714.535156 329 L 697 329 Z M 697 311 "/></clipPath><clipPath id="ce81301391"><path d="M 24.03125 311 L 38 311 L 38 329 L 24.03125 329 Z M 24.03125 311 "/></clipPath><clipPath id="dd2baa5acf"><path d="M 324 328 L 331 328 L 331 333.363281 L 324 333.363281 Z M 324 328 "/></clipPath></defs><g id="a4df247f13"><g clip-rule="nonzero" clip-path="url(#0fb86f6042)"><path style=" stroke:none;fill-rule:nonzero;fill:#ff4318;fill-opacity:1;" d="M 449.503906 81.375 C 449.371094 81.453125 449.191406 81.421875 449.105469 81.296875 C 449.074219 81.257812 449.058594 81.203125 449.058594 81.15625 L 448.613281 32.054688 C 448.613281 31.617188 448.816406 31.203125 449.160156 30.914062 C 456.621094 24.835938 465.777344 19.046875 474.90625 16.097656 C 485.078125 12.800781 495.707031 11.996094 506.785156 13.679688 C 506.933594 13.703125 507.042969 13.820312 507.042969 13.960938 L 507.53125 67.410156 C 507.53125 67.761719 507.234375 68.042969 506.855469 68.042969 C 506.832031 68.042969 506.808594 68.042969 506.785156 68.042969 C 491.09375 66.636719 473.519531 68.847656 459.667969 75.875 C 455.519531 77.980469 452.132812 79.808594 449.503906 81.375 Z M 449.503906 81.375 "/></g><path style=" stroke:none;fill-rule:nonzero;fill:#ff4318;fill-opacity:1;" d="M 518.679688 16.550781 C 522.636719 18.394531 528.535156 21.621094 536.359375 26.21875 C 537.796875 27.0625 556.292969 38.117188 591.828125 59.375 C 591.992188 59.476562 592.085938 59.640625 592.085938 59.828125 L 592.453125 100.222656 C 592.453125 100.472656 592.234375 100.683594 591.960938 100.683594 C 591.882812 100.683594 591.8125 100.667969 591.742188 100.636719 C 574.460938 92.703125 561.386719 86.679688 552.515625 82.5625 C 544.972656 79.058594 537.4375 75.867188 529.929688 72.972656 C 526.320312 71.578125 522.714844 70.507812 519.117188 69.765625 C 518.75 69.6875 518.484375 69.390625 518.492188 69.035156 L 518.011719 16.949219 C 518.011719 16.714844 518.207031 16.519531 518.460938 16.511719 C 518.539062 16.511719 518.609375 16.527344 518.679688 16.558594 Z M 518.679688 16.550781 "/><path style=" stroke:none;fill-rule:nonzero;fill:#ff4318;fill-opacity:1;" d="M 332.574219 140.800781 C 332.511719 140.832031 332.441406 140.808594 332.410156 140.753906 C 332.402344 140.738281 332.394531 140.722656 332.394531 140.707031 L 332.175781 116.699219 C 332.175781 116.4375 332.300781 116.203125 332.519531 116.054688 C 370.246094 91.292969 406.449219 65 441.148438 37.171875 C 441.3125 37.039062 441.554688 37.054688 441.695312 37.210938 C 441.757812 37.28125 441.789062 37.359375 441.789062 37.453125 L 442.21875 84.808594 C 442.21875 85.308594 441.9375 85.769531 441.476562 86.03125 C 405.191406 105.738281 369.734375 123.964844 332.566406 140.808594 Z M 332.574219 140.800781 "/><path style=" stroke:none;fill-rule:nonzero;fill:#ff4318;fill-opacity:1;" d="M 712.113281 132.140625 L 712.332031 155.53125 C 712.332031 155.664062 712.222656 155.777344 712.082031 155.777344 C 712.035156 155.777344 711.996094 155.769531 711.957031 155.746094 L 597.8125 103.640625 C 597.726562 103.601562 597.664062 103.515625 597.664062 103.421875 L 597.304688 63.050781 C 597.304688 62.917969 597.414062 62.808594 597.554688 62.800781 C 597.609375 62.800781 597.65625 62.808594 597.695312 62.839844 L 712.003906 131.945312 C 712.074219 131.992188 712.113281 132.0625 712.113281 132.140625 Z M 712.113281 132.140625 "/><path style=" stroke:none;fill-rule:nonzero;fill:#ff4318;fill-opacity:1;" d="M 448.910156 141.292969 L 448.980469 94.566406 C 448.980469 94.371094 449.089844 94.1875 449.261719 94.085938 C 458.078125 88.738281 467.378906 85.035156 477.160156 82.992188 C 487.195312 80.898438 497.078125 80.207031 506.816406 80.929688 C 507.003906 80.9375 507.152344 81.085938 507.152344 81.257812 L 507.625 133.386719 C 507.625 133.722656 507.335938 133.996094 506.972656 134.003906 C 506.964844 134.003906 506.949219 134.003906 506.941406 134.003906 C 487.46875 133.371094 468.320312 135.933594 449.472656 141.683594 C 449.246094 141.753906 449.003906 141.636719 448.933594 141.425781 C 448.917969 141.378906 448.910156 141.339844 448.910156 141.292969 Z M 448.910156 141.292969 "/><path style=" stroke:none;fill-rule:nonzero;fill:#ff4318;fill-opacity:1;" d="M 592.351562 150.722656 C 592.351562 151.027344 592.09375 151.277344 591.765625 151.285156 C 591.710938 151.285156 591.65625 151.285156 591.601562 151.261719 C 573.566406 146.605469 555.707031 142.226562 538.035156 138.117188 C 531.375 136.578125 524.945312 135.371094 518.75 134.511719 C 518.554688 134.480469 518.40625 134.324219 518.40625 134.136719 L 517.941406 83.371094 C 517.941406 82.984375 518.269531 82.664062 518.6875 82.664062 C 518.734375 82.664062 518.789062 82.664062 518.835938 82.679688 C 525.945312 83.996094 533.511719 86.179688 541.523438 89.222656 C 557.710938 95.363281 574.421875 102.246094 591.664062 109.882812 C 591.867188 109.96875 591.992188 110.15625 591.992188 110.359375 Z M 592.351562 150.722656 "/><path style=" stroke:none;fill-rule:nonzero;fill:#ff4318;fill-opacity:1;" d="M 332.777344 170.898438 C 332.628906 170.9375 332.472656 170.851562 332.433594 170.710938 C 332.433594 170.6875 332.425781 170.671875 332.425781 170.648438 L 332.214844 147.222656 C 332.214844 146.949219 332.386719 146.699219 332.652344 146.582031 C 349.425781 139.542969 370.039062 131.15625 389.019531 122.171875 C 402.953125 115.585938 417.355469 108.914062 432.230469 102.144531 C 434.503906 101.113281 437.503906 99.648438 441.210938 97.742188 C 441.445312 97.625 441.726562 97.703125 441.859375 97.921875 C 441.890625 97.976562 441.914062 98.039062 441.914062 98.101562 C 442.0625 100.042969 442.125 101.792969 442.109375 103.351562 C 442.046875 110.414062 442.046875 123.496094 442.109375 142.609375 C 442.109375 144.09375 440.757812 144.171875 439.535156 144.5 C 403.601562 154.171875 373.085938 161.761719 347.964844 167.269531 C 343.183594 168.316406 338.121094 169.519531 332.785156 170.898438 Z M 332.777344 170.898438 "/><path style=" stroke:none;fill-rule:nonzero;fill:#ff4318;fill-opacity:1;" d="M 597.632812 152.621094 L 597.265625 112.363281 C 597.265625 112.222656 597.382812 112.105469 597.53125 112.097656 C 597.570312 112.097656 597.617188 112.097656 597.65625 112.121094 L 711.972656 158.757812 C 712.074219 158.796875 712.136719 158.890625 712.136719 158.992188 L 712.332031 180.378906 C 712.332031 180.519531 712.214844 180.636719 712.058594 180.636719 C 712.035156 180.636719 712.011719 180.636719 711.980469 180.628906 L 597.84375 152.863281 C 597.726562 152.832031 597.640625 152.730469 597.640625 152.613281 Z M 597.632812 152.621094 "/><path style=" stroke:none;fill-rule:nonzero;fill:#ff4318;fill-opacity:1;" d="M 256.007812 168.097656 L 256.078125 156.324219 C 256.078125 155.980469 256.304688 155.664062 256.640625 155.515625 C 281.597656 145.011719 305.285156 132.742188 327.722656 118.699219 C 327.839844 118.621094 328.003906 118.652344 328.082031 118.761719 C 328.113281 118.800781 328.128906 118.847656 328.128906 118.902344 L 327.972656 141.9375 C 327.972656 142.46875 327.628906 142.953125 327.105469 143.171875 C 315.628906 147.945312 298.253906 155.0625 282.964844 160.296875 C 273.90625 163.394531 265.144531 166.15625 256.6875 168.574219 C 256.40625 168.652344 256.109375 168.503906 256.023438 168.246094 C 256.007812 168.199219 256 168.144531 256 168.097656 Z M 256.007812 168.097656 "/><path style=" stroke:none;fill-rule:nonzero;fill:#ff4318;fill-opacity:1;" d="M 506.691406 197.859375 C 506.691406 198.1875 506.417969 198.453125 506.074219 198.460938 C 506.074219 198.460938 506.074219 198.460938 506.066406 198.460938 L 449.589844 198.90625 C 449.347656 198.90625 449.144531 198.726562 449.136719 198.5 C 449.136719 198.5 448.730469 153.203125 448.730469 153.203125 C 448.730469 152.730469 449.074219 152.316406 449.566406 152.207031 C 458.03125 150.402344 463.71875 148.921875 471.503906 147.6875 C 487.273438 145.167969 502.992188 144.621094 518.664062 146.042969 C 525.882812 146.691406 536.90625 148.445312 551.730469 151.300781 C 571.605469 155.125 585.003906 157.738281 591.929688 159.132812 C 592.007812 159.148438 592.070312 159.21875 592.070312 159.289062 L 592.421875 198.398438 C 592.421875 198.59375 592.25 198.757812 592.03125 198.757812 L 547.5 198.492188 C 547.09375 198.492188 546.757812 198.179688 546.757812 197.796875 C 546.757812 197.78125 546.757812 197.757812 546.757812 197.742188 C 546.921875 195.675781 546.992188 194.335938 546.960938 193.726562 C 546.554688 186.074219 542.914062 180.480469 536.03125 176.960938 C 523.9375 170.789062 508.953125 177.554688 506.886719 190.230469 C 506.496094 192.65625 506.660156 195.550781 506.675781 197.859375 Z M 506.691406 197.859375 "/><path style=" stroke:none;fill-rule:nonzero;fill:#ff4318;fill-opacity:1;" d="M 327.660156 148.617188 C 327.800781 148.5625 327.957031 148.617188 328.019531 148.742188 C 328.035156 148.773438 328.042969 148.804688 328.042969 148.84375 L 328.246094 171.328125 C 328.246094 171.671875 327.988281 171.96875 327.628906 172.039062 C 309.410156 175.601562 288.074219 179.488281 263.625 183.699219 C 261.167969 184.121094 258.769531 184.457031 256.4375 184.707031 C 256.171875 184.730469 255.9375 184.558594 255.90625 184.308594 C 255.90625 184.292969 255.90625 184.277344 255.90625 184.261719 L 255.804688 173.207031 C 255.804688 172.792969 256.09375 172.421875 256.515625 172.3125 C 266.324219 169.660156 275.871094 166.789062 285.132812 163.699219 C 302.640625 157.863281 314.527344 154.085938 327.667969 148.617188 Z M 327.660156 148.617188 "/><path style=" stroke:none;fill-rule:nonzero;fill:#ff4318;fill-opacity:1;" d="M 441.78125 154.078125 C 441.867188 154.054688 441.953125 154.109375 441.976562 154.1875 C 441.976562 154.195312 441.976562 154.210938 441.976562 154.21875 L 442.382812 198.484375 C 442.382812 198.976562 441.960938 199.375 441.429688 199.375 C 441.429688 199.375 441.429688 199.375 441.421875 199.375 C 432.417969 199.40625 422.988281 199.554688 413.140625 199.820312 C 394.832031 200.3125 377.660156 200.480469 361.621094 200.296875 C 361.035156 200.296875 360.566406 199.859375 360.558594 199.3125 C 360.480469 196.058594 360.425781 192.296875 360.386719 188.015625 C 360.371094 186.183594 358.359375 185.667969 356.554688 185.675781 C 341.851562 185.738281 334.015625 185.761719 333.035156 185.738281 C 332.621094 185.730469 332.292969 185.417969 332.285156 185.035156 L 332.214844 176.710938 C 332.214844 176.3125 332.519531 175.96875 332.941406 175.898438 C 339.378906 174.839844 345.46875 173.738281 351.1875 172.589844 C 374.796875 167.847656 402.953125 162.128906 435.65625 155.421875 C 438.285156 154.882812 440.328125 154.429688 441.773438 154.070312 Z M 441.78125 154.078125 "/><path style=" stroke:none;fill-rule:nonzero;fill:#ff4318;fill-opacity:1;" d="M 191.015625 184.652344 C 190.914062 184.675781 190.804688 184.613281 190.78125 184.511719 C 190.78125 184.496094 190.78125 184.480469 190.78125 184.464844 L 190.71875 177.429688 C 190.71875 177.328125 190.796875 177.234375 190.90625 177.203125 C 212.351562 171.90625 233.003906 165.21875 252.859375 157.128906 C 252.957031 157.089844 253.074219 157.128906 253.121094 157.222656 C 253.128906 157.246094 253.136719 157.269531 253.136719 157.292969 L 253.238281 169.207031 C 253.238281 169.472656 253.050781 169.703125 252.773438 169.773438 C 249.222656 170.65625 241.109375 172.769531 228.445312 176.101562 C 215.925781 179.394531 203.457031 182.242188 191.023438 184.644531 Z M 191.015625 184.652344 "/><path style=" stroke:none;fill-rule:nonzero;fill:#ff4318;fill-opacity:1;" d="M 710.039062 183.21875 C 710.117188 183.3125 710.09375 183.453125 709.984375 183.523438 C 709.945312 183.546875 709.898438 183.5625 709.851562 183.5625 C 704.234375 183.683594 697.066406 183.546875 688.359375 183.164062 C 685.855469 183.054688 684.292969 183.769531 683.691406 185.292969 C 683.402344 186.035156 683.300781 187.765625 683.386719 190.488281 C 683.449219 192.390625 683.480469 195.019531 683.472656 198.367188 C 683.472656 198.875 683.03125 199.28125 682.484375 199.28125 C 682.484375 199.28125 682.484375 199.28125 682.476562 199.28125 L 598.164062 198.796875 C 597.945312 198.796875 597.773438 198.632812 597.773438 198.429688 L 597.429688 160.445312 C 597.429688 160.289062 597.5625 160.164062 597.71875 160.164062 C 597.742188 160.164062 597.765625 160.164062 597.789062 160.171875 C 608.070312 162.433594 617.675781 164.40625 626.609375 166.078125 C 643.484375 169.246094 670.78125 174.683594 708.507812 182.40625 C 709.21875 182.554688 709.726562 182.820312 710.03125 183.21875 Z M 710.039062 183.21875 "/><path style=" stroke:none;fill-rule:nonzero;fill:#ff4318;fill-opacity:1;" d="M 252.875 173.121094 C 252.996094 173.066406 253.136719 173.113281 253.191406 173.214844 C 253.207031 173.246094 253.214844 173.277344 253.214844 173.316406 L 253.316406 184.847656 C 253.316406 185.214844 253.035156 185.535156 252.640625 185.613281 C 249.246094 186.269531 245.726562 186.851562 242.074219 187.351562 C 223.585938 189.902344 206.5625 192.132812 191.007812 194.054688 C 190.898438 194.070312 190.796875 194 190.78125 193.898438 C 190.78125 193.890625 190.78125 193.882812 190.78125 193.875 L 190.726562 187.257812 C 190.726562 187.171875 190.789062 187.085938 190.890625 187.070312 C 205.097656 184.472656 224.859375 180.128906 250.179688 174.035156 C 251.273438 173.769531 252.164062 173.464844 252.878906 173.128906 Z M 252.875 173.121094 "/><path style=" stroke:none;fill-rule:nonzero;fill:#ff4318;fill-opacity:1;" d="M 327.527344 176.882812 C 327.667969 176.859375 327.800781 176.945312 327.832031 177.070312 C 327.832031 177.085938 327.832031 177.101562 327.832031 177.109375 L 327.660156 202.113281 C 327.660156 202.488281 327.332031 202.792969 326.925781 202.792969 L 256.757812 203.351562 C 256.367188 203.351562 256.046875 203.058594 256.039062 202.691406 C 256.039062 202.691406 256.039062 202.683594 256.039062 202.675781 L 256.125 188.867188 C 256.125 188.679688 256.273438 188.523438 256.46875 188.492188 C 280.695312 184.582031 303.925781 181.3125 327.519531 176.867188 Z M 327.527344 176.882812 "/><path style=" stroke:none;fill-rule:nonzero;fill:#ff4318;fill-opacity:1;" d="M 135.109375 188.539062 C 135.078125 188.367188 135.203125 188.203125 135.390625 188.171875 C 135.390625 188.171875 135.390625 188.171875 135.398438 188.171875 C 153.324219 185.503906 171.144531 182.007812 188.867188 177.65625 C 188.9375 177.632812 189.007812 177.671875 189.03125 177.742188 C 189.03125 177.75 189.03125 177.765625 189.03125 177.78125 L 188.984375 184.972656 C 188.984375 185.097656 188.882812 185.207031 188.75 185.238281 C 171.128906 188.375 153.355469 190.925781 135.40625 192.875 C 135.25 192.890625 135.101562 192.78125 135.085938 192.640625 C 135.085938 192.617188 135.085938 192.59375 135.085938 192.570312 C 135.335938 191.222656 135.335938 189.886719 135.09375 188.546875 Z M 135.109375 188.539062 "/><path style=" stroke:none;fill-rule:nonzero;fill:#ff4318;fill-opacity:1;" d="M 513.804688 198.132812 C 511.207031 191.152344 514.992188 183.59375 522.253906 181.257812 C 529.515625 178.917969 537.507812 182.671875 540.097656 189.660156 C 542.695312 196.636719 538.910156 204.195312 531.648438 206.535156 C 524.390625 208.875 516.394531 205.117188 513.804688 198.132812 Z M 513.804688 198.132812 "/><path style=" stroke:none;fill-rule:nonzero;fill:#ff4318;fill-opacity:1;" d="M 685.675781 222.3125 C 685.816406 222.429688 686.039062 222.421875 686.171875 222.289062 C 686.234375 222.226562 686.265625 222.148438 686.265625 222.0625 L 685.894531 187.28125 C 685.894531 186.851562 686.265625 186.5 686.726562 186.492188 C 686.726562 186.492188 710.984375 186.292969 710.984375 186.292969 C 711.558594 186.292969 712.074219 186.617188 712.292969 187.109375 C 712.488281 187.554688 712.582031 188.53125 712.582031 190.050781 C 712.535156 224.003906 712.582031 256.503906 712.699219 287.539062 C 712.714844 290.550781 710.273438 290.441406 707.800781 290.441406 C 701.230469 290.410156 696.378906 290.417969 693.234375 290.457031 C 689.816406 290.496094 686.6875 290.691406 686.695312 287.046875 C 686.695312 285.769531 686.773438 284.433594 686.921875 283.03125 C 686.945312 282.789062 686.75 282.570312 686.492188 282.554688 C 686.335938 282.539062 686.179688 282.601562 686.078125 282.71875 C 679.363281 290.871094 668.324219 293.484375 657.574219 291.777344 C 646.441406 290.027344 638.15625 284.738281 632.703125 275.914062 C 621.390625 257.628906 624.371094 234.027344 642.28125 220.359375 C 648.039062 215.96875 654.140625 213.582031 660.59375 213.199219 C 667.613281 212.785156 674.074219 214.292969 679.964844 217.714844 C 681.921875 218.855469 684.238281 221.117188 685.683594 222.304688 Z M 669.304688 236.628906 C 660.171875 236.929688 653.054688 244.546875 653.390625 253.65625 C 653.726562 262.761719 661.402344 269.902344 670.53125 269.605469 C 679.660156 269.308594 686.78125 261.6875 686.445312 252.582031 C 686.109375 243.476562 678.433594 236.332031 669.304688 236.628906 Z M 669.304688 236.628906 "/><path style=" stroke:none;fill-rule:nonzero;fill:#ff4318;fill-opacity:1;" d="M 188.710938 187.546875 C 188.828125 187.515625 188.945312 187.585938 188.976562 187.695312 C 188.976562 187.710938 188.976562 187.726562 188.976562 187.75 L 188.921875 193.914062 C 188.921875 194.101562 188.773438 194.25 188.574219 194.265625 L 135.359375 198.757812 C 135.296875 198.765625 135.242188 198.726562 135.234375 198.671875 C 135.234375 198.671875 135.234375 198.664062 135.234375 198.65625 L 135.265625 195.011719 C 135.265625 194.886719 135.367188 194.78125 135.5 194.757812 C 152.410156 193.007812 168.335938 190.941406 183.304688 188.578125 C 185.15625 188.289062 186.957031 187.9375 188.703125 187.546875 Z M 188.710938 187.546875 "/><path style=" stroke:none;fill-rule:nonzero;fill:#ff4318;fill-opacity:1;" d="M 134.015625 188.609375 L 133.984375 192.75 C 133.984375 192.851562 133.90625 192.929688 133.796875 192.945312 L 94.328125 196.269531 C 94.242188 196.277344 94.171875 196.222656 94.15625 196.144531 C 94.15625 196.144531 94.15625 196.136719 94.15625 196.128906 L 94.179688 193.015625 C 94.179688 192.882812 94.289062 192.78125 94.429688 192.765625 C 107.621094 191.855469 120.746094 190.417969 133.8125 188.4375 C 133.90625 188.421875 134 188.492188 134.015625 188.578125 C 134.015625 188.585938 134.015625 188.59375 134.015625 188.601562 Z M 134.015625 188.609375 "/><path style=" stroke:none;fill-rule:nonzero;fill:#ffffff;fill-opacity:1;" d="M 358.257812 235.355469 C 357.992188 235.371094 357.789062 235.566406 357.789062 235.816406 C 357.898438 243.09375 357.90625 251.472656 357.828125 260.945312 C 357.8125 262.988281 358.03125 264.773438 358.5 266.304688 C 358.570312 266.546875 358.671875 266.765625 358.8125 266.96875 C 361.253906 270.539062 366.214844 270.46875 370.164062 269.644531 C 372.230469 269.214844 373.710938 269.707031 373.742188 271.765625 C 373.898438 280.894531 373.835938 286.167969 373.5625 287.59375 C 373.171875 289.671875 371.191406 290.667969 369 290.996094 C 359.933594 292.394531 347.007812 292.503906 339.898438 287.28125 C 333.339844 282.453125 331.855469 275.589844 331.746094 267.871094 C 331.597656 256.769531 331.535156 246.199219 331.550781 236.167969 C 331.550781 235.683594 331.132812 235.285156 330.609375 235.285156 C 330.609375 235.285156 330.601562 235.285156 330.59375 235.285156 C 327.152344 235.300781 324.734375 235.292969 323.351562 235.269531 C 321.691406 235.238281 320.886719 234.410156 320.949219 232.789062 C 321.191406 225.945312 321.292969 220.664062 321.261719 216.945312 C 321.253906 216.070312 322.003906 215.359375 322.953125 215.34375 C 322.953125 215.34375 322.953125 215.34375 322.960938 215.34375 L 330.460938 215.28125 C 330.960938 215.28125 331.371094 214.898438 331.378906 214.429688 L 331.542969 189.464844 C 331.542969 189.023438 331.933594 188.671875 332.402344 188.671875 L 356.46875 188.804688 C 357.03125 188.804688 357.484375 189.230469 357.492188 189.753906 L 357.710938 213.964844 C 357.710938 214.515625 358.171875 214.960938 358.757812 214.992188 C 360.285156 215.070312 363.625 215.109375 368.789062 215.101562 C 370.015625 215.101562 371.035156 215.234375 371.839844 215.523438 C 372.722656 215.828125 373.320312 216.609375 373.34375 217.488281 C 373.40625 220.179688 373.453125 225.042969 373.484375 232.085938 C 373.484375 234.355469 372.183594 235.441406 369.570312 235.355469 C 365.113281 235.207031 361.339844 235.207031 358.257812 235.355469 Z M 358.257812 235.355469 "/><path style=" stroke:none;fill-rule:nonzero;fill:#ff4318;fill-opacity:1;" d="M 252.835938 189.070312 C 253.035156 189.039062 253.214844 189.164062 253.246094 189.347656 C 253.246094 189.363281 253.246094 189.378906 253.246094 189.394531 L 253.339844 202.855469 C 253.339844 203.328125 252.933594 203.71875 252.421875 203.71875 C 252.421875 203.71875 191.519531 204.09375 191.519531 204.09375 C 191.265625 204.09375 191.0625 203.914062 191.054688 203.679688 L 191 196.761719 C 191 196.566406 191.15625 196.402344 191.375 196.378906 C 211.734375 194.453125 232.214844 192.011719 252.828125 189.070312 Z M 252.835938 189.070312 "/><path style=" stroke:none;fill-rule:nonzero;fill:#ff4318;fill-opacity:1;" d="M 92.722656 193.25 L 92.964844 195.738281 C 92.988281 196.011719 92.769531 196.261719 92.472656 196.285156 C 92.464844 196.285156 92.457031 196.285156 92.449219 196.285156 L 63.246094 197.339844 C 62.957031 197.355469 62.710938 197.152344 62.679688 196.886719 L 62.578125 195.800781 C 62.554688 195.527344 62.765625 195.277344 63.074219 195.253906 L 92.136719 192.789062 C 92.433594 192.765625 92.699219 192.96875 92.722656 193.242188 Z M 92.722656 193.25 "/><path style=" stroke:none;fill-rule:nonzero;fill:#ff4318;fill-opacity:1;" d="M 134.125 194.996094 C 133.9375 196.160156 133.953125 197.300781 134.179688 198.4375 C 134.226562 198.671875 134.0625 198.890625 133.8125 198.9375 C 133.789062 198.9375 133.765625 198.9375 133.75 198.9375 L 95.234375 200.328125 C 94.632812 200.351562 94.125 199.921875 94.101562 199.359375 L 94.078125 198.765625 C 94.054688 198.296875 94.4375 197.898438 94.945312 197.875 C 107.667969 197.214844 120.636719 196.167969 133.859375 194.710938 C 134 194.695312 134.117188 194.789062 134.132812 194.917969 C 134.132812 194.941406 134.132812 194.964844 134.132812 194.980469 Z M 134.125 194.996094 "/><path style=" stroke:none;fill-rule:nonzero;fill:#ff4318;fill-opacity:1;" d="M 39.171875 196.105469 L 60.796875 195.542969 C 61.304688 195.527344 61.734375 195.902344 61.75 196.378906 L 61.75 196.738281 C 61.773438 197.214844 61.375 197.613281 60.859375 197.625 L 39.234375 198.1875 C 38.726562 198.203125 38.296875 197.828125 38.28125 197.347656 L 38.28125 196.988281 C 38.257812 196.511719 38.65625 196.113281 39.171875 196.105469 Z M 39.171875 196.105469 "/><path style=" stroke:none;fill-rule:nonzero;fill:#ff4318;fill-opacity:1;" d="M 135.359375 204.78125 C 135.273438 204.78125 135.195312 204.71875 135.195312 204.640625 L 135.164062 200.535156 C 135.164062 200.425781 135.257812 200.335938 135.375 200.328125 C 153.863281 199.453125 171.597656 198.242188 188.589844 196.699219 C 188.851562 196.675781 189.078125 196.855469 189.101562 197.089844 C 189.101562 197.105469 189.101562 197.121094 189.101562 197.136719 L 189.046875 203.875 C 189.046875 204.203125 188.757812 204.460938 188.402344 204.46875 L 135.351562 204.796875 Z M 135.359375 204.78125 "/><path style=" stroke:none;fill-rule:nonzero;fill:#ff4318;fill-opacity:1;" d="M 63.871094 198.867188 L 91.667969 197.96875 C 92.355469 197.945312 92.925781 198.445312 92.949219 199.085938 C 92.972656 199.726562 92.433594 200.257812 91.753906 200.28125 L 63.957031 201.183594 C 63.269531 201.207031 62.695312 200.707031 62.671875 200.0625 C 62.648438 199.421875 63.191406 198.890625 63.871094 198.867188 Z M 63.871094 198.867188 "/><path style=" stroke:none;fill-rule:nonzero;fill:#ff4318;fill-opacity:1;" d="M 39.335938 199.53125 L 60.703125 199.289062 C 61.203125 199.289062 61.617188 199.65625 61.625 200.125 L 61.625 200.398438 C 61.632812 200.871094 61.234375 201.253906 60.726562 201.261719 L 39.359375 201.503906 C 38.859375 201.503906 38.445312 201.136719 38.4375 200.667969 L 38.4375 200.390625 C 38.429688 199.921875 38.828125 199.539062 39.335938 199.53125 Z M 39.335938 199.53125 "/><path style=" stroke:none;fill-rule:nonzero;fill:#ff4318;fill-opacity:1;" d="M 133.734375 200.433594 C 133.929688 200.398438 134.117188 200.527344 134.148438 200.714844 C 134.148438 200.730469 134.148438 200.746094 134.148438 200.753906 L 134.171875 204.203125 C 134.171875 204.476562 133.9375 204.703125 133.640625 204.703125 L 94.5 204.945312 C 94.351562 204.945312 94.234375 204.835938 94.234375 204.695312 L 94.210938 202.449219 C 94.210938 202.316406 94.320312 202.214844 94.460938 202.207031 C 107.5 201.550781 118.15625 201.152344 126.425781 200.996094 C 129.039062 200.941406 131.464844 200.753906 133.726562 200.425781 Z M 133.734375 200.433594 "/><path style=" stroke:none;fill-rule:nonzero;fill:#ff4318;fill-opacity:1;" d="M 92.933594 204.585938 C 92.933594 204.75 92.785156 204.882812 92.613281 204.882812 C 92.613281 204.882812 90.265625 204.914062 90.265625 204.914062 C 75.113281 205.085938 62.820312 204.945312 62.820312 204.601562 L 62.796875 203.097656 C 62.875 202.753906 75.136719 202.339844 90.234375 202.167969 L 92.582031 202.144531 C 92.761719 202.144531 92.910156 202.269531 92.910156 202.441406 C 92.910156 202.441406 92.941406 204.59375 92.941406 204.59375 Z M 92.933594 204.585938 "/><path style=" stroke:none;fill-rule:nonzero;fill:#ff4318;fill-opacity:1;" d="M 38.636719 203.835938 L 38.636719 203.828125 C 38.640625 203.589844 38.726562 203.386719 38.894531 203.214844 C 39.066406 203.046875 39.269531 202.964844 39.511719 202.964844 L 60.609375 203.066406 C 60.851562 203.070312 61.054688 203.15625 61.222656 203.324219 C 61.390625 203.496094 61.476562 203.699219 61.476562 203.941406 L 61.476562 203.949219 C 61.472656 204.1875 61.386719 204.390625 61.21875 204.5625 C 61.046875 204.730469 60.84375 204.8125 60.601562 204.8125 L 39.503906 204.710938 C 39.261719 204.707031 39.058594 204.621094 38.890625 204.453125 C 38.722656 204.28125 38.636719 204.078125 38.636719 203.835938 Z M 38.636719 203.835938 "/><path style=" stroke:none;fill-rule:nonzero;fill:#ffffff;fill-opacity:1;" d="M 169.238281 226.53125 C 184.585938 243.257812 182.292969 268.542969 164.113281 282.992188 C 145.9375 297.441406 118.757812 295.597656 103.410156 278.871094 C 88.0625 262.144531 90.351562 236.859375 108.535156 222.40625 C 126.707031 207.957031 153.886719 209.804688 169.238281 226.53125 Z M 134.570312 236.699219 C 125.511719 237.398438 118.824219 245.316406 119.621094 254.390625 C 120.417969 263.464844 128.414062 270.265625 137.472656 269.574219 C 146.53125 268.878906 153.222656 260.960938 152.425781 251.886719 C 151.625 242.8125 143.628906 236.011719 134.570312 236.699219 Z M 134.570312 236.699219 "/><path style=" stroke:none;fill-rule:nonzero;fill:#ffffff;fill-opacity:1;" d="M 259.324219 282.75 C 258.792969 282.023438 258.761719 281.074219 259.246094 280.324219 C 261.789062 276.359375 264.410156 272.539062 267.117188 268.863281 C 268.375 267.164062 269.933594 265 272.578125 266.726562 C 278.945312 270.875 284.835938 274.292969 292.785156 273.847656 C 297.941406 273.558594 300.460938 267.636719 295.75 264.835938 C 294.246094 263.949219 292.308594 263.144531 289.921875 262.425781 C 278.234375 258.894531 265.839844 256.769531 261.445312 244.171875 C 259.519531 238.6875 259.730469 233.265625 262.054688 227.898438 C 267.164062 216.117188 281.746094 212.136719 294.121094 212.738281 C 302.710938 213.160156 312.296875 215.507812 318.671875 220.867188 C 319.289062 221.382812 319.429688 222.226562 319.015625 222.886719 C 316.332031 227.1875 313.078125 231.546875 309.269531 235.957031 C 308.601562 236.714844 307.789062 237.0625 306.820312 236.992188 C 306.570312 236.96875 306.328125 236.882812 306.117188 236.75 C 300.773438 233.226562 296.492188 230.597656 289.632812 231.15625 C 285.992188 231.445312 282.894531 233.898438 284.96875 237.484375 C 286.351562 239.886719 294.488281 241.417969 297.957031 242.207031 C 310.386719 245.03125 322.558594 251.464844 323.859375 264.558594 C 325.398438 280.136719 314.519531 289.21875 299.058594 291.597656 C 286.925781 293.46875 272.960938 291.636719 262.210938 285.199219 C 260.925781 284.433594 259.964844 283.609375 259.324219 282.734375 Z M 259.324219 282.75 "/><g clip-rule="nonzero" clip-path="url(#e1ce32200c)"><path style=" stroke:none;fill-rule:nonzero;fill:#ffffff;fill-opacity:1;" d="M 96.792969 227.070312 C 96.722656 227.289062 96.535156 227.578125 96.226562 227.9375 C 94.015625 230.628906 90.109375 235.003906 84.5 241.042969 C 83.789062 241.808594 82.578125 241.964844 81.667969 241.402344 C 79.65625 240.160156 78.078125 239.265625 76.921875 238.710938 C 69.511719 235.183594 61.21875 235.863281 55.273438 241.332031 C 51.148438 245.125 50.078125 252.160156 51.15625 257.058594 C 53.855469 269.285156 69.152344 273.300781 79.554688 266.304688 C 80.839844 265.445312 82.113281 264.503906 83.390625 263.503906 C 83.875 263.121094 84.601562 263.175781 85.023438 263.628906 C 89.960938 269.191406 94.09375 273.933594 97.417969 277.851562 C 98.511719 279.152344 98.457031 280.347656 97.246094 281.460938 C 88.019531 289.863281 75.566406 293.226562 62.578125 292.308594 C 36.355469 290.472656 20.464844 268.582031 25.082031 245.117188 C 28.15625 229.441406 39.375 218.433594 55.617188 214.394531 C 69.589844 210.921875 85.871094 214.601562 96.09375 224.386719 C 96.832031 225.089844 97.089844 226.117188 96.769531 227.054688 Z M 96.792969 227.070312 "/></g><path style=" stroke:none;fill-rule:nonzero;fill:#ffffff;fill-opacity:1;" d="M 207.640625 222.957031 C 208.871094 222 210.628906 219.699219 212.367188 218.480469 C 222.65625 211.21875 237.628906 211.132812 247.605469 219.371094 C 253.957031 224.628906 255.597656 231.976562 255.683594 239.675781 C 255.859375 255.875 255.597656 272.140625 256.039062 288.359375 C 256.085938 290.058594 254.402344 290.597656 252.625 290.566406 C 251.648438 290.550781 244.960938 290.582031 232.566406 290.660156 C 230.597656 290.667969 229.601562 289.773438 229.585938 287.984375 C 229.546875 284.277344 229.476562 270.253906 229.359375 245.941406 C 229.296875 233.0625 211.25 233.265625 208.941406 244.9375 C 208.402344 247.660156 208.15625 250.871094 208.199219 254.546875 C 208.441406 274.074219 208.582031 284.402344 208.621094 285.542969 C 208.667969 286.996094 208.503906 288.195312 208.109375 289.117188 C 207.765625 289.949219 206.90625 290.488281 205.953125 290.488281 C 197.683594 290.433594 190.6875 290.425781 184.96875 290.457031 C 182.808594 290.472656 181.730469 289.460938 181.738281 287.429688 C 181.886719 266.445312 181.839844 243.460938 181.621094 218.480469 C 181.613281 217.378906 181.785156 216.5625 182.152344 216.046875 C 182.300781 215.835938 182.527344 215.6875 182.785156 215.625 C 183.84375 215.382812 184.898438 215.257812 185.964844 215.25 C 192.167969 215.210938 198.285156 215.1875 204.308594 215.1875 C 205.703125 215.1875 206.46875 215.90625 206.617188 217.339844 C 206.71875 218.402344 206.757812 220.140625 206.726562 222.546875 C 206.71875 222.832031 206.960938 223.066406 207.265625 223.066406 C 207.398438 223.066406 207.53125 223.027344 207.632812 222.941406 Z M 207.640625 222.957031 "/><path style=" stroke:none;fill-rule:nonzero;fill:#ff4318;fill-opacity:1;" d="M 574.058594 222.996094 C 580.15625 215.25 591.203125 211.777344 601.042969 213.449219 C 611.925781 215.296875 619.507812 221.8125 622.011719 232.023438 C 622.886719 235.605469 623.347656 239.746094 623.386719 244.421875 C 623.488281 254.914062 623.550781 268.433594 623.566406 284.980469 C 623.566406 287.992188 624.113281 290.566406 620.375 290.542969 C 610.777344 290.496094 603.914062 290.519531 599.777344 290.636719 C 595.902344 290.730469 596.230469 288.101562 596.253906 285.136719 C 596.355469 272.921875 596.394531 261.414062 596.371094 250.617188 C 596.355469 245.039062 596.027344 239.746094 590.378906 237.203125 C 584.277344 234.457031 577.667969 238.640625 575.828125 244.085938 C 575.1875 245.964844 574.867188 247.960938 574.859375 250.0625 C 574.820312 263.425781 574.84375 275.960938 574.921875 287.648438 C 574.9375 290.175781 573.699219 290.589844 571.164062 290.574219 C 564.023438 290.511719 557.191406 290.535156 550.675781 290.652344 C 549.816406 290.667969 549.035156 290.199219 548.695312 289.453125 C 548.445312 288.882812 548.320312 288.03125 548.335938 286.886719 C 548.375 282.5625 548.351562 259.476562 548.273438 217.613281 C 548.273438 216.617188 548.742188 215.921875 549.675781 215.515625 C 550.261719 215.257812 551.160156 215.140625 552.390625 215.15625 C 560.980469 215.289062 567.144531 215.304688 570.882812 215.210938 C 572.425781 215.171875 573.207031 215.851562 573.238281 217.253906 C 573.285156 219.308594 573.347656 221.164062 573.417969 222.839844 C 573.425781 223.019531 573.597656 223.160156 573.792969 223.152344 C 573.894531 223.152344 573.996094 223.097656 574.058594 223.019531 Z M 574.058594 222.996094 "/><path style=" stroke:none;fill-rule:nonzero;fill:#ffffff;fill-opacity:1;" d="M 402.210938 226.820312 C 402.210938 227.007812 402.375 227.164062 402.578125 227.164062 C 402.710938 227.164062 402.835938 227.101562 402.90625 226.992188 C 407.695312 219.410156 415.574219 212.980469 425.625 214.214844 C 426.667969 214.339844 427.457031 215.15625 427.480469 216.140625 C 427.496094 216.71875 427.503906 223.699219 427.511719 237.085938 C 427.511719 241.074219 422.230469 239.242188 420.023438 239.40625 C 409.589844 240.183594 404.707031 246.894531 404.675781 256.070312 C 404.613281 272.921875 404.613281 282.882812 404.683594 285.933594 C 404.707031 287.328125 404.519531 288.476562 404.121094 289.382812 C 403.824219 290.058594 403.125 290.496094 402.351562 290.496094 C 396.515625 290.527344 389.582031 290.550781 381.566406 290.550781 C 379.421875 290.550781 378.347656 289.6875 378.339844 287.976562 C 378.121094 247.199219 378.027344 223.800781 378.058594 217.777344 C 378.058594 216.179688 378.875 215.367188 380.46875 215.34375 C 387.300781 215.226562 394.011719 215.242188 400.605469 215.375 C 401.445312 215.390625 402.117188 216.023438 402.125 216.796875 L 402.210938 226.828125 Z M 402.210938 226.820312 "/><path style=" stroke:none;fill-rule:nonzero;fill:#ffffff;fill-opacity:1;" d="M 480.601562 282.460938 C 480.609375 282.234375 480.421875 282.046875 480.1875 282.039062 C 480.046875 282.039062 479.921875 282.09375 479.828125 282.1875 C 473.695312 289.320312 465.660156 292.679688 455.722656 292.269531 C 439.925781 291.605469 431.972656 280.527344 431.6875 266.757812 C 431.515625 258.339844 431.414062 241.832031 431.382812 217.230469 C 431.382812 216.507812 431.894531 215.882812 432.628906 215.671875 C 433.582031 215.398438 434.765625 215.273438 436.164062 215.28125 C 442.726562 215.34375 448.949219 215.304688 454.816406 215.164062 C 456.582031 215.125 457.875 215.585938 457.882812 217.371094 C 457.960938 235.933594 457.960938 249.15625 457.875 257.035156 C 457.8125 263.550781 460.074219 269.941406 468.5625 269.238281 C 477.253906 268.519531 478.714844 261.039062 478.761719 254.367188 C 478.863281 242.453125 478.871094 230.378906 478.785156 218.136719 C 478.761719 215.023438 479.875 215.15625 482.558594 215.125 C 488.121094 215.070312 494.308594 215.0625 501.113281 215.101562 C 503.359375 215.117188 505.628906 214.757812 505.652344 217.652344 C 505.800781 231.867188 505.792969 255.125 505.628906 287.4375 C 505.621094 289.484375 504.605469 290.503906 502.585938 290.503906 C 491.265625 290.472656 485.0625 290.472656 483.964844 290.503906 C 481.664062 290.589844 480.523438 289.492188 480.539062 287.226562 C 480.539062 285.441406 480.570312 283.84375 480.617188 282.445312 Z M 480.601562 282.460938 "/><path style=" stroke:none;fill-rule:nonzero;fill:#ff4318;fill-opacity:1;" d="M 521.359375 215.28125 L 532.617188 215.265625 C 533.109375 215.261719 533.601562 215.3125 534.085938 215.40625 C 534.570312 215.503906 535.039062 215.644531 535.496094 215.832031 C 535.953125 216.019531 536.386719 216.253906 536.800781 216.527344 C 537.210938 216.800781 537.589844 217.109375 537.941406 217.460938 C 538.292969 217.808594 538.605469 218.1875 538.878906 218.597656 C 539.15625 219.007812 539.386719 219.441406 539.578125 219.898438 C 539.765625 220.355469 539.910156 220.824219 540.007812 221.308594 C 540.105469 221.792969 540.152344 222.285156 540.152344 222.777344 L 540.25 282.949219 C 540.25 283.441406 540.203125 283.933594 540.105469 284.417969 C 540.011719 284.902344 539.867188 285.371094 539.679688 285.828125 C 539.492188 286.285156 539.261719 286.71875 538.988281 287.132812 C 538.714844 287.542969 538.402344 287.921875 538.050781 288.273438 C 537.703125 288.625 537.324219 288.9375 536.914062 289.210938 C 536.503906 289.488281 536.070312 289.71875 535.613281 289.910156 C 535.15625 290.097656 534.6875 290.242188 534.203125 290.339844 C 533.71875 290.4375 533.230469 290.484375 532.734375 290.488281 L 521.476562 290.503906 C 520.980469 290.503906 520.492188 290.457031 520.007812 290.363281 C 519.523438 290.265625 519.050781 290.125 518.59375 289.9375 C 518.136719 289.746094 517.703125 289.515625 517.292969 289.242188 C 516.882812 288.96875 516.5 288.65625 516.152344 288.308594 C 515.800781 287.960938 515.488281 287.578125 515.214844 287.167969 C 514.9375 286.757812 514.707031 286.324219 514.515625 285.867188 C 514.324219 285.414062 514.183594 284.941406 514.085938 284.457031 C 513.988281 283.972656 513.9375 283.484375 513.9375 282.988281 L 513.84375 222.820312 C 513.84375 222.324219 513.890625 221.835938 513.984375 221.351562 C 514.082031 220.867188 514.222656 220.394531 514.414062 219.9375 C 514.601562 219.480469 514.832031 219.046875 515.105469 218.636719 C 515.378906 218.226562 515.691406 217.84375 516.039062 217.496094 C 516.390625 217.144531 516.769531 216.832031 517.179688 216.558594 C 517.589844 216.28125 518.023438 216.050781 518.480469 215.859375 C 518.933594 215.667969 519.40625 215.527344 519.890625 215.429688 C 520.375 215.332031 520.863281 215.28125 521.359375 215.28125 Z M 521.359375 215.28125 "/><path style=" stroke:none;fill-rule:nonzero;fill:#ffffff;fill-opacity:1;" d="M 345.390625 309.398438 C 345.265625 309.640625 344.949219 309.78125 344.449219 309.828125 C 343.964844 309.867188 343.566406 309.46875 343.558594 308.933594 C 343.558594 308.785156 343.582031 308.644531 343.644531 308.511719 C 344.605469 306.203125 346.359375 307.191406 348.113281 307.660156 C 348.566406 307.777344 349.035156 307.792969 349.488281 307.699219 L 351.046875 307.394531 C 351.539062 307.292969 352.023438 307.574219 352.140625 308.035156 C 352.210938 308.332031 352.109375 308.636719 351.875 308.847656 C 350.621094 309.953125 348.863281 310.03125 346.585938 309.082031 C 346.015625 308.839844 345.617188 308.949219 345.382812 309.402344 Z M 345.390625 309.398438 "/><path style=" stroke:none;fill-rule:nonzero;fill:#ffffff;fill-opacity:1;" d="M 178.578125 319.832031 C 178.726562 324.261719 182.394531 326.757812 187.003906 324.996094 C 187.308594 324.878906 187.574219 324.691406 187.777344 324.449219 L 189.140625 322.8125 C 189.648438 322.210938 190.585938 322.101562 191.234375 322.570312 C 191.320312 322.632812 191.398438 322.703125 191.464844 322.773438 L 191.503906 322.8125 C 192.050781 323.433594 192.058594 324.324219 191.519531 324.957031 C 189.460938 327.382812 186.878906 328.515625 183.789062 328.351562 C 178.476562 328.070312 175.496094 324.660156 175.339844 319.925781 C 175.183594 315.195312 177.945312 311.617188 183.226562 311.039062 C 186.300781 310.703125 188.953125 311.6875 191.164062 313.988281 C 191.746094 314.589844 191.792969 315.484375 191.28125 316.132812 L 191.242188 316.171875 C 190.75 316.789062 189.820312 316.921875 189.15625 316.460938 C 189.070312 316.40625 189 316.335938 188.929688 316.265625 L 187.457031 314.699219 C 187.238281 314.464844 186.957031 314.292969 186.644531 314.199219 C 181.933594 312.707031 178.429688 315.40625 178.570312 319.832031 Z M 178.578125 319.832031 "/><path style=" stroke:none;fill-rule:nonzero;fill:#ffffff;fill-opacity:1;" d="M 347.867188 311.054688 C 348.902344 311.054688 349.761719 311.804688 350.457031 313.316406 C 352.492188 317.71875 354.542969 322.132812 356.601562 326.554688 C 356.90625 327.203125 356.585938 327.953125 355.894531 328.234375 C 355.863281 328.25 355.832031 328.257812 355.800781 328.265625 L 355.746094 328.289062 C 354.917969 328.585938 353.980469 328.257812 353.566406 327.53125 L 351.601562 324.113281 C 351.4375 323.824219 351.109375 323.644531 350.757812 323.660156 C 349.871094 323.707031 348.917969 323.730469 347.910156 323.738281 C 346.898438 323.738281 345.953125 323.722656 345.066406 323.683594 C 344.714844 323.667969 344.386719 323.847656 344.222656 324.136719 L 342.28125 327.5625 C 341.875 328.289062 340.945312 328.625 340.117188 328.335938 L 340.0625 328.3125 C 339.347656 328.085938 338.964844 327.367188 339.207031 326.695312 C 339.214844 326.664062 339.230469 326.632812 339.246094 326.609375 C 341.28125 322.171875 343.300781 317.746094 345.304688 313.332031 C 345.984375 311.820312 346.84375 311.0625 347.875 311.054688 Z M 345.429688 320.578125 C 345.335938 320.773438 345.429688 321.007812 345.640625 321.09375 C 345.695312 321.117188 345.75 321.125 345.804688 321.125 L 349.996094 321.148438 C 350.230469 321.148438 350.417969 320.976562 350.417969 320.765625 C 350.417969 320.71875 350.410156 320.664062 350.386719 320.617188 L 348.324219 315.835938 C 348.238281 315.632812 347.996094 315.539062 347.773438 315.617188 C 347.671875 315.65625 347.585938 315.734375 347.546875 315.828125 L 345.421875 320.578125 Z M 345.429688 320.578125 "/><path style=" stroke:none;fill-rule:nonzero;fill:#ffffff;fill-opacity:1;" d="M 151.585938 323.832031 C 149.457031 323.855469 148.355469 323.863281 148.285156 323.871094 C 147.957031 323.886719 147.675781 324.074219 147.550781 324.347656 L 146.257812 327.242188 C 145.921875 327.984375 145.046875 328.382812 144.210938 328.164062 L 144.117188 328.148438 C 143.394531 327.992188 142.957031 327.328125 143.121094 326.65625 C 143.136719 326.59375 143.160156 326.53125 143.183594 326.46875 C 145.3125 321.601562 147.433594 316.796875 149.5625 312.0625 C 149.796875 311.554688 150.414062 311.289062 151.429688 311.28125 C 152.464844 311.265625 153.105469 311.515625 153.339844 312.023438 C 155.570312 316.71875 157.804688 321.476562 160.042969 326.296875 C 160.339844 326.929688 160.035156 327.664062 159.363281 327.9375 C 159.300781 327.960938 159.230469 327.984375 159.160156 328 L 159.066406 328.023438 C 158.238281 328.257812 157.34375 327.875 156.992188 327.140625 L 155.640625 324.269531 C 155.507812 323.996094 155.21875 323.808594 154.886719 323.800781 C 154.824219 323.800781 153.722656 323.808594 151.585938 323.832031 Z M 151.140625 315.914062 L 148.863281 320.664062 C 148.761719 320.882812 148.863281 321.132812 149.097656 321.226562 C 149.160156 321.25 149.230469 321.265625 149.300781 321.265625 L 153.535156 321.132812 C 153.769531 321.125 153.957031 320.9375 153.949219 320.71875 C 153.949219 320.671875 153.933594 320.625 153.917969 320.585938 L 151.976562 315.9375 C 151.882812 315.71875 151.617188 315.617188 151.390625 315.703125 C 151.28125 315.742188 151.195312 315.820312 151.148438 315.921875 Z M 151.140625 315.914062 "/><path style=" stroke:none;fill-rule:nonzero;fill:#ffffff;fill-opacity:1;" d="M 207.671875 311.257812 C 212.625 312.308594 215.714844 316.960938 214.566406 321.664062 C 213.414062 326.367188 208.472656 329.324219 203.519531 328.273438 C 198.566406 327.226562 195.476562 322.570312 196.625 317.871094 C 197.777344 313.167969 202.722656 310.210938 207.671875 311.257812 Z M 211.046875 318.441406 C 210.894531 315.8125 208.488281 313.792969 205.671875 313.933594 L 204.714844 313.980469 C 201.890625 314.121094 199.722656 316.359375 199.875 318.988281 C 199.875 318.988281 199.984375 320.9375 199.984375 320.9375 C 200.132812 323.566406 202.539062 325.582031 205.355469 325.441406 L 206.3125 325.394531 C 209.136719 325.253906 211.304688 323.015625 211.15625 320.386719 C 211.15625 320.386719 211.046875 318.441406 211.046875 318.441406 Z M 211.046875 318.441406 "/><path style=" stroke:none;fill-rule:nonzero;fill:#ffffff;fill-opacity:1;" d="M 229.023438 318.910156 C 229.992188 320.261719 230.910156 321.578125 231.769531 322.859375 C 231.847656 322.96875 232.011719 323.007812 232.136719 322.9375 C 232.207031 322.898438 232.253906 322.820312 232.253906 322.742188 L 232.316406 312.425781 C 232.316406 311.765625 232.894531 311.242188 233.609375 311.242188 L 234.289062 311.242188 C 234.953125 311.242188 235.484375 311.742188 235.492188 312.363281 C 235.507812 317.15625 235.460938 321.523438 235.335938 325.472656 C 235.3125 326.445312 235.398438 327.78125 234.34375 328.140625 C 233.332031 328.476562 232.246094 328.210938 231.683594 327.484375 C 230.550781 326.027344 228.84375 323.707031 226.558594 320.527344 C 225.589844 319.175781 224.671875 317.863281 223.8125 316.578125 C 223.734375 316.46875 223.570312 316.429688 223.445312 316.5 C 223.375 316.539062 223.328125 316.617188 223.328125 316.695312 L 223.265625 327.015625 C 223.265625 327.671875 222.6875 328.195312 221.972656 328.195312 L 221.292969 328.195312 C 220.628906 328.195312 220.097656 327.695312 220.089844 327.078125 C 220.074219 322.28125 220.121094 317.917969 220.246094 313.964844 C 220.269531 312.996094 220.183594 311.65625 221.238281 311.296875 C 222.25 310.960938 223.335938 311.226562 223.898438 311.953125 C 225.027344 313.410156 226.738281 315.734375 229.023438 318.910156 Z M 229.023438 318.910156 "/><path style=" stroke:none;fill-rule:nonzero;fill:#ffffff;fill-opacity:1;" d="M 246.546875 313.761719 C 244.90625 314.058594 243.824219 315.828125 244.859375 317.039062 C 245.101562 317.335938 245.8125 317.585938 246.984375 317.800781 C 249.433594 318.246094 254.011719 319.519531 254.738281 321.875 C 255.679688 324.917969 253.535156 327.46875 250.328125 328.007812 C 247.273438 328.523438 244.609375 328.03125 242.332031 326.53125 C 240.765625 325.496094 240.5 324.402344 241.539062 323.234375 C 242.082031 322.625 243.019531 322.484375 243.652344 322.921875 C 243.871094 323.070312 244.027344 323.273438 244.105469 323.519531 C 244.53125 324.722656 245.414062 325.386719 246.742188 325.511719 C 248.574219 325.691406 251.523438 325.964844 251.859375 323.855469 C 252.023438 322.8125 251.335938 321.820312 250.257812 321.53125 C 247.832031 320.882812 245.882812 320.324219 244.417969 319.863281 C 240.695312 318.675781 240.351562 315.265625 242.699219 312.839844 C 243.527344 311.984375 244.976562 311.445312 247.03125 311.226562 C 250.28125 310.882812 252.710938 311.789062 254.339844 313.933594 C 254.800781 314.542969 254.714844 315.382812 254.136719 315.90625 L 254.019531 316.007812 C 253.558594 316.421875 252.820312 316.40625 252.375 315.96875 C 252.320312 315.914062 252.273438 315.859375 252.234375 315.804688 C 251.015625 313.972656 249.113281 313.292969 246.546875 313.761719 Z M 246.546875 313.761719 "/><path style=" stroke:none;fill-rule:nonzero;fill:#ffffff;fill-opacity:1;" d="M 322.613281 319.457031 C 322.449219 323.808594 325.949219 326.066406 330.398438 325.050781 C 330.71875 324.972656 331.015625 324.832031 331.261719 324.621094 L 332.761719 323.363281 C 333.386719 322.835938 334.359375 322.875 334.921875 323.457031 C 335.03125 323.566406 335.117188 323.691406 335.179688 323.824219 L 335.179688 323.847656 C 335.632812 324.707031 335.351562 325.738281 334.523438 326.296875 C 327.949219 330.730469 319.117188 327.5 319.414062 319.363281 C 319.71875 311.21875 328.78125 308.566406 335 313.402344 C 335.78125 314.011719 335.984375 315.0625 335.476562 315.890625 L 335.476562 315.914062 C 335.070312 316.601562 334.140625 316.859375 333.394531 316.484375 C 333.253906 316.414062 333.128906 316.328125 333.019531 316.21875 L 331.621094 314.863281 C 331.394531 314.636719 331.101562 314.472656 330.78125 314.378906 C 326.417969 313.082031 322.773438 315.109375 322.605469 319.457031 Z M 322.613281 319.457031 "/><path style=" stroke:none;fill-rule:nonzero;fill:#ffffff;fill-opacity:1;" d="M 378.191406 320.859375 C 378.105469 325.042969 374.398438 328.367188 369.898438 328.28125 L 368.320312 328.25 C 363.828125 328.171875 360.253906 324.714844 360.339844 320.535156 L 360.378906 318.582031 C 360.464844 314.394531 364.171875 311.070312 368.671875 311.15625 L 370.253906 311.1875 C 374.742188 311.265625 378.316406 314.722656 378.230469 318.902344 Z M 369.484375 313.714844 C 366.238281 313.628906 363.53125 316.257812 363.429688 319.582031 C 363.328125 322.90625 365.878906 325.675781 369.125 325.753906 C 372.371094 325.839844 375.078125 323.210938 375.179688 319.886719 C 375.28125 316.5625 372.730469 313.792969 369.484375 313.714844 Z M 369.484375 313.714844 "/><path style=" stroke:none;fill-rule:nonzero;fill:#ffffff;fill-opacity:1;" d="M 393.113281 319.660156 C 393.105469 314.941406 395.96875 311.460938 401.25 311.03125 C 404.324219 310.78125 406.921875 311.828125 409.054688 314.175781 C 409.613281 314.792969 409.636719 315.679688 409.109375 316.3125 L 409.070312 316.351562 C 408.570312 316.953125 407.632812 317.0625 406.992188 316.59375 C 406.90625 316.53125 406.828125 316.460938 406.757812 316.382812 L 405.339844 314.785156 C 405.128906 314.542969 404.855469 314.363281 404.550781 314.261719 C 399.910156 312.652344 396.34375 315.242188 396.34375 319.652344 C 396.351562 324.074219 399.925781 326.648438 404.566406 325.027344 C 404.878906 324.925781 405.144531 324.738281 405.355469 324.503906 L 406.757812 322.90625 C 407.273438 322.320312 408.210938 322.226562 408.84375 322.710938 C 408.929688 322.773438 409 322.84375 409.070312 322.929688 L 409.109375 322.96875 C 409.636719 323.605469 409.613281 324.488281 409.054688 325.105469 C 406.929688 327.46875 404.332031 328.523438 401.265625 328.273438 C 395.984375 327.851562 393.121094 324.378906 393.113281 319.660156 Z M 393.113281 319.660156 "/><path style=" stroke:none;fill-rule:nonzero;fill:#ffffff;fill-opacity:1;" d="M 415.617188 326.671875 L 415.707031 312.730469 C 415.710938 312.523438 415.75 312.324219 415.832031 312.136719 C 415.910156 311.945312 416.023438 311.777344 416.171875 311.632812 C 416.316406 311.488281 416.488281 311.375 416.679688 311.296875 C 416.871094 311.21875 417.070312 311.183594 417.273438 311.183594 C 417.480469 311.183594 417.679688 311.226562 417.871094 311.304688 C 418.058594 311.386719 418.226562 311.5 418.375 311.644531 C 418.519531 311.792969 418.628906 311.960938 418.707031 312.152344 C 418.785156 312.34375 418.824219 312.542969 418.820312 312.75 L 418.730469 326.691406 C 418.730469 326.898438 418.691406 327.097656 418.609375 327.285156 C 418.53125 327.476562 418.414062 327.644531 418.269531 327.789062 C 418.121094 327.933594 417.953125 328.046875 417.761719 328.125 C 417.570312 328.199219 417.371094 328.238281 417.164062 328.238281 C 416.957031 328.238281 416.761719 328.195312 416.570312 328.117188 C 416.378906 328.035156 416.210938 327.921875 416.066406 327.773438 C 415.921875 327.628906 415.8125 327.457031 415.734375 327.269531 C 415.65625 327.078125 415.617188 326.878906 415.617188 326.671875 Z M 415.617188 326.671875 "/><path style=" stroke:none;fill-rule:nonzero;fill:#ffffff;fill-opacity:1;" d="M 594.472656 311.054688 C 595.503906 311.054688 596.136719 311.320312 596.371094 311.84375 C 598.570312 316.632812 600.777344 321.492188 602.976562 326.414062 C 603.265625 327.054688 602.945312 327.796875 602.257812 328.0625 C 602.1875 328.085938 602.113281 328.109375 602.042969 328.125 L 601.949219 328.148438 C 601.097656 328.367188 600.207031 327.976562 599.863281 327.226562 L 598.523438 324.292969 C 598.398438 324.011719 598.101562 323.824219 597.773438 323.816406 C 597.710938 323.816406 596.59375 323.808594 594.425781 323.800781 C 592.257812 323.792969 591.140625 323.800781 591.078125 323.800781 C 590.746094 323.808594 590.457031 323.996094 590.324219 324.277344 L 588.964844 327.203125 C 588.613281 327.953125 587.71875 328.34375 586.875 328.117188 L 586.78125 328.09375 C 586.054688 327.929688 585.617188 327.25 585.789062 326.578125 C 585.804688 326.507812 585.828125 326.445312 585.859375 326.375 C 588.085938 321.460938 590.316406 316.609375 592.546875 311.835938 C 592.789062 311.320312 593.429688 311.0625 594.480469 311.0625 Z M 591.96875 320.898438 C 591.914062 321.046875 592 321.203125 592.15625 321.25 C 592.1875 321.257812 592.226562 321.265625 592.257812 321.265625 L 596.882812 321.140625 C 597.046875 321.140625 597.179688 321.007812 597.171875 320.851562 C 597.171875 320.820312 597.164062 320.789062 597.148438 320.757812 L 594.660156 315.421875 C 594.597656 315.28125 594.417969 315.210938 594.269531 315.273438 C 594.191406 315.304688 594.128906 315.359375 594.105469 315.4375 Z M 591.96875 320.898438 "/><path style=" stroke:none;fill-rule:nonzero;fill:#ffffff;fill-opacity:1;" d="M 608.351562 326.578125 L 608.375 312.714844 C 608.375 312.5 608.414062 312.296875 608.496094 312.097656 C 608.582031 311.898438 608.699219 311.722656 608.851562 311.570312 C 609 311.421875 609.175781 311.304688 609.375 311.222656 C 609.574219 311.140625 609.78125 311.097656 609.996094 311.097656 L 610.003906 311.097656 C 610.21875 311.101562 610.425781 311.140625 610.621094 311.222656 C 610.820312 311.304688 610.996094 311.421875 611.148438 311.574219 C 611.300781 311.726562 611.417969 311.902344 611.496094 312.101562 C 611.578125 312.300781 611.621094 312.507812 611.621094 312.722656 L 611.597656 326.585938 C 611.597656 326.800781 611.558594 327.007812 611.472656 327.203125 C 611.390625 327.402344 611.273438 327.578125 611.121094 327.730469 C 610.96875 327.878906 610.792969 327.996094 610.597656 328.078125 C 610.398438 328.160156 610.191406 328.203125 609.976562 328.203125 L 609.96875 328.203125 C 609.753906 328.203125 609.546875 328.160156 609.347656 328.078125 C 609.152344 327.996094 608.976562 327.878906 608.824219 327.726562 C 608.671875 327.574219 608.554688 327.398438 608.472656 327.199219 C 608.390625 327 608.351562 326.792969 608.351562 326.578125 Z M 608.351562 326.578125 "/><path style=" stroke:none;fill-rule:nonzero;fill:#ffffff;fill-opacity:1;" d="M 664.71875 325.496094 C 668.222656 325.472656 668.949219 323.683594 668.878906 320.609375 C 668.878906 320.519531 668.878906 317.816406 668.902344 312.480469 C 668.902344 311.75 669.539062 311.164062 670.320312 311.164062 L 670.679688 311.164062 C 671.398438 311.171875 671.980469 311.710938 671.996094 312.386719 C 672.089844 317.640625 672.097656 321.085938 672.027344 322.71875 C 671.859375 326.515625 668.597656 328.210938 664.734375 328.234375 C 660.878906 328.265625 657.582031 326.617188 657.355469 322.820312 C 657.261719 321.1875 657.222656 317.742188 657.238281 312.488281 C 657.238281 311.820312 657.816406 311.28125 658.53125 311.257812 L 658.882812 311.242188 C 659.664062 311.226562 660.304688 311.796875 660.328125 312.527344 C 660.328125 312.527344 660.328125 312.535156 660.328125 312.542969 C 660.429688 317.871094 660.476562 320.574219 660.476562 320.664062 C 660.460938 323.738281 661.214844 325.519531 664.71875 325.496094 Z M 664.71875 325.496094 "/><g clip-rule="nonzero" clip-path="url(#c557d82e77)"><path style=" stroke:none;fill-rule:nonzero;fill:#ffffff;fill-opacity:1;" d="M 705.949219 323.839844 C 703.789062 323.839844 702.679688 323.839844 702.613281 323.839844 C 702.285156 323.847656 701.996094 324.035156 701.863281 324.316406 L 700.519531 327.234375 C 700.167969 327.984375 699.273438 328.367188 698.429688 328.140625 L 698.335938 328.117188 C 697.617188 327.953125 697.179688 327.273438 697.359375 326.601562 C 697.375 326.539062 697.398438 326.46875 697.429688 326.40625 C 699.640625 321.515625 701.863281 316.6875 704.078125 311.921875 C 704.320312 311.40625 704.960938 311.148438 706.011719 311.15625 C 707.035156 311.15625 707.667969 311.414062 707.902344 311.9375 C 710.09375 316.710938 712.285156 321.539062 714.484375 326.445312 C 714.773438 327.085938 714.453125 327.820312 713.761719 328.085938 C 713.699219 328.109375 713.628906 328.132812 713.558594 328.148438 L 713.464844 328.171875 C 712.621094 328.390625 711.730469 328 711.386719 327.257812 L 710.046875 324.339844 C 709.921875 324.058594 709.632812 323.878906 709.304688 323.863281 C 709.234375 323.863281 708.121094 323.863281 705.964844 323.863281 Z M 705.496094 315.664062 L 703.125 320.695312 C 703.015625 320.921875 703.125 321.1875 703.375 321.289062 C 703.445312 321.320312 703.515625 321.328125 703.59375 321.328125 L 708.050781 321.164062 C 708.304688 321.15625 708.5 320.960938 708.492188 320.726562 C 708.492188 320.679688 708.476562 320.625 708.460938 320.585938 L 706.378906 315.679688 C 706.285156 315.453125 706.003906 315.34375 705.761719 315.429688 C 705.644531 315.46875 705.550781 315.554688 705.496094 315.664062 Z M 705.496094 315.664062 "/></g><g clip-rule="nonzero" clip-path="url(#ce81301391)"><path style=" stroke:none;fill-rule:nonzero;fill:#ffffff;fill-opacity:1;" d="M 28.546875 318.621094 L 35.136719 318.667969 C 35.769531 318.667969 36.292969 319.152344 36.292969 319.746094 L 36.292969 320.027344 C 36.292969 320.6875 35.714844 321.21875 35.003906 321.21875 L 28.671875 321.179688 C 28.335938 321.179688 28.070312 321.429688 28.070312 321.734375 L 28.039062 326.835938 C 28.039062 327.601562 27.359375 328.21875 26.527344 328.21875 L 26.222656 328.21875 C 25.417969 328.21875 24.777344 327.609375 24.777344 326.859375 C 24.777344 326.859375 24.878906 312.085938 24.878906 312.085938 C 24.878906 311.648438 25.261719 311.296875 25.730469 311.296875 L 36.191406 311.359375 C 36.902344 311.359375 37.480469 311.90625 37.472656 312.574219 C 37.472656 312.574219 37.464844 313.050781 37.464844 313.050781 C 37.464844 313.691406 36.894531 314.207031 36.207031 314.207031 L 28.460938 314.160156 C 28.132812 314.160156 27.867188 314.394531 27.867188 314.699219 C 27.867188 314.699219 27.851562 317.949219 27.851562 317.949219 C 27.851562 318.308594 28.15625 318.605469 28.546875 318.613281 C 28.546875 318.613281 28.546875 318.613281 28.554688 318.613281 Z M 28.546875 318.621094 "/></g><path style=" stroke:none;fill-rule:nonzero;fill:#ffffff;fill-opacity:1;" d="M 61.878906 326.632812 L 61.902344 312.886719 C 61.902344 312.675781 61.941406 312.476562 62.023438 312.28125 C 62.101562 312.085938 62.21875 311.914062 62.367188 311.765625 C 62.515625 311.617188 62.6875 311.503906 62.882812 311.421875 C 63.078125 311.34375 63.28125 311.300781 63.492188 311.300781 C 63.703125 311.304688 63.90625 311.34375 64.097656 311.425781 C 64.292969 311.503906 64.464844 311.621094 64.613281 311.769531 C 64.761719 311.917969 64.875 312.089844 64.957031 312.285156 C 65.039062 312.480469 65.078125 312.683594 65.078125 312.894531 L 65.054688 326.640625 C 65.054688 326.847656 65.015625 327.050781 64.933594 327.246094 C 64.851562 327.441406 64.738281 327.613281 64.589844 327.761719 C 64.4375 327.910156 64.265625 328.023438 64.074219 328.105469 C 63.878906 328.183594 63.675781 328.226562 63.464844 328.226562 C 63.253906 328.222656 63.050781 328.183594 62.855469 328.101562 C 62.664062 328.023438 62.492188 327.90625 62.34375 327.757812 C 62.195312 327.609375 62.078125 327.4375 62 327.242188 C 61.917969 327.046875 61.878906 326.84375 61.878906 326.632812 Z M 61.878906 326.632812 "/><path style=" stroke:none;fill-rule:nonzero;fill:#ffffff;fill-opacity:1;" d="M 82.554688 321.5 L 86.292969 326.113281 C 86.738281 326.671875 86.621094 327.453125 86.019531 327.875 C 85.933594 327.9375 85.847656 327.984375 85.746094 328.023438 L 85.667969 328.054688 C 84.851562 328.445312 83.859375 328.210938 83.34375 327.507812 L 79.140625 321.796875 C 78.96875 321.5625 78.679688 321.421875 78.375 321.429688 L 75.386719 321.453125 C 75.214844 321.453125 75.074219 321.585938 75.074219 321.75 L 75.121094 326.765625 C 75.121094 327.507812 74.480469 328.117188 73.671875 328.125 L 73.351562 328.125 C 72.632812 328.132812 72.039062 327.59375 72.039062 326.921875 C 72.039062 326.921875 71.898438 312.402344 71.898438 312.402344 C 71.898438 311.875 72.328125 311.4375 72.890625 311.40625 C 74.605469 311.296875 76.855469 311.28125 79.65625 311.359375 C 82.890625 311.445312 85.527344 312.582031 85.753906 315.757812 C 85.933594 318.246094 84.898438 320.003906 82.671875 321.023438 C 82.5 321.101562 82.425781 321.296875 82.523438 321.460938 C 82.53125 321.476562 82.539062 321.492188 82.554688 321.507812 Z M 75.175781 314.566406 L 75.160156 318.191406 C 75.160156 318.496094 75.417969 318.746094 75.746094 318.753906 C 75.746094 318.753906 75.746094 318.753906 75.753906 318.753906 L 80.316406 318.769531 C 81.644531 318.769531 82.734375 317.769531 82.734375 316.53125 L 82.734375 316.289062 C 82.734375 315.046875 81.660156 314.035156 80.332031 314.035156 L 75.769531 314.019531 C 75.441406 314.019531 75.175781 314.261719 75.175781 314.566406 Z M 75.175781 314.566406 "/><path style=" stroke:none;fill-rule:nonzero;fill:#ffffff;fill-opacity:1;" d="M 99.042969 323.910156 C 96.917969 323.933594 95.820312 323.949219 95.757812 323.957031 C 95.4375 323.972656 95.15625 324.160156 95.03125 324.433594 L 93.75 327.320312 C 93.410156 328.0625 92.542969 328.453125 91.707031 328.234375 L 91.613281 328.210938 C 90.902344 328.054688 90.460938 327.390625 90.632812 326.726562 C 90.648438 326.664062 90.671875 326.609375 90.695312 326.546875 C 92.808594 321.710938 94.914062 316.929688 97.027344 312.222656 C 97.253906 311.710938 97.871094 311.445312 98.878906 311.4375 C 99.90625 311.429688 100.546875 311.671875 100.78125 312.183594 C 103.011719 316.84375 105.234375 321.570312 107.460938 326.367188 C 107.753906 326.992188 107.445312 327.71875 106.773438 327.992188 C 106.710938 328.015625 106.648438 328.039062 106.578125 328.054688 L 106.484375 328.078125 C 105.65625 328.304688 104.777344 327.929688 104.425781 327.203125 L 103.066406 324.355469 C 102.941406 324.082031 102.652344 323.902344 102.332031 323.886719 C 102.269531 323.886719 101.171875 323.894531 99.042969 323.917969 Z M 96.503906 320.765625 C 96.414062 320.984375 96.535156 321.234375 96.769531 321.3125 C 96.816406 321.328125 96.871094 321.335938 96.925781 321.335938 L 100.828125 321.335938 C 101.078125 321.335938 101.289062 321.140625 101.28125 320.90625 C 101.28125 320.859375 101.273438 320.804688 101.25 320.757812 L 99.296875 316 C 99.199219 315.78125 98.933594 315.671875 98.699219 315.757812 C 98.582031 315.804688 98.488281 315.890625 98.441406 316 L 96.488281 320.757812 Z M 96.503906 320.765625 "/><path style=" stroke:none;fill-rule:nonzero;fill:#ffffff;fill-opacity:1;" d="M 123.515625 312.902344 C 123.515625 312.078125 124.234375 311.414062 125.121094 311.421875 C 125.121094 311.421875 125.121094 311.421875 125.128906 311.421875 L 130.925781 311.476562 C 135.429688 311.515625 139.054688 314.902344 139.023438 319.050781 L 139.007812 320.585938 C 138.976562 324.730469 135.289062 328.070312 130.777344 328.039062 C 130.777344 328.039062 130.777344 328.039062 130.769531 328.039062 L 124.972656 327.984375 C 124.09375 327.976562 123.382812 327.3125 123.390625 326.492188 L 123.523438 312.910156 Z M 126.644531 314.660156 L 126.722656 324.792969 C 126.722656 325.121094 127.011719 325.378906 127.359375 325.378906 L 130.582031 325.363281 C 133.453125 325.347656 135.761719 323.125 135.746094 320.394531 C 135.746094 320.394531 135.746094 320.394531 135.746094 320.386719 L 135.730469 318.949219 C 135.707031 316.226562 133.367188 314.035156 130.503906 314.050781 L 127.28125 314.066406 C 126.925781 314.066406 126.644531 314.332031 126.644531 314.660156 Z M 126.644531 314.660156 "/><path style=" stroke:none;fill-rule:nonzero;fill:#ffffff;fill-opacity:1;" d="M 264.980469 314.535156 C 264.980469 314.308594 264.792969 314.121094 264.550781 314.113281 C 264.550781 314.113281 264.550781 314.113281 264.542969 314.113281 L 260.433594 314.128906 C 259.714844 314.128906 259.121094 313.589844 259.121094 312.917969 C 259.121094 312.917969 259.128906 312.628906 259.128906 312.628906 C 259.128906 311.976562 259.691406 311.453125 260.386719 311.445312 L 273.273438 311.398438 C 273.726562 311.398438 274.09375 311.734375 274.09375 312.15625 L 274.078125 313.160156 C 274.078125 313.683594 273.617188 314.105469 273.054688 314.105469 C 273.054688 314.105469 273.046875 314.105469 273.039062 314.105469 L 268.414062 314.058594 C 268.148438 314.058594 267.9375 314.246094 267.929688 314.496094 C 267.929688 314.496094 267.929688 314.503906 267.929688 314.511719 L 267.96875 326.789062 C 267.96875 327.523438 267.335938 328.117188 266.542969 328.125 L 266.144531 328.125 C 265.417969 328.125 264.824219 327.578125 264.824219 326.898438 C 264.824219 326.898438 264.824219 326.890625 264.824219 326.882812 L 264.972656 314.519531 Z M 264.980469 314.535156 "/><path style=" stroke:none;fill-rule:nonzero;fill:#ffffff;fill-opacity:1;" d="M 289.976562 321.6875 L 293.300781 325.863281 C 293.800781 326.5 293.660156 327.390625 292.980469 327.859375 C 292.855469 327.945312 292.707031 328.015625 292.558594 328.0625 L 292.488281 328.085938 C 291.601562 328.273438 290.6875 327.898438 290.234375 327.15625 L 286.972656 321.804688 C 286.816406 321.546875 286.511719 321.382812 286.1875 321.375 L 282.949219 321.359375 C 282.691406 321.359375 282.480469 321.546875 282.472656 321.796875 L 282.425781 326.75 C 282.425781 327.507812 281.761719 328.109375 280.949219 328.109375 C 280.933594 328.109375 280.917969 328.109375 280.910156 328.109375 L 280.757812 328.109375 C 279.976562 328.140625 279.320312 327.578125 279.289062 326.851562 C 279.289062 326.828125 279.289062 326.804688 279.289062 326.78125 L 279.4375 312.378906 C 279.4375 311.875 279.867188 311.46875 280.40625 311.4375 C 284.0625 311.265625 292.152344 310.507812 292.910156 315.140625 C 293.363281 317.917969 292.433594 319.894531 290.109375 321.09375 C 289.90625 321.203125 289.828125 321.445312 289.9375 321.632812 C 289.945312 321.648438 289.960938 321.664062 289.96875 321.679688 Z M 282.558594 314.746094 L 282.527344 318.011719 C 282.527344 318.394531 282.855469 318.699219 283.269531 318.699219 L 287.449219 318.730469 C 288.917969 318.738281 290.117188 317.753906 290.125 316.523438 L 290.125 316.328125 C 290.125 315.101562 288.949219 314.097656 287.480469 314.089844 L 283.300781 314.058594 C 282.894531 314.058594 282.558594 314.371094 282.558594 314.746094 Z M 282.558594 314.746094 "/><path style=" stroke:none;fill-rule:nonzero;fill:#ffffff;fill-opacity:1;" d="M 306.507812 328.328125 C 302.632812 328.328125 299.332031 326.65625 299.128906 322.84375 C 299.042969 321.203125 299.019531 317.742188 299.066406 312.464844 C 299.074219 311.789062 299.652344 311.25 300.375 311.234375 L 300.734375 311.234375 C 301.515625 311.21875 302.15625 311.804688 302.171875 312.535156 C 302.25 317.894531 302.28125 320.617188 302.273438 320.703125 C 302.234375 323.792969 302.976562 325.582031 306.507812 325.574219 C 310.027344 325.574219 310.769531 323.777344 310.707031 320.6875 C 310.707031 320.601562 310.730469 317.878906 310.777344 312.519531 C 310.777344 311.789062 311.417969 311.195312 312.210938 311.203125 C 312.210938 311.203125 312.210938 311.203125 312.21875 311.203125 L 312.570312 311.203125 C 313.289062 311.21875 313.875 311.757812 313.882812 312.441406 C 313.945312 317.71875 313.9375 321.179688 313.859375 322.820312 C 313.671875 326.632812 310.371094 328.320312 306.5 328.328125 Z M 306.507812 328.328125 "/><path style=" stroke:none;fill-rule:nonzero;fill:#ffffff;fill-opacity:1;" d="M 432.199219 324.074219 C 432.433594 324.074219 432.605469 323.949219 432.722656 323.675781 C 434.324219 319.949219 435.890625 316.203125 437.410156 312.433594 C 437.707031 311.679688 438.542969 311.234375 439.394531 311.375 L 439.542969 311.398438 C 440.203125 311.507812 440.640625 312.085938 440.523438 312.699219 C 440.507812 312.769531 440.492188 312.832031 440.46875 312.902344 C 438.480469 317.894531 436.414062 322.585938 434.269531 326.976562 C 433.824219 327.882812 433.128906 328.335938 432.191406 328.328125 C 431.242188 328.328125 430.554688 327.867188 430.117188 326.953125 C 428.019531 322.546875 426 317.839844 424.070312 312.824219 C 423.84375 312.246094 424.164062 311.601562 424.789062 311.390625 C 424.859375 311.367188 424.929688 311.351562 425.007812 311.335938 L 425.15625 311.3125 C 426.007812 311.1875 426.839844 311.640625 427.136719 312.394531 C 428.613281 316.171875 430.140625 319.933594 431.707031 323.675781 C 431.816406 323.949219 431.988281 324.082031 432.214844 324.082031 Z M 432.199219 324.074219 "/><path style=" stroke:none;fill-rule:nonzero;fill:#ffffff;fill-opacity:1;" d="M 447.109375 311.296875 C 447.3125 311.296875 447.507812 311.335938 447.699219 311.414062 C 447.886719 311.492188 448.054688 311.601562 448.199219 311.746094 C 448.34375 311.890625 448.457031 312.058594 448.535156 312.246094 C 448.613281 312.4375 448.652344 312.632812 448.652344 312.835938 L 448.671875 326.550781 C 448.671875 326.753906 448.636719 326.953125 448.558594 327.140625 C 448.480469 327.332031 448.367188 327.496094 448.222656 327.640625 C 448.078125 327.785156 447.914062 327.898438 447.722656 327.976562 C 447.535156 328.054688 447.339844 328.09375 447.132812 328.09375 C 446.929688 328.09375 446.734375 328.054688 446.542969 327.980469 C 446.355469 327.902344 446.1875 327.789062 446.042969 327.644531 C 445.898438 327.5 445.789062 327.335938 445.710938 327.144531 C 445.628906 326.957031 445.589844 326.761719 445.589844 326.554688 L 445.570312 312.839844 C 445.570312 312.636719 445.609375 312.441406 445.6875 312.25 C 445.765625 312.0625 445.875 311.894531 446.019531 311.75 C 446.164062 311.605469 446.328125 311.496094 446.519531 311.417969 C 446.707031 311.335938 446.902344 311.296875 447.109375 311.296875 Z M 447.109375 311.296875 "/><path style=" stroke:none;fill-rule:nonzero;fill:#ffffff;fill-opacity:1;" d="M 466.761719 325.371094 C 467.347656 325.371094 467.816406 325.808594 467.816406 326.359375 C 467.816406 326.398438 467.816406 326.445312 467.808594 326.484375 L 467.792969 326.609375 C 467.714844 327.296875 467.097656 327.8125 466.363281 327.820312 C 464.390625 327.835938 461.300781 327.851562 457.09375 327.867188 C 455.832031 327.867188 455.238281 327.367188 455.316406 326.34375 C 455.597656 322.328125 455.605469 317.832031 455.339844 312.839844 C 455.292969 312.070312 455.925781 311.414062 456.746094 311.375 C 456.769531 311.375 456.792969 311.375 456.824219 311.375 L 457.273438 311.375 C 457.867188 311.367188 458.359375 311.8125 458.359375 312.371094 C 458.359375 312.371094 458.46875 324.582031 458.46875 324.582031 C 458.46875 325.027344 458.867188 325.394531 459.34375 325.394531 L 466.753906 325.378906 Z M 466.761719 325.371094 "/><path style=" stroke:none;fill-rule:nonzero;fill:#ffffff;fill-opacity:1;" d="M 516.332031 319.714844 C 516.332031 320.066406 516.230469 320.324219 516.042969 320.503906 C 515.847656 320.695312 515.566406 320.796875 515.21875 320.804688 C 512.9375 320.882812 510.738281 320.882812 508.617188 320.804688 C 508.328125 320.789062 508.085938 321 508.070312 321.265625 C 508.070312 321.273438 508.070312 321.289062 508.070312 321.296875 L 508.101562 324.871094 C 508.101562 325.160156 508.359375 325.394531 508.671875 325.394531 L 516.527344 325.324219 C 517.097656 325.324219 517.566406 325.746094 517.574219 326.289062 L 517.574219 326.71875 C 517.574219 327.367188 517.019531 327.898438 516.324219 327.90625 L 505.746094 327.992188 C 505.253906 327.992188 504.855469 327.632812 504.847656 327.171875 C 504.847656 327.171875 504.847656 327.164062 504.847656 327.15625 C 504.871094 324.347656 504.894531 321.851562 504.902344 319.660156 C 504.910156 317.476562 504.917969 314.984375 504.917969 312.167969 C 504.917969 311.710938 505.316406 311.335938 505.800781 311.335938 C 505.800781 311.335938 505.808594 311.335938 505.816406 311.335938 L 516.394531 311.515625 C 517.089844 311.53125 517.644531 312.0625 517.636719 312.714844 L 517.636719 313.144531 C 517.613281 313.683594 517.144531 314.105469 516.574219 314.097656 L 508.71875 313.964844 C 508.40625 313.964844 508.140625 314.191406 508.140625 314.480469 C 508.140625 314.480469 508.078125 318.058594 508.078125 318.058594 C 508.070312 318.324219 508.296875 318.550781 508.585938 318.558594 C 508.59375 318.558594 508.609375 318.558594 508.617188 318.558594 C 510.746094 318.488281 512.945312 318.503906 515.21875 318.605469 C 515.574219 318.621094 515.847656 318.722656 516.042969 318.910156 C 516.230469 319.082031 516.324219 319.347656 516.324219 319.707031 Z M 516.332031 319.714844 "/><path style=" stroke:none;fill-rule:nonzero;fill:#ffffff;fill-opacity:1;" d="M 547.6875 316.90625 C 547.601562 316.789062 547.429688 316.757812 547.304688 316.84375 C 547.226562 316.890625 547.1875 316.976562 547.1875 317.0625 L 547.125 326.765625 C 547.125 327.53125 546.453125 328.148438 545.621094 328.148438 C 545.621094 328.148438 545.621094 328.148438 545.613281 328.148438 L 545.402344 328.148438 C 544.636719 328.195312 543.964844 327.664062 543.902344 326.945312 C 543.902344 326.914062 543.902344 326.875 543.902344 326.84375 L 543.863281 312.714844 C 543.863281 311.921875 544.527344 311.273438 545.371094 311.25 C 546.648438 311.203125 547.703125 311.789062 548.53125 313.003906 C 548.835938 313.457031 551.339844 316.734375 556.027344 322.84375 C 556.113281 322.96875 556.292969 323 556.425781 322.921875 C 556.511719 322.867188 556.558594 322.78125 556.558594 322.6875 L 556.472656 312.433594 C 556.464844 311.796875 557.011719 311.28125 557.695312 311.273438 C 557.703125 311.273438 557.710938 311.273438 557.71875 311.273438 L 558.40625 311.273438 C 559.03125 311.28125 559.539062 311.765625 559.53125 312.347656 C 559.53125 312.347656 559.4375 326.9375 559.4375 326.9375 C 559.4375 327.40625 559.101562 327.8125 558.625 327.929688 C 557.429688 328.226562 556.425781 327.875 555.628906 326.890625 C 552.53125 323.03125 549.886719 319.714844 547.695312 316.929688 Z M 547.6875 316.90625 "/><path style=" stroke:none;fill-rule:nonzero;fill:#ffffff;fill-opacity:1;" d="M 566.042969 312.597656 C 566.042969 311.953125 566.597656 311.429688 567.285156 311.421875 C 567.285156 311.421875 567.285156 311.421875 567.292969 311.421875 L 573.285156 311.421875 C 577.949219 311.40625 581.734375 314.730469 581.742188 318.839844 L 581.742188 320.632812 C 581.75 324.738281 577.980469 328.078125 573.316406 328.085938 L 567.324219 328.085938 C 566.636719 328.085938 566.082031 327.578125 566.074219 326.9375 L 566.042969 312.605469 Z M 569.265625 314.738281 L 569.1875 324.714844 C 569.1875 325.042969 569.46875 325.316406 569.820312 325.324219 C 569.820312 325.324219 569.820312 325.324219 569.828125 325.324219 L 573.269531 325.347656 C 576.140625 325.363281 578.488281 323.203125 578.503906 320.511719 C 578.503906 320.511719 578.519531 319.058594 578.519531 319.058594 C 578.535156 316.375 576.21875 314.183594 573.347656 314.167969 L 569.90625 314.144531 C 569.554688 314.144531 569.265625 314.410156 569.257812 314.738281 Z M 569.265625 314.738281 "/><path style=" stroke:none;fill-rule:nonzero;fill:#ffffff;fill-opacity:1;" d="M 625.585938 323.871094 C 623.417969 323.871094 622.300781 323.871094 622.238281 323.871094 C 621.910156 323.886719 621.609375 324.074219 621.484375 324.347656 L 620.140625 327.28125 C 619.796875 328.03125 618.894531 328.429688 618.050781 328.203125 L 617.957031 328.179688 C 617.230469 328.015625 616.785156 327.335938 616.957031 326.65625 C 616.972656 326.585938 616.996094 326.523438 617.027344 326.460938 C 619.242188 321.539062 621.445312 316.679688 623.652344 311.882812 C 623.886719 311.359375 624.53125 311.101562 625.5625 311.101562 C 626.59375 311.101562 627.25 311.359375 627.496094 311.875 C 629.714844 316.664062 631.9375 321.515625 634.167969 326.4375 C 634.464844 327.078125 634.144531 327.820312 633.457031 328.09375 C 633.394531 328.117188 633.324219 328.140625 633.253906 328.15625 L 633.160156 328.179688 C 632.304688 328.40625 631.414062 328.015625 631.0625 327.265625 L 629.707031 324.332031 C 629.574219 324.050781 629.285156 323.871094 628.957031 323.855469 C 628.894531 323.855469 627.777344 323.855469 625.601562 323.855469 Z M 625.84375 315.523438 C 625.726562 315.296875 625.4375 315.203125 625.195312 315.3125 C 625.085938 315.359375 625 315.445312 624.953125 315.554688 L 622.949219 320.570312 C 622.863281 320.789062 622.980469 321.039062 623.214844 321.117188 C 623.261719 321.132812 623.316406 321.140625 623.363281 321.140625 L 627.894531 321.226562 C 628.167969 321.226562 628.394531 321.039062 628.402344 320.78125 C 628.402344 320.710938 628.386719 320.640625 628.355469 320.570312 L 625.835938 315.523438 Z M 625.84375 315.523438 "/><path style=" stroke:none;fill-rule:nonzero;fill:#ffffff;fill-opacity:1;" d="M 691.324219 320.011719 C 693.179688 321.09375 693.554688 324.082031 692.289062 325.699219 C 691.105469 327.210938 689.386719 327.984375 687.132812 328.015625 C 683.007812 328.078125 680.339844 328.070312 679.152344 328.015625 C 678.738281 327.992188 678.410156 327.671875 678.410156 327.28125 L 678.511719 312.171875 C 678.511719 311.765625 678.863281 311.4375 679.292969 311.429688 C 682.179688 311.335938 688.746094 310.789062 690.941406 312.996094 C 692.625 314.683594 692.679688 316.71875 691.097656 319.082031 C 690.878906 319.402344 690.980469 319.824219 691.324219 320.027344 Z M 681.78125 314.496094 L 681.859375 318.136719 C 681.859375 318.324219 682.03125 318.480469 682.234375 318.472656 L 686.585938 318.386719 C 687.953125 318.363281 689.042969 317.507812 689.027344 316.492188 L 689.011719 315.859375 C 688.988281 314.839844 687.867188 314.027344 686.5 314.050781 L 682.148438 314.136719 C 681.945312 314.136719 681.78125 314.300781 681.789062 314.488281 Z M 681.65625 321.507812 L 681.773438 324.800781 C 681.78125 325.097656 682.046875 325.324219 682.359375 325.316406 L 687.710938 325.136719 C 688.824219 325.097656 689.699219 324.300781 689.667969 323.335938 L 689.636719 322.453125 C 689.597656 321.5 688.664062 320.75 687.554688 320.789062 L 682.203125 320.960938 C 681.890625 320.976562 681.648438 321.21875 681.65625 321.507812 Z M 681.65625 321.507812 "/><path style=" stroke:none;fill-rule:nonzero;fill:#ffffff;fill-opacity:1;" d="M 46.039062 314.621094 L 46.0625 317.679688 C 46.0625 318.003906 46.355469 318.261719 46.691406 318.253906 L 54.050781 318.199219 C 54.394531 318.199219 54.679688 318.449219 54.679688 318.769531 C 54.679688 318.769531 54.6875 320.183594 54.6875 320.183594 C 54.6875 320.503906 54.410156 320.765625 54.074219 320.773438 L 46.707031 320.828125 C 46.363281 320.828125 46.085938 321.09375 46.09375 321.414062 C 46.09375 321.414062 46.117188 324.847656 46.117188 324.847656 C 46.117188 325.167969 46.410156 325.425781 46.746094 325.417969 L 56.257812 325.339844 C 56.601562 325.339844 56.882812 325.597656 56.882812 325.910156 C 56.882812 325.988281 56.867188 326.074219 56.828125 326.148438 L 56.15625 327.570312 C 56.054688 327.78125 55.835938 327.914062 55.59375 327.914062 L 43.742188 328.007812 C 43.398438 328.007812 43.113281 327.757812 43.113281 327.4375 C 43.113281 327.4375 42.980469 312.183594 42.980469 312.183594 C 42.980469 311.859375 43.253906 311.601562 43.59375 311.59375 L 54.984375 311.507812 C 55.328125 311.507812 55.609375 311.757812 55.609375 312.078125 C 55.609375 312.078125 55.617188 313.378906 55.617188 313.378906 C 55.617188 313.699219 55.34375 313.957031 55.007812 313.964844 L 46.644531 314.027344 C 46.300781 314.027344 46.023438 314.292969 46.03125 314.613281 Z M 46.039062 314.621094 "/><path style=" stroke:none;fill-rule:nonzero;fill:#ffffff;fill-opacity:1;" d="M 483.285156 312.558594 C 483.285156 311.929688 483.832031 311.429688 484.503906 311.4375 C 484.503906 311.4375 484.503906 311.4375 484.511719 311.4375 L 490.773438 311.5 C 495.425781 311.539062 499.167969 314.992188 499.128906 319.199219 L 499.113281 320.425781 C 499.066406 324.636719 495.253906 328.007812 490.601562 327.960938 L 484.324219 327.898438 C 483.660156 327.898438 483.121094 327.390625 483.121094 326.765625 C 483.121094 326.765625 483.285156 312.550781 483.285156 312.550781 Z M 486.414062 314.777344 L 486.507812 324.605469 C 486.507812 325.003906 486.859375 325.324219 487.289062 325.316406 L 490.476562 325.292969 C 493.488281 325.269531 495.902344 322.953125 495.871094 320.113281 C 495.871094 320.113281 495.855469 319.105469 495.855469 319.105469 C 495.832031 316.273438 493.371094 313.996094 490.363281 314.019531 L 487.179688 314.042969 C 486.75 314.042969 486.40625 314.371094 486.414062 314.769531 Z M 486.414062 314.777344 "/><path style=" stroke:none;fill-rule:nonzero;fill:#ffffff;fill-opacity:1;" d="M 534.003906 326.644531 L 534.070312 313.039062 C 534.070312 312.824219 534.113281 312.617188 534.195312 312.417969 C 534.277344 312.21875 534.398438 312.042969 534.550781 311.890625 C 534.703125 311.738281 534.878906 311.621094 535.082031 311.539062 C 535.28125 311.457031 535.488281 311.417969 535.703125 311.417969 L 535.710938 311.417969 C 535.925781 311.421875 536.136719 311.464844 536.332031 311.546875 C 536.53125 311.628906 536.707031 311.75 536.859375 311.902344 C 537.011719 312.054688 537.128906 312.230469 537.210938 312.429688 C 537.292969 312.632812 537.332031 312.839844 537.332031 313.054688 L 537.265625 326.660156 C 537.261719 326.875 537.222656 327.082031 537.136719 327.28125 C 537.054688 327.480469 536.933594 327.65625 536.78125 327.808594 C 536.628906 327.960938 536.453125 328.078125 536.253906 328.15625 C 536.054688 328.238281 535.84375 328.28125 535.628906 328.277344 L 535.621094 328.277344 C 535.40625 328.277344 535.199219 328.234375 535 328.152344 C 534.800781 328.070312 534.625 327.949219 534.472656 327.796875 C 534.320312 327.644531 534.203125 327.464844 534.121094 327.265625 C 534.042969 327.066406 534 326.859375 534.003906 326.644531 Z M 534.003906 326.644531 "/><path style=" stroke:none;fill-rule:nonzero;fill:#ffffff;fill-opacity:1;" d="M 642.921875 314.605469 C 642.921875 314.378906 642.726562 314.191406 642.484375 314.191406 C 642.484375 314.191406 642.484375 314.191406 642.476562 314.191406 L 638.367188 314.222656 C 637.648438 314.222656 637.0625 313.691406 637.054688 313.019531 L 637.054688 312.730469 C 637.054688 312.078125 637.609375 311.546875 638.3125 311.539062 L 651.199219 311.4375 C 651.652344 311.4375 652.019531 311.773438 652.019531 312.199219 L 652.019531 313.199219 C 652.011719 313.722656 651.550781 314.144531 650.988281 314.144531 C 650.988281 314.144531 650.988281 314.144531 650.980469 314.144531 L 646.355469 314.121094 C 646.089844 314.121094 645.878906 314.308594 645.871094 314.558594 C 645.871094 314.558594 645.871094 314.566406 645.871094 314.574219 L 645.972656 326.859375 C 645.980469 327.59375 645.347656 328.195312 644.558594 328.203125 C 644.558594 328.203125 644.558594 328.203125 644.550781 328.203125 L 644.160156 328.203125 C 643.429688 328.210938 642.828125 327.664062 642.828125 326.984375 C 642.828125 326.984375 642.828125 326.976562 642.828125 326.96875 L 642.90625 314.597656 Z M 642.921875 314.605469 "/><g clip-rule="nonzero" clip-path="url(#dd2baa5acf)"><path style=" stroke:none;fill-rule:nonzero;fill:#ffffff;fill-opacity:1;" d="M 327.886719 328.375 C 329.171875 328.507812 330.078125 329.230469 330.59375 330.542969 C 331.855469 333.765625 327.074219 333.226562 325.265625 332.96875 C 324.90625 332.914062 324.640625 332.632812 324.640625 332.296875 C 324.640625 331.820312 324.8125 331.394531 325.164062 331.042969 C 325.398438 330.816406 325.832031 330.839844 326.457031 331.128906 C 327.089844 331.417969 327.675781 331.527344 328.222656 331.449219 C 328.46875 331.417969 328.632812 331.207031 328.59375 330.980469 C 328.5625 330.792969 328.40625 330.652344 328.199219 330.636719 C 327.410156 330.558594 326.980469 330.496094 326.917969 330.457031 C 326.355469 330.097656 326.246094 329.394531 326.667969 328.875 C 326.949219 328.53125 327.417969 328.34375 327.886719 328.390625 Z M 327.886719 328.375 "/></g></g></svg>