<?xml version="1.0" encoding="UTF-8"?>
<svg id="Camada_1" data-name="Camada 1" xmlns="http://www.w3.org/2000/svg" xmlns:xlink="http://www.w3.org/1999/xlink" viewBox="0 0 1684.23 461.5">
  <defs>
    <style>
      .cls-1 {
        clip-path: url(#clippath-6);
      }

      .cls-2 {
        clip-path: url(#clippath-7);
      }

      .cls-3 {
        clip-path: url(#clippath-4);
      }

      .cls-4 {
        fill: url(#Gradiente_sem_nome_2);
      }

      .cls-5 {
        fill: none;
      }

      .cls-6 {
        fill: url(#Gradiente_sem_nome);
      }

      .cls-7 {
        clip-path: url(#clippath-1);
      }

      .cls-8 {
        clip-path: url(#clippath-5);
      }

      .cls-9 {
        fill: #102b57;
      }

      .cls-10 {
        clip-path: url(#clippath-3);
      }

      .cls-11 {
        fill: url(#Gradiente_sem_nome_4);
      }

      .cls-12 {
        clip-path: url(#clippath-2);
      }

      .cls-13 {
        fill: url(#Gradiente_sem_nome_3);
      }

      .cls-14 {
        clip-path: url(#clippath);
      }
    </style>
    <clipPath id="clippath">
      <rect class="cls-5" x="1224.26" y="23.3" width="197.33" height="106.39"/>
    </clipPath>
    <clipPath id="clippath-1">
      <path class="cls-5" d="M1235.29,128.61c4.03,1.11,8.05,1.1,12.07-.04,1.57-.45,3.03-.76,4.41-.92,3.16-.4,5.89.95,9.02-1.27,4.63-3.3,8.73-9.56,11.85-14.35,2.24-3.44,1.81-7.03,1.21-11.64-.24-1.91-.71-4.26-1.41-7.07-.19-.79.13-1.61.82-2.05,3.8-2.42,7.74-4.6,11.81-6.52,7.31-3.43,15.64-7.07,25.02-10.92,11.6-4.76,23.95-8.44,37.09-11.06,1.18-.23,2.15-.12,2.9.36,4.46,2.79,8.82,5.96,13.07,9.55,8.32,7,15.93,14.51,22.82,22.52,2.57,2.98,4.89,5.96,6.95,8.93,3.97,5.73,7.46,11.29,8.04,17.93.03.34.41.53.7.36,1.39-.82,2.69-1.76,3.91-2.82,6.67-5.78,11.14-12.67,13.42-20.68,1.22-4.32,1.85-9.73,1.85-16.23,0-8.69-.64-17.57-2.27-26.34-.59-3.22-1.11-6.51-1.55-9.87-.12-.93-.67-1.77-1.48-2.27-5.84-3.53-11.77-6.54-17.78-9.02-8.29-3.41-16.34-6.1-24.16-8.08-9.53-2.38-17.35-3.94-26.72-3.73-5.45.12-10.04.77-13.76,1.95-10.12,3.19-19.76,7.52-28.93,12.95-11.07,6.57-19.98,12.27-26.74,17.08-14.07,10.04-28.09,22.2-42.11,36.49-4.18,4.27-7.22,8.72-9.1,13.37-3.84,9.51-2.05,20.3,9.03,23.36h0Z"/>
    </clipPath>
    <linearGradient id="Gradiente_sem_nome" data-name="Gradiente sem nome" x1="112.8" y1="732.48" x2="353.34" y2="690.06" gradientTransform="translate(1117.51 698.75) scale(.88 -.87)" gradientUnits="userSpaceOnUse">
      <stop offset="0" stop-color="#53b430"/>
      <stop offset=".06" stop-color="#53b430"/>
      <stop offset=".08" stop-color="#53b430"/>
      <stop offset=".08" stop-color="#4ba534"/>
      <stop offset=".09" stop-color="#449539"/>
      <stop offset=".09" stop-color="#367a40"/>
      <stop offset=".09" stop-color="#295f48"/>
      <stop offset=".1" stop-color="#1f4b4d"/>
      <stop offset=".1" stop-color="#163853"/>
      <stop offset=".11" stop-color="#163853"/>
      <stop offset=".12" stop-color="#163853"/>
      <stop offset=".16" stop-color="#153753"/>
      <stop offset=".19" stop-color="#153654"/>
      <stop offset=".22" stop-color="#143554"/>
      <stop offset=".25" stop-color="#143454"/>
      <stop offset=".28" stop-color="#143355"/>
      <stop offset=".31" stop-color="#133255"/>
      <stop offset=".34" stop-color="#133155"/>
      <stop offset=".38" stop-color="#123055"/>
      <stop offset=".41" stop-color="#122f56"/>
      <stop offset=".44" stop-color="#112e56"/>
      <stop offset=".47" stop-color="#112d56"/>
      <stop offset=".5" stop-color="#112c57"/>
      <stop offset=".52" stop-color="#102b57"/>
      <stop offset=".52" stop-color="#112c57"/>
      <stop offset=".52" stop-color="#112d56"/>
      <stop offset=".53" stop-color="#122f56"/>
      <stop offset=".53" stop-color="#123056"/>
      <stop offset=".54" stop-color="#133155"/>
      <stop offset=".54" stop-color="#143255"/>
      <stop offset=".54" stop-color="#143355"/>
      <stop offset=".55" stop-color="#153554"/>
      <stop offset=".55" stop-color="#153654"/>
      <stop offset=".55" stop-color="#163754"/>
      <stop offset=".56" stop-color="#163853"/>
      <stop offset=".56" stop-color="#173953"/>
      <stop offset=".57" stop-color="#183a53"/>
      <stop offset=".57" stop-color="#183c52"/>
      <stop offset=".57" stop-color="#193d52"/>
      <stop offset=".58" stop-color="#193e52"/>
      <stop offset=".58" stop-color="#1a3f51"/>
      <stop offset=".59" stop-color="#1a4051"/>
      <stop offset=".59" stop-color="#1b4251"/>
      <stop offset=".59" stop-color="#1c4350"/>
      <stop offset=".6" stop-color="#1c4450"/>
      <stop offset=".6" stop-color="#1d4550"/>
      <stop offset=".61" stop-color="#1d464f"/>
      <stop offset=".61" stop-color="#1e484f"/>
      <stop offset=".61" stop-color="#1f494f"/>
      <stop offset=".62" stop-color="#1f4a4e"/>
      <stop offset=".62" stop-color="#204b4e"/>
      <stop offset=".62" stop-color="#204c4e"/>
      <stop offset=".63" stop-color="#214d4d"/>
      <stop offset=".63" stop-color="#214f4d"/>
      <stop offset=".64" stop-color="#22504c"/>
      <stop offset=".64" stop-color="#23514c"/>
      <stop offset=".64" stop-color="#23524c"/>
      <stop offset=".65" stop-color="#24534b"/>
      <stop offset=".65" stop-color="#24554b"/>
      <stop offset=".66" stop-color="#25564b"/>
      <stop offset=".66" stop-color="#25574a"/>
      <stop offset=".66" stop-color="#26584a"/>
      <stop offset=".67" stop-color="#27594a"/>
      <stop offset=".67" stop-color="#275a49"/>
      <stop offset=".68" stop-color="#285c49"/>
      <stop offset=".68" stop-color="#285d49"/>
      <stop offset=".68" stop-color="#295e48"/>
      <stop offset=".69" stop-color="#295f48"/>
      <stop offset=".69" stop-color="#2a6048"/>
      <stop offset=".7" stop-color="#2b6247"/>
      <stop offset=".7" stop-color="#2b6347"/>
      <stop offset=".7" stop-color="#2c6447"/>
      <stop offset=".71" stop-color="#2c6546"/>
      <stop offset=".71" stop-color="#2d6646"/>
      <stop offset=".71" stop-color="#2e6746"/>
      <stop offset=".72" stop-color="#2e6945"/>
      <stop offset=".72" stop-color="#2f6a45"/>
      <stop offset=".73" stop-color="#2f6b45"/>
      <stop offset=".73" stop-color="#306c44"/>
      <stop offset=".73" stop-color="#306d44"/>
      <stop offset=".74" stop-color="#316f44"/>
      <stop offset=".74" stop-color="#327043"/>
      <stop offset=".75" stop-color="#327143"/>
      <stop offset=".75" stop-color="#337243"/>
      <stop offset=".75" stop-color="#337342"/>
      <stop offset=".76" stop-color="#347542"/>
      <stop offset=".76" stop-color="#347642"/>
      <stop offset=".77" stop-color="#357741"/>
      <stop offset=".77" stop-color="#367841"/>
      <stop offset=".77" stop-color="#367941"/>
      <stop offset=".78" stop-color="#377a40"/>
      <stop offset=".78" stop-color="#377c40"/>
      <stop offset=".79" stop-color="#387d40"/>
      <stop offset=".79" stop-color="#397e3f"/>
      <stop offset=".79" stop-color="#397f3f"/>
      <stop offset=".8" stop-color="#3a803f"/>
      <stop offset=".8" stop-color="#3a823e"/>
      <stop offset=".8" stop-color="#3b833e"/>
      <stop offset=".81" stop-color="#3b843e"/>
      <stop offset=".81" stop-color="#3c853d"/>
      <stop offset=".82" stop-color="#3d863d"/>
      <stop offset=".82" stop-color="#3d873d"/>
      <stop offset=".82" stop-color="#3e893c"/>
      <stop offset=".83" stop-color="#3e8a3c"/>
      <stop offset=".83" stop-color="#3f8b3c"/>
      <stop offset=".84" stop-color="#3f8c3b"/>
      <stop offset=".84" stop-color="#408d3b"/>
      <stop offset=".84" stop-color="#418f3b"/>
      <stop offset=".85" stop-color="#41903a"/>
      <stop offset=".85" stop-color="#42913a"/>
      <stop offset=".86" stop-color="#42923a"/>
      <stop offset=".86" stop-color="#439339"/>
      <stop offset=".86" stop-color="#439439"/>
      <stop offset=".87" stop-color="#449639"/>
      <stop offset=".87" stop-color="#459738"/>
      <stop offset=".88" stop-color="#459838"/>
      <stop offset=".88" stop-color="#469938"/>
      <stop offset=".88" stop-color="#469a37"/>
      <stop offset=".89" stop-color="#479c37"/>
      <stop offset=".89" stop-color="#489d37"/>
      <stop offset=".89" stop-color="#489e36"/>
      <stop offset=".9" stop-color="#499f36"/>
      <stop offset=".9" stop-color="#49a036"/>
      <stop offset=".91" stop-color="#4aa135"/>
      <stop offset=".91" stop-color="#4aa335"/>
      <stop offset=".91" stop-color="#4ba435"/>
      <stop offset=".92" stop-color="#4ca534"/>
      <stop offset=".92" stop-color="#4ca634"/>
      <stop offset=".93" stop-color="#4da734"/>
      <stop offset=".93" stop-color="#4da933"/>
      <stop offset=".93" stop-color="#4eaa33"/>
      <stop offset=".94" stop-color="#4eab33"/>
      <stop offset=".94" stop-color="#4fac32"/>
      <stop offset=".95" stop-color="#50ad32"/>
      <stop offset=".95" stop-color="#50af32"/>
      <stop offset=".95" stop-color="#51b031"/>
      <stop offset=".96" stop-color="#51b131"/>
      <stop offset=".96" stop-color="#52b230"/>
      <stop offset=".96" stop-color="#52b330"/>
      <stop offset=".97" stop-color="#53b430"/>
      <stop offset="1" stop-color="#53b430"/>
    </linearGradient>
    <clipPath id="clippath-2">
      <rect class="cls-5" x="1308.26" y="29.69" width="375.97" height="218.67"/>
    </clipPath>
    <clipPath id="clippath-3">
      <path class="cls-5" d="M1669.67,90.65c-3.44-2.98-6.54-3.69-11-3.42-3.66.23-6.62,1.35-8.89,3.37-1.98,1.77-3.44,3.68-6.18,4.34-4.19.99-7.98,4.29-10.41,7.61-4.85,6.66-2.79,15.59.95,22.41,1.67,3.01,3.13,5.74,4.41,8.2,1.09,2.09,1.01,4.13-.24,6.12-2.48,3.93-5.26,7.49-8.38,10.67-4.91,5.02-13.08,12.82-24.52,23.4-3.82,3.53-9.29,8.26-16.43,14.18-2.78,2.31-5.96,4.29-8.48,6.81-.18.18-.47.17-.64-.03l-7.7-9.14-15.12-17.14c-13.27-14.73-25.64-26.64-39.12-40.02-.96-.95-1.91-2.01-2.88-3.17-.16-.19-.09-.48.12-.6,1.86-.96,3.74-1.98,5.66-3.08,1.43-.82,2.82-.83,4.19-.04,6.12,3.58,9.28,5.69,14.24,7.56,6.95,2.61,15.54,1.49,19.23-5.83,2.07-4.08,3.87-7.64,5.4-10.65.74-1.49,1.43-3.88,2.04-7.18.3-1.58.85-2.93,2.59-2.77,1.82.18,3.4.16,4.71-.07.56-.09,1.27-.51,2.14-1.24,1.5-3.37,1.58-6.94.24-10.73-.66-1.87-1.35-3.57-2.07-5.08-.63-1.33-.82-3.02-.54-4.12,2.53-9.86,1.78-18.99-2.25-27.4-8.06-16.8-27.55-25.83-45.76-23.11-15.97,2.39-27.59,12.46-30.58,28.79-.64,3.47-.9,6.63-.82,9.48.22,4.51.93,8.99,2.13,13.45.21.79-.19,1.6-.95,1.9l-11.55,4.52c-.77.3-1.64.26-2.35-.14-1.08-.59-2.05-1.2-2.89-1.86-3.74-2.93-9.6-7.73-17.56-14.4-4.97-4.17-13.57-10.62-25.79-19.35-.49-.35-1-.52-1.52-.48-.32.02-.54.33-.47.64,4.05,16.99,5.66,35.67.46,52.27-4.64,14.89-14.96,27.36-29.29,33.59-1.17.51-3.66,1.45-7.48,2.83-13.7,4.79-26.81,10.9-39.32,18.3-1.76,1.04-3.51,2.16-5.26,3.35-1.48.88-2.95,1.84-4.42,2.9-13.05,9.5-25.93,21.56-33.65,35.11-2.23,3.92-5.64,9.28-3.34,12.74.66.98,2.59.54,3.45.18,8.6-3.71,17.23-6.77,25.92-9.18,13.76-3.83,25.19-6.52,38.72-8.41,16.16-2.24,32.79-2.32,49.9-.23,7.16.88,16.22,2.38,27.18,4.52.93.17,3.11.53,6.57,1.06,1.54.23,2.64.09,3.29-.42,3.2-2.48,6.66-4.35,10.41-5.6,5.48-1.82,8.81-2.88,9.97-3.17,1.51-.39,2.74-.4,3.72-.03,2.48.93,4.95,2.23,7.41,3.9,4.38,2.98,8.71,5.96,12.99,8.95,19.69,14.24,32.47,23.66,48.96,34.14,2.99,1.9,6.22,3.76,9.69,5.57,4.85,2.54,10.09,3.6,15.41,2.19,6.03-1.6,11.41-5.25,16.17-9.21,4.89-4.07,9.34-8.1,13.34-12.09,11.71-11.66,21.95-24.48,30.71-38.49,6.04-10.08,11.38-20.54,16-31.38,2.17-5.09,5.14-9.42,8.91-13,1.96-1.87,3.45-3.26,4.47-4.18,4.4-4.02,7.69-8.88,9.35-14.34,4.45-14.63-2.67-25.16-13.22-34.29h.03Z"/>
    </clipPath>
    <linearGradient id="Gradiente_sem_nome_2" data-name="Gradiente sem nome 2" x1="202.41" y1="681.04" x2="662.25" y2="599.96" gradientTransform="translate(1117.51 698.75) scale(.88 -.87)" gradientUnits="userSpaceOnUse">
      <stop offset="0" stop-color="#53b430"/>
      <stop offset=".06" stop-color="#53b430"/>
      <stop offset=".08" stop-color="#53b430"/>
      <stop offset=".08" stop-color="#4ba434"/>
      <stop offset=".09" stop-color="#439439"/>
      <stop offset=".09" stop-color="#367841"/>
      <stop offset=".09" stop-color="#285c49"/>
      <stop offset=".1" stop-color="#1f4a4e"/>
      <stop offset=".1" stop-color="#163853"/>
      <stop offset=".11" stop-color="#163853"/>
      <stop offset=".12" stop-color="#163853"/>
      <stop offset=".14" stop-color="#153753"/>
      <stop offset=".16" stop-color="#153753"/>
      <stop offset=".17" stop-color="#153654"/>
      <stop offset=".19" stop-color="#153654"/>
      <stop offset=".2" stop-color="#153554"/>
      <stop offset=".22" stop-color="#143554"/>
      <stop offset=".23" stop-color="#143454"/>
      <stop offset=".25" stop-color="#143454"/>
      <stop offset=".27" stop-color="#143354"/>
      <stop offset=".28" stop-color="#133255"/>
      <stop offset=".3" stop-color="#133255"/>
      <stop offset=".31" stop-color="#133155"/>
      <stop offset=".33" stop-color="#133155"/>
      <stop offset=".34" stop-color="#123055"/>
      <stop offset=".36" stop-color="#123055"/>
      <stop offset=".38" stop-color="#122f56"/>
      <stop offset=".39" stop-color="#122f56"/>
      <stop offset=".41" stop-color="#122e56"/>
      <stop offset=".42" stop-color="#112e56"/>
      <stop offset=".44" stop-color="#112d56"/>
      <stop offset=".45" stop-color="#112d56"/>
      <stop offset=".47" stop-color="#112c57"/>
      <stop offset=".48" stop-color="#102c57"/>
      <stop offset=".5" stop-color="#102b57"/>
      <stop offset=".51" stop-color="#102c57"/>
      <stop offset=".51" stop-color="#112d56"/>
      <stop offset=".52" stop-color="#122f56"/>
      <stop offset=".52" stop-color="#123056"/>
      <stop offset=".52" stop-color="#133155"/>
      <stop offset=".53" stop-color="#143255"/>
      <stop offset=".53" stop-color="#143355"/>
      <stop offset=".54" stop-color="#153554"/>
      <stop offset=".54" stop-color="#153654"/>
      <stop offset=".54" stop-color="#163754"/>
      <stop offset=".55" stop-color="#173853"/>
      <stop offset=".55" stop-color="#173a53"/>
      <stop offset=".55" stop-color="#183b53"/>
      <stop offset=".56" stop-color="#183c52"/>
      <stop offset=".56" stop-color="#193d52"/>
      <stop offset=".57" stop-color="#193e51"/>
      <stop offset=".57" stop-color="#1a4051"/>
      <stop offset=".57" stop-color="#1b4151"/>
      <stop offset=".58" stop-color="#1b4250"/>
      <stop offset=".58" stop-color="#1c4350"/>
      <stop offset=".59" stop-color="#1c4450"/>
      <stop offset=".59" stop-color="#1d464f"/>
      <stop offset=".59" stop-color="#1e474f"/>
      <stop offset=".6" stop-color="#1e484f"/>
      <stop offset=".6" stop-color="#1f494e"/>
      <stop offset=".61" stop-color="#1f4b4e"/>
      <stop offset=".61" stop-color="#204c4e"/>
      <stop offset=".61" stop-color="#214d4d"/>
      <stop offset=".62" stop-color="#214e4d"/>
      <stop offset=".62" stop-color="#224f4d"/>
      <stop offset=".62" stop-color="#22514c"/>
      <stop offset=".63" stop-color="#23524c"/>
      <stop offset=".63" stop-color="#24534c"/>
      <stop offset=".64" stop-color="#24544b"/>
      <stop offset=".64" stop-color="#25554b"/>
      <stop offset=".64" stop-color="#25574b"/>
      <stop offset=".65" stop-color="#26584a"/>
      <stop offset=".65" stop-color="#27594a"/>
      <stop offset=".66" stop-color="#275a49"/>
      <stop offset=".66" stop-color="#285c49"/>
      <stop offset=".66" stop-color="#285d49"/>
      <stop offset=".67" stop-color="#295e48"/>
      <stop offset=".67" stop-color="#295f48"/>
      <stop offset=".68" stop-color="#2a6048"/>
      <stop offset=".68" stop-color="#2b6247"/>
      <stop offset=".68" stop-color="#2b6347"/>
      <stop offset=".69" stop-color="#2c6447"/>
      <stop offset=".69" stop-color="#2c6546"/>
      <stop offset=".7" stop-color="#2d6646"/>
      <stop offset=".7" stop-color="#2e6846"/>
      <stop offset=".7" stop-color="#2e6945"/>
      <stop offset=".71" stop-color="#2f6a45"/>
      <stop offset=".71" stop-color="#2f6b45"/>
      <stop offset=".71" stop-color="#306d44"/>
      <stop offset=".72" stop-color="#316e44"/>
      <stop offset=".72" stop-color="#316f44"/>
      <stop offset=".73" stop-color="#327043"/>
      <stop offset=".73" stop-color="#327143"/>
      <stop offset=".73" stop-color="#337343"/>
      <stop offset=".74" stop-color="#347442"/>
      <stop offset=".74" stop-color="#347542"/>
      <stop offset=".75" stop-color="#357642"/>
      <stop offset=".75" stop-color="#357741"/>
      <stop offset=".75" stop-color="#367941"/>
      <stop offset=".76" stop-color="#377a40"/>
      <stop offset=".76" stop-color="#377b40"/>
      <stop offset=".77" stop-color="#387c40"/>
      <stop offset=".77" stop-color="#387e3f"/>
      <stop offset=".77" stop-color="#397f3f"/>
      <stop offset=".78" stop-color="#39803f"/>
      <stop offset=".78" stop-color="#3a813e"/>
      <stop offset=".79" stop-color="#3b823e"/>
      <stop offset=".79" stop-color="#3b843e"/>
      <stop offset=".79" stop-color="#3c853d"/>
      <stop offset=".8" stop-color="#3c863d"/>
      <stop offset=".8" stop-color="#3d873d"/>
      <stop offset=".8" stop-color="#3e893c"/>
      <stop offset=".81" stop-color="#3e8a3c"/>
      <stop offset=".81" stop-color="#3f8b3c"/>
      <stop offset=".82" stop-color="#3f8c3b"/>
      <stop offset=".82" stop-color="#408d3b"/>
      <stop offset=".82" stop-color="#418f3b"/>
      <stop offset=".83" stop-color="#41903a"/>
      <stop offset=".83" stop-color="#42913a"/>
      <stop offset=".84" stop-color="#42923a"/>
      <stop offset=".84" stop-color="#439339"/>
      <stop offset=".84" stop-color="#449539"/>
      <stop offset=".85" stop-color="#449639"/>
      <stop offset=".85" stop-color="#459738"/>
      <stop offset=".86" stop-color="#459838"/>
      <stop offset=".86" stop-color="#469a37"/>
      <stop offset=".86" stop-color="#479b37"/>
      <stop offset=".87" stop-color="#479c37"/>
      <stop offset=".87" stop-color="#489d36"/>
      <stop offset=".88" stop-color="#489e36"/>
      <stop offset=".88" stop-color="#49a036"/>
      <stop offset=".88" stop-color="#49a135"/>
      <stop offset=".89" stop-color="#4aa235"/>
      <stop offset=".89" stop-color="#4ba335"/>
      <stop offset=".89" stop-color="#4ba434"/>
      <stop offset=".9" stop-color="#4ca634"/>
      <stop offset=".9" stop-color="#4ca734"/>
      <stop offset=".91" stop-color="#4da833"/>
      <stop offset=".91" stop-color="#4ea933"/>
      <stop offset=".91" stop-color="#4eab33"/>
      <stop offset=".92" stop-color="#4fac32"/>
      <stop offset=".92" stop-color="#4fad32"/>
      <stop offset=".93" stop-color="#50ae32"/>
      <stop offset=".93" stop-color="#51af31"/>
      <stop offset=".93" stop-color="#51b131"/>
      <stop offset=".94" stop-color="#52b231"/>
      <stop offset=".94" stop-color="#52b330"/>
      <stop offset=".95" stop-color="#53b430"/>
      <stop offset=".95" stop-color="#53b430"/>
      <stop offset=".97" stop-color="#53b430"/>
      <stop offset="1" stop-color="#53b430"/>
    </linearGradient>
    <clipPath id="clippath-4">
      <rect class="cls-5" x="1230.93" y="209.69" width="293.33" height="243.61"/>
    </clipPath>
    <clipPath id="clippath-5">
      <path class="cls-5" d="M1516.23,243.07c-11.69-10.1-25.79-16.68-40.72-21.62-29.3-9.67-59.04-13.08-89.24-10.21-9.1.85-18.65,2.47-28.64,4.87-9.98,2.39-19.3,5.07-27.95,8.05-5.24,1.8-11.13,4.68-17.69,8.65-3.52,2.11-6.96,4.7-10.32,7.72-4.88,4.39-9.56,9.08-14.04,14.06-10.8,13.04-22.28,25.51-34.46,37.39-6.9,6.74-12.06,12.54-17.98,18.99-1.42,1.54-3.79,4.49-3.4,6.51.11.59.59,1.05,1.18,1.14,1.49.23,2.97.11,4.43-.34,11.97-3.71,24.51-7.97,36.27-11.01,12.41-3.18,18.68-4.78,18.79-4.81,25.1-6.09,50.02-10.52,76.46-12.93,1.44-.1,2.84-.19,4.22-.29l47.46,19.23c-.43.54-.86,1.07-1.29,1.61-8.42,10.61-14.84,18.6-19.26,23.95-2.84,3.42-5.55,6.36-8.64,9.51-2.15,2.19-4.61,3.89-7.39,5.08-2.85.35-6.21.38-8.57.69-6.38.88-12.85,2.37-19.42,4.49-5.9,1.9-8.58,5.44-10.01,11.03-.53,2.09-.88,3.68-.99,4.74-.54,4.57-1.81,12.19-3.81,22.86-.98,5.21-2.12,13.26-3.42,24.12-1.4,11.71-.74,26.73,8.65,35.47,1.04.95,2.52,1.34,4.47,1.14,4.08-.42,8.78-7.88,10.34-11.17,1.51-3.18,4.61-9.41,9.31-18.71,2.83-5.6,6.47-10.65,10.95-15.15.38-.38,1.94-1.82,4.69-4.34,9.31-8.48,18.68-16.81,28.15-25,10.86-8.49,21.77-16.85,32.7-25.09,8.2-6.18,17.31-13.99,27.3-23.44,10.64-10.06,20.55-20.77,29.71-32.14,3.6-4.47,7.01-9.15,10.23-14.05,4.36-6.62,8.05-14.09,9.33-21.98.92-5.62.31-9.59-2.95-14.09-1.41-1.94-2.89-3.58-4.45-4.92h0Z"/>
    </clipPath>
    <linearGradient id="Gradiente_sem_nome_3" data-name="Gradiente sem nome 3" x1="111.14" y1="453.41" x2="483.68" y2="387.71" gradientTransform="translate(1117.51 698.75) scale(.88 -.87)" gradientUnits="userSpaceOnUse">
      <stop offset="0" stop-color="#53b430"/>
      <stop offset=".03" stop-color="#53b430"/>
      <stop offset=".05" stop-color="#53b430"/>
      <stop offset=".05" stop-color="#53b430"/>
      <stop offset=".06" stop-color="#4aa335"/>
      <stop offset=".06" stop-color="#42923a"/>
      <stop offset=".07" stop-color="#347542"/>
      <stop offset=".07" stop-color="#26584a"/>
      <stop offset=".07" stop-color="#1e484e"/>
      <stop offset=".08" stop-color="#163853"/>
      <stop offset=".09" stop-color="#163853"/>
      <stop offset=".11" stop-color="#163753"/>
      <stop offset=".12" stop-color="#153753"/>
      <stop offset=".13" stop-color="#153653"/>
      <stop offset=".14" stop-color="#153654"/>
      <stop offset=".16" stop-color="#153654"/>
      <stop offset=".17" stop-color="#153554"/>
      <stop offset=".19" stop-color="#143554"/>
      <stop offset=".2" stop-color="#143454"/>
      <stop offset=".22" stop-color="#143454"/>
      <stop offset=".23" stop-color="#143354"/>
      <stop offset=".25" stop-color="#133355"/>
      <stop offset=".27" stop-color="#133255"/>
      <stop offset=".28" stop-color="#133255"/>
      <stop offset=".3" stop-color="#133155"/>
      <stop offset=".31" stop-color="#133155"/>
      <stop offset=".33" stop-color="#123055"/>
      <stop offset=".34" stop-color="#122f56"/>
      <stop offset=".36" stop-color="#122f56"/>
      <stop offset=".38" stop-color="#122e56"/>
      <stop offset=".39" stop-color="#112e56"/>
      <stop offset=".41" stop-color="#112d56"/>
      <stop offset=".42" stop-color="#112d56"/>
      <stop offset=".44" stop-color="#112c57"/>
      <stop offset=".45" stop-color="#102c57"/>
      <stop offset=".47" stop-color="#102b57"/>
      <stop offset=".47" stop-color="#112c57"/>
      <stop offset=".48" stop-color="#112e56"/>
      <stop offset=".48" stop-color="#122f56"/>
      <stop offset=".48" stop-color="#123056"/>
      <stop offset=".49" stop-color="#133155"/>
      <stop offset=".49" stop-color="#143355"/>
      <stop offset=".5" stop-color="#143454"/>
      <stop offset=".5" stop-color="#153554"/>
      <stop offset=".5" stop-color="#163654"/>
      <stop offset=".51" stop-color="#163853"/>
      <stop offset=".51" stop-color="#173953"/>
      <stop offset=".52" stop-color="#173a53"/>
      <stop offset=".52" stop-color="#183b52"/>
      <stop offset=".52" stop-color="#193d52"/>
      <stop offset=".53" stop-color="#193e52"/>
      <stop offset=".53" stop-color="#1a3f51"/>
      <stop offset=".54" stop-color="#1a4051"/>
      <stop offset=".54" stop-color="#1b4251"/>
      <stop offset=".54" stop-color="#1c4350"/>
      <stop offset=".55" stop-color="#1c4450"/>
      <stop offset=".55" stop-color="#1d454f"/>
      <stop offset=".55" stop-color="#1d474f"/>
      <stop offset=".56" stop-color="#1e484f"/>
      <stop offset=".56" stop-color="#1f494e"/>
      <stop offset=".57" stop-color="#1f4a4e"/>
      <stop offset=".57" stop-color="#204c4e"/>
      <stop offset=".57" stop-color="#204d4d"/>
      <stop offset=".58" stop-color="#214e4d"/>
      <stop offset=".58" stop-color="#224f4d"/>
      <stop offset=".59" stop-color="#22514c"/>
      <stop offset=".59" stop-color="#23524c"/>
      <stop offset=".59" stop-color="#24534c"/>
      <stop offset=".6" stop-color="#24544b"/>
      <stop offset=".6" stop-color="#25564b"/>
      <stop offset=".61" stop-color="#25574b"/>
      <stop offset=".61" stop-color="#26584a"/>
      <stop offset=".61" stop-color="#27594a"/>
      <stop offset=".62" stop-color="#275b49"/>
      <stop offset=".62" stop-color="#285c49"/>
      <stop offset=".62" stop-color="#285d49"/>
      <stop offset=".63" stop-color="#295e48"/>
      <stop offset=".63" stop-color="#2a6048"/>
      <stop offset=".64" stop-color="#2a6148"/>
      <stop offset=".64" stop-color="#2b6247"/>
      <stop offset=".64" stop-color="#2b6347"/>
      <stop offset=".65" stop-color="#2c6547"/>
      <stop offset=".65" stop-color="#2d6646"/>
      <stop offset=".66" stop-color="#2d6746"/>
      <stop offset=".66" stop-color="#2e6846"/>
      <stop offset=".66" stop-color="#2f6a45"/>
      <stop offset=".67" stop-color="#2f6b45"/>
      <stop offset=".67" stop-color="#306c44"/>
      <stop offset=".68" stop-color="#306d44"/>
      <stop offset=".68" stop-color="#316f44"/>
      <stop offset=".68" stop-color="#327043"/>
      <stop offset=".69" stop-color="#327143"/>
      <stop offset=".69" stop-color="#337243"/>
      <stop offset=".7" stop-color="#337442"/>
      <stop offset=".7" stop-color="#347542"/>
      <stop offset=".7" stop-color="#357642"/>
      <stop offset=".71" stop-color="#357741"/>
      <stop offset=".71" stop-color="#367941"/>
      <stop offset=".71" stop-color="#367a41"/>
      <stop offset=".72" stop-color="#377b40"/>
      <stop offset=".72" stop-color="#387c40"/>
      <stop offset=".73" stop-color="#387e3f"/>
      <stop offset=".73" stop-color="#397f3f"/>
      <stop offset=".73" stop-color="#39803f"/>
      <stop offset=".74" stop-color="#3a813e"/>
      <stop offset=".74" stop-color="#3b833e"/>
      <stop offset=".75" stop-color="#3b843e"/>
      <stop offset=".75" stop-color="#3c853d"/>
      <stop offset=".75" stop-color="#3d863d"/>
      <stop offset=".76" stop-color="#3d883d"/>
      <stop offset=".76" stop-color="#3e893c"/>
      <stop offset=".77" stop-color="#3e8a3c"/>
      <stop offset=".77" stop-color="#3f8b3c"/>
      <stop offset=".77" stop-color="#408d3b"/>
      <stop offset=".78" stop-color="#408e3b"/>
      <stop offset=".78" stop-color="#418f3a"/>
      <stop offset=".79" stop-color="#41903a"/>
      <stop offset=".79" stop-color="#42923a"/>
      <stop offset=".79" stop-color="#439339"/>
      <stop offset=".8" stop-color="#439439"/>
      <stop offset=".8" stop-color="#449539"/>
      <stop offset=".8" stop-color="#449738"/>
      <stop offset=".81" stop-color="#459838"/>
      <stop offset=".81" stop-color="#469938"/>
      <stop offset=".82" stop-color="#469a37"/>
      <stop offset=".82" stop-color="#479c37"/>
      <stop offset=".82" stop-color="#489d37"/>
      <stop offset=".83" stop-color="#489e36"/>
      <stop offset=".83" stop-color="#499f36"/>
      <stop offset=".84" stop-color="#49a135"/>
      <stop offset=".84" stop-color="#4aa235"/>
      <stop offset=".84" stop-color="#4ba335"/>
      <stop offset=".85" stop-color="#4ba434"/>
      <stop offset=".85" stop-color="#4ca634"/>
      <stop offset=".86" stop-color="#4ca734"/>
      <stop offset=".86" stop-color="#4da833"/>
      <stop offset=".86" stop-color="#4ea933"/>
      <stop offset=".87" stop-color="#4eab33"/>
      <stop offset=".87" stop-color="#4fac32"/>
      <stop offset=".88" stop-color="#4fad32"/>
      <stop offset=".88" stop-color="#50ae32"/>
      <stop offset=".88" stop-color="#51b031"/>
      <stop offset=".89" stop-color="#51b131"/>
      <stop offset=".89" stop-color="#52b231"/>
      <stop offset=".89" stop-color="#52b330"/>
      <stop offset=".9" stop-color="#53b430"/>
      <stop offset=".91" stop-color="#53b430"/>
      <stop offset=".94" stop-color="#53b430"/>
      <stop offset="1" stop-color="#53b430"/>
    </linearGradient>
    <clipPath id="clippath-6">
      <rect class="cls-5" x="971.23" y="304.35" width="381.03" height="145.33"/>
    </clipPath>
    <clipPath id="clippath-7">
      <path class="cls-5" d="M1351.95,305.38c.07-.17-.04-.36-.22-.36-.59-.03-1,0-1.22.06-1.79.52-6.1,1.4-12.93,2.63-7.78,1.4-20.57,4.11-38.38,8.12-5.85,1.32-12.22,2.92-19.12,4.82-11.28,3.11-25.41,6.47-37.78,10.59-11.05,3.67-22.1,7.22-33.19,10.64-4.86,1.31-11.74,2.91-20.61,4.81-4,.86-10.03,2.34-18.07,4.46-17.17,4.51-32.89,10.61-50.23,17.72-4.32,1.78-9.45,3.99-15.35,6.68-7.44,3.37-12.57,5.59-15.38,6.66-7.55,2.87-13.54,4.92-20.55,5.49-2.47.19-3.98-.67-5.36-2.87-2.48-3.97-5.87-9.02-10.56-10.17-2.56-.64-5.3-1.03-8.22-1.17-5.45-.27-9.85,2.65-13.67,5.87-4.66,3.93-9.15,7.54-13.45,10.84-7.53,5.76-13.68,10.98-19.68,16.58-2.59,2.42-6.29,6.39-11.09,11.9-6.29,7.22-11.12,14.41-14.52,21.55-1.41,2.97-2.2,7.81,1.95,8.74,1.9.43,4.2.24,6.89-.58,9.17-2.78,18.18-6.04,27.86-10.23,11.26-4.86,18.83-8.01,22.7-9.43,7.77-2.84,15.78-4.37,24.02-4.55,10.39-.23,21.27-.57,32.63-.99,11.78-.44,21.42-1.09,28.94-1.93,10.1-1.14,19.68-2.51,28.72-4.13,38.35-6.89,74.58-19.72,108.69-38.52,11.86-6.45,21.94-12.52,30.23-18.2,12.57-8.61,25.4-18.56,38.51-29.83,8.15-7.01,17.99-16.2,27.51-23.96.41-.33.72-.74.95-1.24h0Z"/>
    </clipPath>
    <linearGradient id="Gradiente_sem_nome_4" data-name="Gradiente sem nome 4" x1="-174.59" y1="407.23" x2="275.34" y2="327.89" gradientTransform="translate(1117.51 698.75) scale(.88 -.87)" gradientUnits="userSpaceOnUse">
      <stop offset="0" stop-color="#53b430"/>
      <stop offset=".03" stop-color="#53b430"/>
      <stop offset=".05" stop-color="#53b430"/>
      <stop offset=".05" stop-color="#53b430"/>
      <stop offset=".06" stop-color="#4fad32"/>
      <stop offset=".06" stop-color="#4ca534"/>
      <stop offset=".07" stop-color="#3e8a3c"/>
      <stop offset=".07" stop-color="#316e44"/>
      <stop offset=".07" stop-color="#23534b"/>
      <stop offset=".08" stop-color="#163853"/>
      <stop offset=".09" stop-color="#163853"/>
      <stop offset=".12" stop-color="#153753"/>
      <stop offset=".16" stop-color="#153653"/>
      <stop offset=".19" stop-color="#153554"/>
      <stop offset=".22" stop-color="#143454"/>
      <stop offset=".25" stop-color="#143354"/>
      <stop offset=".28" stop-color="#133255"/>
      <stop offset=".31" stop-color="#133155"/>
      <stop offset=".34" stop-color="#123055"/>
      <stop offset=".38" stop-color="#122f56"/>
      <stop offset=".41" stop-color="#112e56"/>
      <stop offset=".44" stop-color="#112d56"/>
      <stop offset=".47" stop-color="#112c57"/>
      <stop offset=".48" stop-color="#102c57"/>
      <stop offset=".49" stop-color="#102c57"/>
      <stop offset=".5" stop-color="#112d56"/>
      <stop offset=".5" stop-color="#122e56"/>
      <stop offset=".5" stop-color="#122f56"/>
      <stop offset=".51" stop-color="#133155"/>
      <stop offset=".51" stop-color="#133255"/>
      <stop offset=".52" stop-color="#143355"/>
      <stop offset=".52" stop-color="#143454"/>
      <stop offset=".52" stop-color="#153554"/>
      <stop offset=".53" stop-color="#163754"/>
      <stop offset=".53" stop-color="#163853"/>
      <stop offset=".54" stop-color="#173953"/>
      <stop offset=".54" stop-color="#173a53"/>
      <stop offset=".54" stop-color="#183b52"/>
      <stop offset=".55" stop-color="#193c52"/>
      <stop offset=".55" stop-color="#193e52"/>
      <stop offset=".55" stop-color="#1a3f51"/>
      <stop offset=".56" stop-color="#1a4051"/>
      <stop offset=".56" stop-color="#1b4151"/>
      <stop offset=".57" stop-color="#1b4250"/>
      <stop offset=".57" stop-color="#1c4450"/>
      <stop offset=".57" stop-color="#1d4550"/>
      <stop offset=".58" stop-color="#1d464f"/>
      <stop offset=".58" stop-color="#1e474f"/>
      <stop offset=".59" stop-color="#1e484f"/>
      <stop offset=".59" stop-color="#1f4a4e"/>
      <stop offset=".59" stop-color="#204b4e"/>
      <stop offset=".6" stop-color="#204c4e"/>
      <stop offset=".6" stop-color="#214d4d"/>
      <stop offset=".61" stop-color="#214e4d"/>
      <stop offset=".61" stop-color="#22504d"/>
      <stop offset=".61" stop-color="#22514c"/>
      <stop offset=".62" stop-color="#23524c"/>
      <stop offset=".62" stop-color="#24534c"/>
      <stop offset=".62" stop-color="#24544b"/>
      <stop offset=".63" stop-color="#25564b"/>
      <stop offset=".63" stop-color="#25574b"/>
      <stop offset=".64" stop-color="#26584a"/>
      <stop offset=".64" stop-color="#27594a"/>
      <stop offset=".64" stop-color="#275a49"/>
      <stop offset=".65" stop-color="#285c49"/>
      <stop offset=".65" stop-color="#285d49"/>
      <stop offset=".66" stop-color="#295e48"/>
      <stop offset=".66" stop-color="#295f48"/>
      <stop offset=".66" stop-color="#2a6048"/>
      <stop offset=".67" stop-color="#2b6247"/>
      <stop offset=".67" stop-color="#2b6347"/>
      <stop offset=".68" stop-color="#2c6447"/>
      <stop offset=".68" stop-color="#2c6546"/>
      <stop offset=".68" stop-color="#2d6646"/>
      <stop offset=".69" stop-color="#2e6846"/>
      <stop offset=".69" stop-color="#2e6945"/>
      <stop offset=".7" stop-color="#2f6a45"/>
      <stop offset=".7" stop-color="#2f6b45"/>
      <stop offset=".7" stop-color="#306c44"/>
      <stop offset=".71" stop-color="#306e44"/>
      <stop offset=".71" stop-color="#316f44"/>
      <stop offset=".71" stop-color="#327043"/>
      <stop offset=".72" stop-color="#327143"/>
      <stop offset=".72" stop-color="#337243"/>
      <stop offset=".73" stop-color="#337442"/>
      <stop offset=".73" stop-color="#347542"/>
      <stop offset=".73" stop-color="#357642"/>
      <stop offset=".74" stop-color="#357741"/>
      <stop offset=".74" stop-color="#367841"/>
      <stop offset=".75" stop-color="#367941"/>
      <stop offset=".75" stop-color="#377b40"/>
      <stop offset=".75" stop-color="#377c40"/>
      <stop offset=".76" stop-color="#387d40"/>
      <stop offset=".76" stop-color="#397e3f"/>
      <stop offset=".77" stop-color="#397f3f"/>
      <stop offset=".77" stop-color="#3a813f"/>
      <stop offset=".77" stop-color="#3a823e"/>
      <stop offset=".78" stop-color="#3b833e"/>
      <stop offset=".78" stop-color="#3c843e"/>
      <stop offset=".79" stop-color="#3c853d"/>
      <stop offset=".79" stop-color="#3d873d"/>
      <stop offset=".79" stop-color="#3d883d"/>
      <stop offset=".8" stop-color="#3e893c"/>
      <stop offset=".8" stop-color="#3e8a3c"/>
      <stop offset=".8" stop-color="#3f8b3c"/>
      <stop offset=".81" stop-color="#408d3b"/>
      <stop offset=".81" stop-color="#408e3b"/>
      <stop offset=".82" stop-color="#418f3a"/>
      <stop offset=".82" stop-color="#41903a"/>
      <stop offset=".82" stop-color="#42913a"/>
      <stop offset=".83" stop-color="#439339"/>
      <stop offset=".83" stop-color="#439439"/>
      <stop offset=".84" stop-color="#449539"/>
      <stop offset=".84" stop-color="#449638"/>
      <stop offset=".84" stop-color="#459738"/>
      <stop offset=".85" stop-color="#459938"/>
      <stop offset=".85" stop-color="#469a37"/>
      <stop offset=".86" stop-color="#479b37"/>
      <stop offset=".86" stop-color="#479c37"/>
      <stop offset=".86" stop-color="#489d36"/>
      <stop offset=".87" stop-color="#489f36"/>
      <stop offset=".87" stop-color="#49a036"/>
      <stop offset=".88" stop-color="#4aa135"/>
      <stop offset=".88" stop-color="#4aa235"/>
      <stop offset=".88" stop-color="#4ba335"/>
      <stop offset=".89" stop-color="#4ba534"/>
      <stop offset=".89" stop-color="#4ca634"/>
      <stop offset=".89" stop-color="#4ca734"/>
      <stop offset=".9" stop-color="#4da833"/>
      <stop offset=".9" stop-color="#4ea933"/>
      <stop offset=".91" stop-color="#4eab33"/>
      <stop offset=".91" stop-color="#4fac32"/>
      <stop offset=".91" stop-color="#4fad32"/>
      <stop offset=".92" stop-color="#50ae32"/>
      <stop offset=".92" stop-color="#51af31"/>
      <stop offset=".93" stop-color="#51b131"/>
      <stop offset=".93" stop-color="#52b231"/>
      <stop offset=".93" stop-color="#52b330"/>
      <stop offset=".94" stop-color="#53b430"/>
      <stop offset="1" stop-color="#53b430"/>
    </linearGradient>
  </defs>
  <g id="_5f1839ae9f" data-name="5f1839ae9f">
    <path class="cls-9" d="M.43,256.83V55.79c0-9.97,1.63-18.61,4.88-25.92,3.25-7.3,7.59-12.93,13.04-16.88,5.46-3.94,11.26-6.78,17.4-8.52,6.14-1.73,12.8-2.48,20-2.25,59.83,1.61,97.17,3.47,112,5.56v40.33h-100.52c-4.41,0-7.89.47-10.44,1.4-2.56.93-4.35,2.56-5.4,4.88-1.04,2.32-1.68,4.29-1.92,5.92-.22,1.63-.33,4.06-.33,7.29v39.67l102.96,3.48v40.33l-102.96,3.15v102.6H.43Z"/>
    <path class="cls-9" d="M206.32,206.75V55.08c0-8.57,1.16-16.09,3.48-22.58,2.32-6.5,5.33-11.6,9.04-15.31s8.07-6.8,13.04-9.23c4.98-2.43,9.85-3.99,14.6-4.69,4.76-.69,9.81-1.04,15.15-1.04,59.83,1.61,97.17,3.47,112,5.56v40.33h-100.52c-4.41,0-7.89.47-10.44,1.4-2.56.93-4.35,2.56-5.4,4.88-1.04,2.32-1.68,4.29-1.92,5.92-.22,1.63-.33,4.06-.33,7.29v39.67l102.96,3.48v40.33l-102.96,3.15v39.65c0,4.41.57,7.94,1.73,10.6,1.17,2.67,3.02,4.53,5.56,5.58,2.55,1.04,4.7,1.62,6.44,1.73,1.75.11,4.36.17,7.83.17h97.04v40c-5.79.7-17.74,1.57-35.83,2.63-18.08,1.04-34.78,1.79-50.08,2.25l-22.6,1.04c-5.33.23-10.32.11-14.96-.35-4.64-.46-9.74-1.73-15.31-3.81-5.56-2.09-10.37-4.88-14.44-8.35-4.06-3.47-7.42-8.51-10.08-15.13-2.67-6.61-4-14.44-4-23.48Z"/>
    <path class="cls-9" d="M409.09,87.79v-21.92c0-9.73,1.16-18.43,3.48-26.08,2.32-7.65,5.44-13.92,9.38-18.79,3.94-4.88,8.88-8.88,14.79-12s12.18-5.32,18.79-6.6c6.61-1.28,14.09-2.03,22.44-2.27,17.63-.46,35.82.35,54.6,2.44,18.78,2.08,33.39,4.64,43.83,7.67v38.25c-26.45-2.32-54.85-3.48-85.23-3.48-12.29-.23-20.93,1.1-25.92,4-4.99,2.91-7.48,9.81-7.48,20.71v12.52c0,9.74,1.97,16.23,5.92,19.48,3.94,3.24,11.02,4.85,21.23,4.85h40.33c6.03,0,11.65.58,16.88,1.75,5.22,1.16,9.74,2.78,13.56,4.88,3.83,2.08,7.31,4.52,10.44,7.31,3.13,2.78,5.79,5.91,8,9.38,2.21,3.47,4.06,7.01,5.56,10.6,1.51,3.6,2.67,7.37,3.48,11.31.82,3.95,1.4,7.72,1.75,11.31.34,3.58.52,7.23.52,10.94v17.04c0,11.14-1.4,20.89-4.19,29.23-2.78,8.35-6.31,14.96-10.6,19.83-4.29,4.86-9.63,8.8-16,11.81-6.38,3.02-12.7,5.04-18.96,6.08-6.27,1.05-13.1,1.58-20.52,1.58-41.97,0-74.79-3.48-98.44-10.44v-38.27c25.51,2.56,55.08,3.83,88.71,3.83,4.4,0,8.17-.23,11.29-.69,3.14-.47,6.39-1.4,9.75-2.79,3.36-1.39,5.91-3.65,7.65-6.77,1.73-3.14,2.6-7.03,2.6-11.67v-13.56c0-8.13-1.63-14.15-4.88-18.08-3.24-3.94-9.27-5.92-18.08-5.92h-38.96c-43.82-.23-65.73-22.73-65.73-67.48Z"/>
    <path class="cls-9" d="M626.92,256.83V2.23h104.69c40.58,0,60.88,24.58,60.88,73.73,0,13.92-1.33,25.86-4,35.83-2.67,9.97-5.92,17.57-9.75,22.79-3.82,5.21-8.74,9.27-14.77,12.17-6.03,2.89-11.36,4.69-16,5.4-4.64.7-10.09,1.04-16.35,1.04-6.72,0-21.33-1.04-43.83-3.13-22.49-2.09-34.2-3.38-35.13-3.83v110.6h-25.73ZM652.65,127.44h78.96c11.14,0,19.72-3.36,25.75-10.08,6.03-6.72,9.04-20.52,9.04-41.4-.24-10.67-1.52-19.48-3.83-26.44-2.32-6.96-5.51-11.82-9.56-14.6-4.06-2.78-7.59-4.57-10.6-5.38-3.02-.82-6.61-1.23-10.79-1.23h-78.96v99.13Z"/>
    <path class="cls-9" d="M844.64,256.83V2.23h25.73v254.6h-25.73Z"/>
    <path class="cls-9" d="M927.76,256.83V2.23h26.44l135.65,206.6V2.23h25.75v254.6h-25.75l-136-206.6v206.6h-26.08Z"/>
    <path class="cls-9" d="M7.04,324.09v17.17h24.69v6.04H7.04v19.9H0v-49.23h34.75v6.13H7.04Z"/>
    <path class="cls-9" d="M97.88,361.07v6.13h-35.73v-49.23h34.75v6.13h-27.71v15.13h24.69v5.98h-24.69v15.88h28.69Z"/>
    <path class="cls-9" d="M126.77,317.96h7.04v49.23h-7.04v-49.23Z"/>
    <path class="cls-9" d="M198.98,367.19l-10.63-15.13c-1.31.1-2.33.15-3.08.15h-12.17v14.98h-7.04v-49.23h19.21c6.38,0,11.39,1.53,15.04,4.58,3.65,3.04,5.48,7.24,5.48,12.58,0,3.79-.94,7.03-2.81,9.71-1.88,2.67-4.54,4.61-8,5.83l11.67,16.52h-7.67ZM185.07,346.23c4.44,0,7.84-.96,10.19-2.88,2.34-1.93,3.52-4.67,3.52-8.23s-1.18-6.3-3.52-8.19c-2.35-1.9-5.74-2.85-10.19-2.85h-11.96v22.15h11.96Z"/>
    <path class="cls-9" d="M266.06,354.88h-26.17l-5.42,12.31h-7.23l22.29-49.23h6.96l22.35,49.23h-7.38l-5.42-12.31ZM263.61,349.25l-10.63-24.1-10.63,24.1h21.25Z"/>
    <path class="cls-9" d="M340.08,317.96h20.75c5.21,0,9.82,1.04,13.85,3.1,4.03,2.06,7.15,4.95,9.38,8.69,2.23,3.72,3.35,8,3.35,12.83s-1.12,9.1-3.35,12.83c-2.22,3.72-5.35,6.62-9.38,8.69-4.03,2.06-8.65,3.08-13.85,3.08h-20.75v-49.23ZM360.41,361.07c3.98,0,7.48-.77,10.5-2.31,3.03-1.54,5.36-3.71,7-6.5,1.64-2.79,2.46-6.01,2.46-9.67s-.82-6.89-2.46-9.67c-1.64-2.79-3.97-4.96-7-6.5-3.02-1.55-6.52-2.33-10.5-2.33h-13.29v36.98h13.29Z"/>
    <path class="cls-9" d="M437.89,367.75c-4.97,0-9.45-1.09-13.44-3.27-3.99-2.18-7.12-5.19-9.4-9.02-2.27-3.84-3.4-8.14-3.4-12.88s1.13-9.03,3.4-12.88c2.28-3.84,5.41-6.86,9.4-9.04,3.98-2.18,8.46-3.27,13.44-3.27s9.36,1.09,13.35,3.27c3.98,2.18,7.1,5.18,9.35,9,2.25,3.82,3.38,8.13,3.38,12.92s-1.13,9.08-3.38,12.9c-2.25,3.82-5.37,6.82-9.35,9-3.99,2.18-8.44,3.27-13.35,3.27ZM437.89,361.5c3.61,0,6.85-.82,9.73-2.46,2.89-1.65,5.17-3.92,6.83-6.79,1.67-2.89,2.5-6.11,2.5-9.67s-.83-6.79-2.5-9.67c-1.67-2.89-3.95-5.15-6.83-6.79-2.88-1.64-6.12-2.46-9.73-2.46s-6.89.82-9.81,2.46c-2.93,1.64-5.23,3.91-6.9,6.79-1.66,2.88-2.48,6.1-2.48,9.67s.82,6.78,2.48,9.67c1.67,2.88,3.96,5.14,6.9,6.79,2.93,1.64,6.2,2.46,9.81,2.46Z"/>
    <path class="cls-9" d="M564.38,361.07v6.13h-35.73v-49.23h34.75v6.13h-27.71v15.13h24.69v5.98h-24.69v15.88h28.69Z"/>
    <path class="cls-9" d="M607.62,367.75c-3.71,0-7.29-.57-10.73-1.71-3.45-1.15-6.16-2.65-8.13-4.48l2.6-5.48c1.88,1.68,4.28,3.05,7.21,4.1,2.93,1.06,5.94,1.58,9.04,1.58,4.08,0,7.13-.69,9.15-2.06,2.01-1.39,3.02-3.23,3.02-5.52,0-1.69-.56-3.07-1.67-4.13-1.1-1.05-2.46-1.86-4.08-2.42-1.61-.57-3.89-1.2-6.83-1.9-3.71-.9-6.7-1.8-8.98-2.69-2.27-.89-4.21-2.26-5.83-4.1-1.61-1.84-2.42-4.34-2.42-7.5,0-2.63.69-4.98,2.06-7.08,1.39-2.11,3.48-3.8,6.29-5.06,2.82-1.28,6.31-1.92,10.48-1.92,2.92,0,5.78.38,8.58,1.13,2.82.75,5.23,1.83,7.25,3.25l-2.33,5.63c-2.06-1.32-4.26-2.32-6.6-3-2.35-.68-4.65-1.02-6.9-1.02-3.99,0-6.97.73-8.96,2.19-1.99,1.46-2.98,3.33-2.98,5.63,0,1.68.56,3.05,1.69,4.1,1.13,1.06,2.51,1.89,4.17,2.48,1.67.58,3.93,1.2,6.79,1.85,3.71.89,6.69,1.78,8.94,2.67,2.25.89,4.18,2.25,5.79,4.08,1.63,1.83,2.44,4.29,2.44,7.38,0,2.58-.71,4.95-2.13,7.08-1.41,2.13-3.54,3.81-6.4,5.06-2.86,1.24-6.38,1.85-10.54,1.85Z"/>
    <path class="cls-9" d="M673.64,317.96c6.38,0,11.39,1.53,15.04,4.58,3.65,3.04,5.48,7.24,5.48,12.58s-1.83,9.54-5.48,12.58c-3.66,3.04-8.67,4.56-15.04,4.56h-12.17v14.92h-7.04v-49.23h19.21ZM673.43,346.17c4.44,0,7.84-.95,10.19-2.85,2.34-1.9,3.52-4.63,3.52-8.19s-1.18-6.3-3.52-8.19c-2.35-1.9-5.74-2.85-10.19-2.85h-11.96v22.08h11.96Z"/>
    <path class="cls-9" d="M744.93,367.75c-4.97,0-9.45-1.09-13.44-3.27-3.99-2.18-7.12-5.19-9.4-9.02-2.27-3.84-3.4-8.14-3.4-12.88s1.13-9.03,3.4-12.88c2.28-3.84,5.41-6.86,9.4-9.04,3.98-2.18,8.46-3.27,13.44-3.27s9.36,1.09,13.35,3.27c3.98,2.18,7.1,5.18,9.35,9,2.25,3.82,3.38,8.13,3.38,12.92s-1.13,9.08-3.38,12.9c-2.25,3.82-5.37,6.82-9.35,9-3.99,2.18-8.44,3.27-13.35,3.27ZM744.93,361.5c3.61,0,6.85-.82,9.73-2.46,2.89-1.65,5.17-3.92,6.83-6.79,1.67-2.89,2.5-6.11,2.5-9.67s-.83-6.79-2.5-9.67c-1.67-2.89-3.95-5.15-6.83-6.79-2.88-1.64-6.12-2.46-9.73-2.46s-6.89.82-9.81,2.46c-2.93,1.64-5.23,3.91-6.9,6.79-1.66,2.88-2.48,6.1-2.48,9.67s.82,6.78,2.48,9.67c1.67,2.88,3.96,5.14,6.9,6.79,2.93,1.64,6.2,2.46,9.81,2.46Z"/>
    <path class="cls-9" d="M832.18,367.19l-10.63-15.13c-1.31.1-2.33.15-3.08.15h-12.17v14.98h-7.04v-49.23h19.21c6.38,0,11.39,1.53,15.04,4.58,3.65,3.04,5.48,7.24,5.48,12.58,0,3.79-.94,7.03-2.81,9.71-1.88,2.67-4.54,4.61-8,5.83l11.67,16.52h-7.67ZM818.27,346.23c4.44,0,7.84-.96,10.19-2.88,2.34-1.93,3.52-4.67,3.52-8.23s-1.18-6.3-3.52-8.19c-2.35-1.9-5.74-2.85-10.19-2.85h-11.96v22.15h11.96Z"/>
    <path class="cls-9" d="M877.68,324.09h-16.88v-6.13h40.71v6.13h-16.88v43.1h-6.96v-43.1Z"/>
    <path class="cls-9" d="M962.39,361.07v6.13h-35.73v-49.23h34.75v6.13h-27.71v15.13h24.69v5.98h-24.69v15.88h28.69Z"/>
    <path class="cls-9" d="M0,411.71h20.75c5.21,0,9.82,1.04,13.85,3.1,4.03,2.06,7.15,4.95,9.38,8.69,2.23,3.72,3.35,8,3.35,12.83s-1.12,9.1-3.35,12.83c-2.22,3.72-5.35,6.62-9.38,8.69-4.03,2.06-8.65,3.08-13.85,3.08H0v-49.23ZM20.33,454.81c3.98,0,7.48-.77,10.5-2.31,3.03-1.54,5.36-3.71,7-6.5,1.64-2.79,2.46-6.01,2.46-9.67s-.82-6.89-2.46-9.67c-1.64-2.79-3.97-4.96-7-6.5-3.02-1.55-6.52-2.33-10.5-2.33H7.04v36.98h13.29Z"/>
    <path class="cls-9" d="M111.31,454.81v6.13h-35.73v-49.23h34.75v6.13h-27.71v15.13h24.69v5.98h-24.69v15.88h28.69Z"/>
    <path class="cls-9" d="M176.61,411.71h7.04v49.23h-7.04v-49.23Z"/>
    <path class="cls-9" d="M258.25,411.71v49.23h-5.77l-29.52-36.71v36.71h-7.04v-49.23h5.77l29.54,36.71v-36.71h7.02Z"/>
    <path class="cls-9" d="M290.51,411.71h20.75c5.21,0,9.82,1.04,13.85,3.1,4.03,2.06,7.15,4.95,9.38,8.69,2.23,3.72,3.35,8,3.35,12.83s-1.12,9.1-3.35,12.83c-2.22,3.72-5.35,6.62-9.38,8.69-4.03,2.06-8.65,3.08-13.85,3.08h-20.75v-49.23ZM310.85,454.81c3.98,0,7.48-.77,10.5-2.31,3.03-1.54,5.36-3.71,7-6.5,1.64-2.79,2.46-6.01,2.46-9.67s-.82-6.89-2.46-9.67c-1.64-2.79-3.97-4.96-7-6.5-3.02-1.55-6.52-2.33-10.5-2.33h-13.29v36.98h13.29Z"/>
    <path class="cls-9" d="M397.47,448.62h-26.17l-5.42,12.31h-7.23l22.29-49.23h6.96l22.35,49.23h-7.38l-5.42-12.31ZM395.01,443l-10.63-24.1-10.63,24.1h21.25Z"/>
    <path class="cls-9" d="M435.07,411.71h7.04v49.23h-7.04v-49.23Z"/>
    <path class="cls-9" d="M505.75,448.62h-26.17l-5.42,12.31h-7.23l22.29-49.23h6.96l22.35,49.23h-7.38l-5.42-12.31ZM503.29,443l-10.63-24.1-10.63,24.1h21.25Z"/>
    <path class="cls-9" d="M553.13,417.83h-16.88v-6.13h40.71v6.13h-16.88v43.1h-6.96v-43.1Z"/>
    <path class="cls-9" d="M622.52,461.5c-6.56,0-11.67-1.88-15.33-5.63-3.66-3.75-5.48-9.14-5.48-16.17v-28h7.04v27.71c0,10.56,4.61,15.83,13.85,15.83,4.5,0,7.94-1.3,10.33-3.9,2.39-2.61,3.58-6.59,3.58-11.94v-27.71h6.81v28c0,7.07-1.83,12.47-5.48,16.21-3.66,3.72-8.77,5.58-15.33,5.58Z"/>
    <path class="cls-9" d="M708.37,435.41c2.86.79,5.11,2.24,6.75,4.33,1.64,2.08,2.46,4.72,2.46,7.9,0,4.27-1.6,7.55-4.81,9.85-3.21,2.29-7.89,3.44-14.02,3.44h-23.5v-49.23h22.08c5.63,0,9.97,1.13,13.04,3.38,3.07,2.25,4.6,5.37,4.6,9.35,0,2.58-.6,4.81-1.79,6.69-1.2,1.88-2.8,3.31-4.81,4.29ZM682.28,417.41v15.75h14.42c3.61,0,6.39-.67,8.33-2,1.94-1.34,2.92-3.3,2.92-5.88s-.97-4.54-2.92-5.88c-1.95-1.33-4.72-2-8.33-2h-14.42ZM698.45,455.25c3.98,0,6.98-.65,9-1.96,2.01-1.32,3.02-3.39,3.02-6.21,0-5.48-4.01-8.23-12.02-8.23h-16.17v16.4h16.17Z"/>
    <path class="cls-9" d="M777.35,448.62h-26.17l-5.42,12.31h-7.23l22.29-49.23h6.96l22.35,49.23h-7.38l-5.42-12.31ZM774.89,443l-10.63-24.1-10.63,24.1h21.25Z"/>
    <g class="cls-14">
      <g class="cls-7">
        <path class="cls-6" d="M1222.41,23.3v106.43h198.43V23.3h-198.43Z"/>
      </g>
    </g>
    <g class="cls-12">
      <g class="cls-10">
        <path class="cls-4" d="M1308.04,27.81v221.23h376.19V27.81h-376.19Z"/>
      </g>
    </g>
    <g class="cls-3">
      <g class="cls-8">
        <path class="cls-13" d="M1231.39,208.37v244.93h293.17v-244.93h-293.17Z"/>
      </g>
    </g>
    <g class="cls-1">
      <g class="cls-2">
        <path class="cls-11" d="M971.23,304.99v144.43h380.79v-144.43h-380.79Z"/>
      </g>
    </g>
  </g>
</svg>