<svg xmlns="http://www.w3.org/2000/svg" xmlns:xlink="http://www.w3.org/1999/xlink" width="1920" zoomAndPan="magnify" viewBox="0 0 1440 809.999993" height="1080" preserveAspectRatio="xMidYMid meet" version="1.2"><defs><clipPath id="60a1a8ac62"><path d="M 1032 264.609375 L 1176 264.609375 L 1176 342 L 1032 342 Z M 1032 264.609375 "/></clipPath><clipPath id="5953e9f24d"><path d="M 1094 269 L 1366.683594 269 L 1366.683594 429 L 1094 429 Z M 1094 269 "/></clipPath><clipPath id="190f68f147"><path d="M 1037 400 L 1251 400 L 1251 577.820312 L 1037 577.820312 Z M 1037 400 "/></clipPath><clipPath id="474eabdbe2"><path d="M 848.015625 469 L 1125 469 L 1125 575 L 848.015625 575 Z M 848.015625 469 "/></clipPath></defs><g id="10ac73b7b8"><g style="fill:#ffffff;fill-opacity:1;"><g transform="translate(81.000002, 477.55803)"><path style="stroke:none" d="M 16.25 0 L 16.25 -162 C 16.25 -170.03125 17.554688 -176.988281 20.171875 -182.875 C 22.796875 -188.757812 26.300781 -193.289062 30.6875 -196.46875 C 35.082031 -199.644531 39.753906 -201.929688 44.703125 -203.328125 C 49.648438 -204.734375 55.019531 -205.34375 60.8125 -205.15625 C 109.019531 -203.84375 139.101562 -202.347656 151.0625 -200.671875 L 151.0625 -168.15625 L 70.0625 -168.15625 C 66.507812 -168.15625 63.707031 -167.78125 61.65625 -167.03125 C 59.601562 -166.289062 58.15625 -164.984375 57.3125 -163.109375 C 56.46875 -161.242188 55.953125 -159.65625 55.765625 -158.34375 C 55.585938 -157.039062 55.5 -155.082031 55.5 -152.46875 L 55.5 -120.515625 L 138.453125 -117.71875 L 138.453125 -85.203125 L 55.5 -82.671875 L 55.5 0 Z M 16.25 0 "/></g></g><g style="fill:#ffffff;fill-opacity:1;"><g transform="translate(246.913768, 477.55803)"><path style="stroke:none" d="M 16.25 -40.359375 L 16.25 -162.546875 C 16.25 -169.460938 17.179688 -175.535156 19.046875 -180.765625 C 20.921875 -186.003906 23.351562 -190.117188 26.34375 -193.109375 C 29.332031 -196.097656 32.832031 -198.570312 36.84375 -200.53125 C 40.863281 -202.488281 44.789062 -203.75 48.625 -204.3125 C 52.457031 -204.875 56.519531 -205.15625 60.8125 -205.15625 C 109.019531 -203.84375 139.101562 -202.347656 151.0625 -200.671875 L 151.0625 -168.15625 L 70.0625 -168.15625 C 66.507812 -168.15625 63.707031 -167.78125 61.65625 -167.03125 C 59.601562 -166.289062 58.15625 -164.984375 57.3125 -163.109375 C 56.46875 -161.242188 55.953125 -159.65625 55.765625 -158.34375 C 55.585938 -157.039062 55.5 -155.082031 55.5 -152.46875 L 55.5 -120.515625 L 138.453125 -117.71875 L 138.453125 -85.203125 L 55.5 -82.671875 L 55.5 -50.734375 C 55.5 -47.179688 55.960938 -44.328125 56.890625 -42.171875 C 57.828125 -40.023438 59.320312 -38.53125 61.375 -37.6875 C 63.4375 -36.851562 65.164062 -36.390625 66.5625 -36.296875 C 67.96875 -36.203125 70.070312 -36.15625 72.875 -36.15625 L 151.0625 -36.15625 L 151.0625 -3.921875 C 146.394531 -3.359375 136.769531 -2.65625 122.1875 -1.8125 C 107.613281 -0.976562 94.164062 -0.375 81.84375 0 L 63.625 0.84375 C 59.320312 1.03125 55.300781 0.9375 51.5625 0.5625 C 47.832031 0.1875 43.722656 -0.835938 39.234375 -2.515625 C 34.753906 -4.203125 30.878906 -6.445312 27.609375 -9.25 C 24.335938 -12.050781 21.625 -16.113281 19.46875 -21.4375 C 17.320312 -26.757812 16.25 -33.066406 16.25 -40.359375 Z M 16.25 -40.359375 "/></g></g><g style="fill:#ffffff;fill-opacity:1;"><g transform="translate(412.827534, 477.55803)"><path style="stroke:none" d="M 13.734375 -136.203125 L 13.734375 -153.859375 C 13.734375 -161.710938 14.664062 -168.722656 16.53125 -174.890625 C 18.40625 -181.054688 20.925781 -186.097656 24.09375 -190.015625 C 27.269531 -193.941406 31.238281 -197.164062 36 -199.6875 C 40.769531 -202.207031 45.816406 -203.984375 51.140625 -205.015625 C 56.472656 -206.046875 62.5 -206.65625 69.21875 -206.84375 C 83.425781 -207.207031 98.09375 -206.550781 113.21875 -204.875 C 128.351562 -203.195312 140.128906 -201.140625 148.546875 -198.703125 L 148.546875 -167.875 C 127.242188 -169.75 104.351562 -170.6875 79.875 -170.6875 C 69.96875 -170.875 63.003906 -169.796875 58.984375 -167.453125 C 54.972656 -165.117188 52.96875 -159.5625 52.96875 -150.78125 L 52.96875 -140.6875 C 52.96875 -132.84375 54.554688 -127.613281 57.734375 -125 C 60.910156 -122.382812 66.609375 -121.078125 74.828125 -121.078125 L 107.34375 -121.078125 C 112.195312 -121.078125 116.722656 -120.609375 120.921875 -119.671875 C 125.128906 -118.734375 128.773438 -117.425781 131.859375 -115.75 C 134.941406 -114.070312 137.742188 -112.109375 140.265625 -109.859375 C 142.796875 -107.617188 144.945312 -105.097656 146.71875 -102.296875 C 148.488281 -99.492188 149.984375 -96.644531 151.203125 -93.75 C 152.421875 -90.851562 153.351562 -87.816406 154 -84.640625 C 154.65625 -81.460938 155.125 -78.425781 155.40625 -75.53125 C 155.6875 -72.632812 155.828125 -69.691406 155.828125 -66.703125 L 155.828125 -52.96875 C 155.828125 -44 154.703125 -36.148438 152.453125 -29.421875 C 150.210938 -22.703125 147.363281 -17.378906 143.90625 -13.453125 C 140.457031 -9.523438 136.160156 -6.347656 131.015625 -3.921875 C 125.878906 -1.492188 120.789062 0.132812 115.75 0.96875 C 110.707031 1.8125 105.195312 2.234375 99.21875 2.234375 C 65.394531 2.234375 38.953125 -0.566406 19.890625 -6.171875 L 19.890625 -37 C 40.453125 -34.9375 64.273438 -33.90625 91.359375 -33.90625 C 94.910156 -33.90625 97.945312 -34.09375 100.46875 -34.46875 C 102.988281 -34.84375 105.601562 -35.585938 108.3125 -36.703125 C 111.03125 -37.828125 113.085938 -39.648438 114.484375 -42.171875 C 115.890625 -44.703125 116.59375 -47.832031 116.59375 -51.5625 L 116.59375 -62.5 C 116.59375 -69.039062 115.28125 -73.898438 112.65625 -77.078125 C 110.039062 -80.253906 105.1875 -81.84375 98.09375 -81.84375 L 66.703125 -81.84375 C 31.390625 -82.03125 13.734375 -100.148438 13.734375 -136.203125 Z M 13.734375 -136.203125 "/></g></g><g style="fill:#ffffff;fill-opacity:1;"><g transform="translate(585.187445, 477.55803)"><path style="stroke:none" d="M 16.8125 0 L 16.8125 -205.15625 L 101.171875 -205.15625 C 133.867188 -205.15625 150.21875 -185.347656 150.21875 -145.734375 C 150.21875 -134.523438 149.144531 -124.898438 147 -116.859375 C 144.851562 -108.828125 142.238281 -102.707031 139.15625 -98.5 C 136.070312 -94.300781 132.097656 -91.035156 127.234375 -88.703125 C 122.378906 -86.367188 118.082031 -84.921875 114.34375 -84.359375 C 110.613281 -83.796875 106.222656 -83.515625 101.171875 -83.515625 C 95.753906 -83.515625 83.984375 -84.351562 65.859375 -86.03125 C 47.734375 -87.71875 38.300781 -88.75 37.5625 -89.125 L 37.5625 0 Z M 37.5625 -104.265625 L 101.171875 -104.265625 C 110.140625 -104.265625 117.050781 -106.972656 121.90625 -112.390625 C 126.769531 -117.804688 129.203125 -128.921875 129.203125 -145.734375 C 129.015625 -154.328125 127.984375 -161.425781 126.109375 -167.03125 C 124.242188 -172.644531 121.675781 -176.570312 118.40625 -178.8125 C 115.132812 -181.050781 112.285156 -182.5 109.859375 -183.15625 C 107.429688 -183.8125 104.535156 -184.140625 101.171875 -184.140625 L 37.5625 -184.140625 Z M 37.5625 -104.265625 "/></g></g><g style="fill:#ffffff;fill-opacity:1;"><g transform="translate(755.024843, 477.55803)"><path style="stroke:none" d="M 22.421875 0 L 22.421875 -205.15625 L 43.15625 -205.15625 L 43.15625 0 Z M 22.421875 0 "/></g></g><g style="fill:#ffffff;fill-opacity:1;"><g transform="translate(822.007058, 477.55803)"><path style="stroke:none" d="M 22.421875 0 L 22.421875 -205.15625 L 43.71875 -205.15625 L 153.03125 -38.671875 L 153.03125 -205.15625 L 173.765625 -205.15625 L 173.765625 0 L 153.03125 0 L 43.4375 -166.484375 L 43.4375 0 Z M 22.421875 0 "/></g></g><g clip-rule="nonzero" clip-path="url(#60a1a8ac62)"><path style=" stroke:none;fill-rule:nonzero;fill:#102b57;fill-opacity:1;" d="M 1040.101562 341.308594 C 1043.035156 342.117188 1045.957031 342.113281 1048.882812 341.28125 C 1050.023438 340.957031 1051.085938 340.734375 1052.085938 340.613281 C 1054.386719 340.328125 1056.375 341.308594 1058.648438 339.691406 C 1062.019531 337.289062 1065 332.726562 1067.273438 329.242188 C 1068.90625 326.730469 1068.59375 324.121094 1068.152344 320.761719 C 1067.976562 319.375 1067.632812 317.660156 1067.128906 315.613281 C 1066.988281 315.042969 1067.222656 314.441406 1067.726562 314.117188 C 1070.492188 312.351562 1073.359375 310.765625 1076.320312 309.371094 C 1081.632812 306.875 1087.699219 304.222656 1094.523438 301.421875 C 1102.957031 297.957031 1111.945312 295.273438 1121.503906 293.367188 C 1122.355469 293.195312 1123.0625 293.277344 1123.613281 293.628906 C 1126.855469 295.660156 1130.027344 297.972656 1133.125 300.585938 C 1139.175781 305.683594 1144.710938 311.148438 1149.726562 316.984375 C 1151.59375 319.15625 1153.28125 321.328125 1154.777344 323.488281 C 1157.671875 327.667969 1160.207031 331.714844 1160.625 336.550781 C 1160.644531 336.796875 1160.917969 336.9375 1161.136719 336.8125 C 1162.144531 336.210938 1163.09375 335.53125 1163.976562 334.757812 C 1168.824219 330.554688 1172.082031 325.535156 1173.738281 319.699219 C 1174.628906 316.550781 1175.082031 312.609375 1175.082031 307.875 C 1175.082031 301.546875 1174.617188 295.082031 1173.433594 288.691406 C 1173 286.347656 1172.621094 283.953125 1172.304688 281.503906 C 1172.214844 280.824219 1171.820312 280.21875 1171.226562 279.855469 C 1166.976562 277.28125 1162.664062 275.089844 1158.292969 273.289062 C 1152.269531 270.804688 1146.40625 268.847656 1140.722656 267.40625 C 1133.792969 265.675781 1128.097656 264.535156 1121.285156 264.6875 C 1117.316406 264.777344 1113.980469 265.246094 1111.277344 266.109375 C 1103.914062 268.433594 1096.90625 271.578125 1090.234375 275.535156 C 1082.183594 280.320312 1075.703125 284.46875 1070.785156 287.976562 C 1060.554688 295.292969 1050.347656 304.148438 1040.152344 314.550781 C 1037.109375 317.660156 1034.898438 320.902344 1033.535156 324.285156 C 1030.738281 331.210938 1032.042969 339.074219 1040.101562 341.300781 Z M 1040.101562 341.308594 "/></g><g clip-rule="nonzero" clip-path="url(#5953e9f24d)"><path style=" stroke:none;fill-rule:nonzero;fill:#102b57;fill-opacity:1;" d="M 1356.089844 313.664062 C 1353.59375 311.5 1351.335938 310.984375 1348.089844 311.179688 C 1345.425781 311.347656 1343.273438 312.164062 1341.621094 313.632812 C 1340.183594 314.921875 1339.117188 316.316406 1337.128906 316.792969 C 1334.078125 317.511719 1331.320312 319.914062 1329.554688 322.335938 C 1326.027344 327.183594 1327.523438 333.695312 1330.25 338.660156 C 1331.460938 340.851562 1332.523438 342.84375 1333.453125 344.632812 C 1334.246094 346.15625 1334.1875 347.640625 1333.277344 349.09375 C 1331.472656 351.953125 1329.445312 354.546875 1327.179688 356.867188 C 1323.609375 360.515625 1317.660156 366.199219 1309.347656 373.902344 C 1306.570312 376.46875 1302.585938 379.914062 1297.394531 384.230469 C 1295.375 385.910156 1293.0625 387.355469 1291.222656 389.191406 C 1291.09375 389.320312 1290.882812 389.3125 1290.761719 389.171875 L 1285.15625 382.515625 L 1274.160156 370.035156 C 1264.507812 359.304688 1255.507812 350.636719 1245.695312 340.886719 C 1245 340.199219 1244.308594 339.429688 1243.605469 338.582031 C 1243.492188 338.441406 1243.535156 338.230469 1243.695312 338.140625 C 1245.050781 337.441406 1246.421875 336.695312 1247.8125 335.898438 C 1248.851562 335.300781 1249.863281 335.292969 1250.855469 335.875 C 1255.308594 338.480469 1257.609375 340.015625 1261.222656 341.378906 C 1266.273438 343.277344 1272.523438 342.46875 1275.210938 337.136719 C 1276.714844 334.160156 1278.027344 331.574219 1279.136719 329.375 C 1279.679688 328.292969 1280.175781 326.554688 1280.621094 324.152344 C 1280.835938 323 1281.238281 322.019531 1282.507812 322.140625 C 1283.832031 322.265625 1284.980469 322.253906 1285.933594 322.089844 C 1286.34375 322.019531 1286.859375 321.71875 1287.488281 321.183594 C 1288.578125 318.730469 1288.636719 316.132812 1287.667969 313.371094 C 1287.1875 312.007812 1286.6875 310.773438 1286.164062 309.671875 C 1285.703125 308.703125 1285.566406 307.472656 1285.769531 306.671875 C 1287.609375 299.492188 1287.0625 292.839844 1284.132812 286.71875 C 1278.269531 274.480469 1264.089844 267.902344 1250.84375 269.886719 C 1239.222656 271.625 1230.769531 278.957031 1228.597656 290.851562 C 1228.132812 293.382812 1227.941406 295.679688 1228 297.757812 C 1228.15625 301.039062 1228.671875 304.308594 1229.546875 307.550781 C 1229.699219 308.125 1229.40625 308.714844 1228.851562 308.933594 L 1220.453125 312.226562 C 1219.894531 312.441406 1219.265625 312.410156 1218.742188 312.125 C 1217.953125 311.695312 1217.25 311.25 1216.640625 310.765625 C 1213.914062 308.632812 1209.65625 305.136719 1203.867188 300.28125 C 1200.246094 297.25 1193.996094 292.546875 1185.101562 286.1875 C 1184.746094 285.933594 1184.378906 285.8125 1184 285.839844 C 1183.765625 285.851562 1183.605469 286.078125 1183.65625 286.304688 C 1186.601562 298.675781 1187.773438 312.277344 1183.996094 324.367188 C 1180.617188 335.207031 1173.113281 344.296875 1162.691406 348.828125 C 1161.835938 349.195312 1160.027344 349.882812 1157.25 350.890625 C 1147.28125 354.382812 1137.742188 358.828125 1128.644531 364.21875 C 1127.363281 364.976562 1126.089844 365.792969 1124.816406 366.65625 C 1123.738281 367.296875 1122.667969 367.996094 1121.605469 368.765625 C 1112.113281 375.6875 1102.742188 384.472656 1097.128906 394.339844 C 1095.503906 397.195312 1093.027344 401.09375 1094.695312 403.617188 C 1095.171875 404.328125 1096.582031 404.011719 1097.207031 403.742188 C 1103.460938 401.042969 1109.742188 398.816406 1116.054688 397.058594 C 1126.066406 394.269531 1134.386719 392.3125 1144.222656 390.9375 C 1155.976562 389.300781 1168.074219 389.242188 1180.523438 390.765625 C 1185.734375 391.402344 1192.320312 392.5 1200.292969 394.050781 C 1200.964844 394.179688 1202.558594 394.441406 1205.070312 394.824219 C 1206.191406 394.988281 1206.988281 394.886719 1207.464844 394.519531 C 1209.789062 392.707031 1212.3125 391.34375 1215.035156 390.441406 C 1219.023438 389.117188 1221.441406 388.34375 1222.289062 388.128906 C 1223.386719 387.847656 1224.285156 387.839844 1224.996094 388.109375 C 1226.800781 388.785156 1228.597656 389.734375 1230.386719 390.949219 C 1233.574219 393.121094 1236.726562 395.296875 1239.835938 397.46875 C 1254.164062 407.839844 1263.457031 414.695312 1275.453125 422.328125 C 1277.632812 423.707031 1279.984375 425.066406 1282.507812 426.382812 C 1286.035156 428.230469 1289.847656 429.007812 1293.714844 427.976562 C 1298.097656 426.8125 1302.015625 424.15625 1305.472656 421.269531 C 1309.027344 418.300781 1312.265625 415.371094 1315.175781 412.464844 C 1323.695312 403.972656 1331.140625 394.632812 1337.519531 384.433594 C 1341.914062 377.085938 1345.792969 369.472656 1349.160156 361.582031 C 1350.738281 357.871094 1352.898438 354.71875 1355.636719 352.113281 C 1357.066406 350.75 1358.148438 349.738281 1358.886719 349.066406 C 1362.085938 346.144531 1364.480469 342.601562 1365.691406 338.625 C 1368.925781 327.972656 1363.753906 320.304688 1356.070312 313.660156 Z M 1356.089844 313.664062 "/></g><g clip-rule="nonzero" clip-path="url(#190f68f147)"><path style=" stroke:none;fill-rule:nonzero;fill:#102b57;fill-opacity:1;" d="M 1244.472656 424.65625 C 1235.96875 417.300781 1225.71875 412.507812 1214.847656 408.914062 C 1193.539062 401.875 1171.902344 399.390625 1149.929688 401.476562 C 1143.3125 402.097656 1136.359375 403.277344 1129.097656 405.023438 C 1121.839844 406.761719 1115.0625 408.71875 1108.769531 410.882812 C 1104.957031 412.195312 1100.671875 414.292969 1095.898438 417.179688 C 1093.335938 418.71875 1090.835938 420.601562 1088.386719 422.804688 C 1084.839844 426.003906 1081.429688 429.417969 1078.175781 433.042969 C 1070.320312 442.535156 1061.96875 451.613281 1053.105469 460.269531 C 1048.085938 465.183594 1044.332031 469.402344 1040.027344 474.101562 C 1038.996094 475.222656 1037.269531 477.375 1037.554688 478.84375 C 1037.636719 479.273438 1037.980469 479.605469 1038.414062 479.671875 C 1039.5 479.835938 1040.574219 479.753906 1041.636719 479.421875 C 1050.347656 476.71875 1059.464844 473.613281 1068.019531 471.40625 C 1077.046875 469.089844 1081.609375 467.921875 1081.6875 467.902344 C 1099.945312 463.46875 1118.070312 460.246094 1137.308594 458.488281 C 1138.355469 458.410156 1139.375 458.347656 1140.378906 458.277344 L 1174.910156 472.285156 C 1174.597656 472.675781 1174.277344 473.0625 1173.96875 473.457031 C 1167.84375 481.1875 1163.175781 487.003906 1159.957031 490.894531 C 1157.894531 493.386719 1155.917969 495.527344 1153.675781 497.820312 C 1152.113281 499.414062 1150.324219 500.648438 1148.300781 501.523438 C 1146.222656 501.777344 1143.78125 501.796875 1142.0625 502.027344 C 1137.425781 502.664062 1132.714844 503.75 1127.9375 505.300781 C 1123.648438 506.683594 1121.699219 509.261719 1120.664062 513.332031 C 1120.273438 514.855469 1120.023438 516.007812 1119.9375 516.785156 C 1119.546875 520.113281 1118.625 525.660156 1117.164062 533.433594 C 1116.453125 537.230469 1115.621094 543.089844 1114.671875 551.003906 C 1113.65625 559.527344 1114.132812 570.472656 1120.96875 576.832031 C 1121.71875 577.527344 1122.804688 577.804688 1124.222656 577.660156 C 1127.191406 577.355469 1130.605469 571.917969 1131.746094 569.523438 C 1132.84375 567.210938 1135.097656 562.667969 1138.519531 555.898438 C 1140.578125 551.820312 1143.226562 548.144531 1146.484375 544.863281 C 1146.757812 544.589844 1147.898438 543.539062 1149.898438 541.703125 C 1156.671875 535.523438 1163.488281 529.457031 1170.375 523.496094 C 1178.273438 517.316406 1186.207031 511.226562 1194.164062 505.222656 C 1200.132812 500.71875 1206.75 495.03125 1214.019531 488.15625 C 1221.761719 480.828125 1228.964844 473.03125 1235.628906 464.75 C 1238.25 461.496094 1240.726562 458.085938 1243.070312 454.519531 C 1246.242188 449.695312 1248.925781 444.261719 1249.863281 438.507812 C 1250.53125 434.410156 1250.085938 431.527344 1247.714844 428.246094 C 1246.691406 426.832031 1245.613281 425.640625 1244.480469 424.664062 Z M 1244.472656 424.65625 "/></g><g clip-rule="nonzero" clip-path="url(#474eabdbe2)"><path style=" stroke:none;fill-rule:nonzero;fill:#102b57;fill-opacity:1;" d="M 1124.96875 470.039062 C 1125.019531 469.910156 1124.945312 469.777344 1124.808594 469.769531 C 1124.382812 469.75 1124.082031 469.769531 1123.925781 469.816406 C 1122.617188 470.195312 1119.484375 470.832031 1114.519531 471.730469 C 1108.863281 472.75 1099.554688 474.726562 1086.605469 477.644531 C 1082.347656 478.605469 1077.710938 479.773438 1072.691406 481.15625 C 1064.484375 483.417969 1054.207031 485.863281 1045.207031 488.863281 C 1037.171875 491.53125 1029.132812 494.121094 1021.066406 496.609375 C 1017.523438 497.558594 1012.523438 498.726562 1006.070312 500.113281 C 1003.160156 500.738281 998.777344 501.820312 992.921875 503.363281 C 980.433594 506.652344 969 511.089844 956.382812 516.269531 C 953.238281 517.5625 949.511719 519.183594 945.214844 521.136719 C 939.808594 523.589844 936.074219 525.207031 934.027344 525.984375 C 928.539062 528.074219 924.179688 529.566406 919.082031 529.988281 C 917.285156 530.128906 916.183594 529.503906 915.183594 527.898438 C 913.382812 525.003906 910.914062 521.328125 907.5 520.488281 C 905.640625 520.023438 903.648438 519.742188 901.519531 519.640625 C 897.554688 519.441406 894.351562 521.566406 891.574219 523.914062 C 888.183594 526.777344 884.917969 529.40625 881.789062 531.808594 C 876.316406 536 871.835938 539.8125 867.472656 543.886719 C 865.585938 545.652344 862.898438 548.539062 859.40625 552.550781 C 854.832031 557.816406 851.316406 563.046875 848.84375 568.25 C 847.820312 570.410156 847.246094 573.933594 850.257812 574.613281 C 851.640625 574.925781 853.316406 574.792969 855.273438 574.195312 C 861.941406 572.167969 868.5 569.792969 875.539062 566.742188 C 883.730469 563.199219 889.234375 560.90625 892.050781 559.871094 C 897.703125 557.800781 903.527344 556.695312 909.519531 556.558594 C 917.078125 556.386719 924.988281 556.144531 933.257812 555.832031 C 941.828125 555.515625 948.835938 555.042969 954.308594 554.433594 C 961.660156 553.605469 968.621094 552.601562 975.199219 551.425781 C 1003.09375 546.410156 1029.453125 537.058594 1054.265625 523.375 C 1062.890625 518.679688 1070.222656 514.257812 1076.257812 510.121094 C 1085.398438 503.855469 1094.734375 496.609375 1104.269531 488.398438 C 1110.203125 483.296875 1117.363281 476.597656 1124.28125 470.949219 C 1124.574219 470.707031 1124.804688 470.40625 1124.96875 470.042969 Z M 1124.96875 470.039062 "/></g></g></svg>