<svg xmlns="http://www.w3.org/2000/svg" xmlns:xlink="http://www.w3.org/1999/xlink" width="1920" zoomAndPan="magnify" viewBox="0 0 1440 809.999993" height="1080" preserveAspectRatio="xMidYMid meet" version="1.2"><defs><clipPath id="9d392614c6"><path d="M 1039 271.90625 L 1177 271.90625 L 1177 346 L 1039 346 Z M 1039 271.90625 "/></clipPath><clipPath id="128664e670"><path d="M 1099 276 L 1358.738281 276 L 1358.738281 429 L 1099 429 Z M 1099 276 "/></clipPath><clipPath id="23fb319e84"><path d="M 1045 401 L 1248 401 L 1248 570.40625 L 1045 570.40625 Z M 1045 401 "/></clipPath><clipPath id="49aa90ead4"><path d="M 864.488281 467 L 1129 467 L 1129 568 L 864.488281 568 Z M 864.488281 467 "/></clipPath></defs><g id="bee72eb649"><g style="fill:#102b57;fill-opacity:1;"><g transform="translate(81.000002, 476.231169)"><path style="stroke:none" d="M 16.15625 0 L 16.15625 -160.9375 C 16.15625 -168.914062 17.453125 -175.828125 20.046875 -181.671875 C 22.648438 -187.523438 26.128906 -192.03125 30.484375 -195.1875 C 34.847656 -198.34375 39.488281 -200.613281 44.40625 -202 C 49.332031 -203.394531 54.671875 -204 60.421875 -203.8125 C 108.316406 -202.519531 138.203125 -201.035156 150.078125 -199.359375 L 150.078125 -167.0625 L 69.609375 -167.0625 C 66.078125 -167.0625 63.289062 -166.6875 61.25 -165.9375 C 59.207031 -165.195312 57.769531 -163.898438 56.9375 -162.046875 C 56.101562 -160.191406 55.59375 -158.613281 55.40625 -157.3125 C 55.21875 -156.019531 55.125 -154.070312 55.125 -151.46875 L 55.125 -119.734375 L 137.546875 -116.9375 L 137.546875 -84.640625 L 55.125 -82.140625 L 55.125 0 Z M 16.15625 0 "/></g></g><g style="fill:#102b57;fill-opacity:1;"><g transform="translate(245.823882, 476.231169)"><path style="stroke:none" d="M 16.15625 -40.09375 L 16.15625 -161.5 C 16.15625 -168.363281 17.082031 -174.394531 18.9375 -179.59375 C 20.789062 -184.789062 23.203125 -188.875 26.171875 -191.84375 C 29.140625 -194.8125 32.617188 -197.269531 36.609375 -199.21875 C 40.597656 -201.164062 44.492188 -202.414062 48.296875 -202.96875 C 52.109375 -203.53125 56.148438 -203.8125 60.421875 -203.8125 C 108.316406 -202.519531 138.203125 -201.035156 150.078125 -199.359375 L 150.078125 -167.0625 L 69.609375 -167.0625 C 66.078125 -167.0625 63.289062 -166.6875 61.25 -165.9375 C 59.207031 -165.195312 57.769531 -163.898438 56.9375 -162.046875 C 56.101562 -160.191406 55.59375 -158.613281 55.40625 -157.3125 C 55.21875 -156.019531 55.125 -154.070312 55.125 -151.46875 L 55.125 -119.734375 L 137.546875 -116.9375 L 137.546875 -84.640625 L 55.125 -82.140625 L 55.125 -50.390625 C 55.125 -46.867188 55.585938 -44.039062 56.515625 -41.90625 C 57.453125 -39.769531 58.941406 -38.285156 60.984375 -37.453125 C 63.023438 -36.617188 64.738281 -36.15625 66.125 -36.0625 C 67.519531 -35.96875 69.609375 -35.921875 72.390625 -35.921875 L 150.078125 -35.921875 L 150.078125 -3.890625 C 145.429688 -3.335938 135.867188 -2.644531 121.390625 -1.8125 C 106.921875 -0.976562 93.554688 -0.375 81.296875 0 L 63.203125 0.828125 C 58.929688 1.015625 54.9375 0.921875 51.21875 0.546875 C 47.507812 0.179688 43.425781 -0.832031 38.96875 -2.5 C 34.519531 -4.175781 30.671875 -6.40625 27.421875 -9.1875 C 24.171875 -11.96875 21.476562 -16.003906 19.34375 -21.296875 C 17.21875 -26.585938 16.15625 -32.851562 16.15625 -40.09375 Z M 16.15625 -40.09375 "/></g></g><g style="fill:#102b57;fill-opacity:1;"><g transform="translate(410.647762, 476.231169)"><path style="stroke:none" d="M 13.640625 -135.328125 L 13.640625 -152.859375 C 13.640625 -160.660156 14.566406 -167.625 16.421875 -173.75 C 18.273438 -179.875 20.78125 -184.882812 23.9375 -188.78125 C 27.09375 -192.675781 31.035156 -195.875 35.765625 -198.375 C 40.503906 -200.882812 45.519531 -202.648438 50.8125 -203.671875 C 56.101562 -204.691406 62.085938 -205.296875 68.765625 -205.484375 C 82.878906 -205.859375 97.453125 -205.207031 112.484375 -203.53125 C 127.523438 -201.863281 139.21875 -199.820312 147.5625 -197.40625 L 147.5625 -166.78125 C 126.40625 -168.632812 103.671875 -169.5625 79.359375 -169.5625 C 69.515625 -169.75 62.597656 -168.679688 58.609375 -166.359375 C 54.617188 -164.046875 52.625 -158.523438 52.625 -149.796875 L 52.625 -139.78125 C 52.625 -131.976562 54.203125 -126.773438 57.359375 -124.171875 C 60.515625 -121.578125 66.175781 -120.28125 74.34375 -120.28125 L 106.640625 -120.28125 C 111.460938 -120.28125 115.960938 -119.816406 120.140625 -118.890625 C 124.316406 -117.960938 127.9375 -116.660156 131 -114.984375 C 134.0625 -113.316406 136.84375 -111.367188 139.34375 -109.140625 C 141.851562 -106.921875 143.988281 -104.414062 145.75 -101.625 C 147.519531 -98.84375 149.007812 -96.015625 150.21875 -93.140625 C 151.425781 -90.265625 152.351562 -87.25 153 -84.09375 C 153.644531 -80.9375 154.109375 -77.914062 154.390625 -75.03125 C 154.671875 -72.15625 154.8125 -69.234375 154.8125 -66.265625 L 154.8125 -52.625 C 154.8125 -43.71875 153.695312 -35.921875 151.46875 -29.234375 C 149.238281 -22.554688 146.40625 -17.265625 142.96875 -13.359375 C 139.539062 -9.460938 135.273438 -6.304688 130.171875 -3.890625 C 125.066406 -1.484375 120.003906 0.132812 114.984375 0.96875 C 109.972656 1.8125 104.5 2.234375 98.5625 2.234375 C 64.96875 2.234375 38.703125 -0.550781 19.765625 -6.125 L 19.765625 -36.75 C 40.179688 -34.707031 63.847656 -33.6875 90.765625 -33.6875 C 94.296875 -33.6875 97.3125 -33.875 99.8125 -34.25 C 102.320312 -34.625 104.921875 -35.363281 107.609375 -36.46875 C 110.304688 -37.582031 112.347656 -39.390625 113.734375 -41.890625 C 115.128906 -44.398438 115.828125 -47.515625 115.828125 -51.234375 L 115.828125 -62.09375 C 115.828125 -68.59375 114.523438 -73.414062 111.921875 -76.5625 C 109.328125 -79.71875 104.503906 -81.296875 97.453125 -81.296875 L 66.265625 -81.296875 C 31.179688 -81.484375 13.640625 -99.492188 13.640625 -135.328125 Z M 13.640625 -135.328125 "/></g></g><g style="fill:#102b57;fill-opacity:1;"><g transform="translate(581.909061, 476.231169)"><path style="stroke:none" d="M 16.703125 0 L 16.703125 -203.8125 L 100.515625 -203.8125 C 133.003906 -203.8125 149.25 -184.132812 149.25 -144.78125 C 149.25 -133.644531 148.179688 -124.085938 146.046875 -116.109375 C 143.910156 -108.128906 141.3125 -102.050781 138.25 -97.875 C 135.1875 -93.695312 131.238281 -90.445312 126.40625 -88.125 C 121.582031 -85.800781 117.3125 -84.359375 113.59375 -83.796875 C 109.882812 -83.242188 105.523438 -82.96875 100.515625 -82.96875 C 95.128906 -82.96875 83.429688 -83.800781 65.421875 -85.46875 C 47.421875 -87.144531 38.050781 -88.171875 37.3125 -88.546875 L 37.3125 0 Z M 37.3125 -103.578125 L 100.515625 -103.578125 C 109.421875 -103.578125 116.285156 -106.269531 121.109375 -111.65625 C 125.941406 -117.039062 128.359375 -128.082031 128.359375 -144.78125 C 128.171875 -153.320312 127.148438 -160.375 125.296875 -165.9375 C 123.441406 -171.507812 120.890625 -175.410156 117.640625 -177.640625 C 114.390625 -179.867188 111.554688 -181.304688 109.140625 -181.953125 C 106.734375 -182.609375 103.859375 -182.9375 100.515625 -182.9375 L 37.3125 -182.9375 Z M 37.3125 -103.578125 "/></g></g><g style="fill:#102b57;fill-opacity:1;"><g transform="translate(750.630654, 476.231169)"><path style="stroke:none" d="M 22.28125 0 L 22.28125 -203.8125 L 42.875 -203.8125 L 42.875 0 Z M 22.28125 0 "/></g></g><g style="fill:#102b57;fill-opacity:1;"><g transform="translate(817.174152, 476.231169)"><path style="stroke:none" d="M 22.28125 0 L 22.28125 -203.8125 L 43.4375 -203.8125 L 152.03125 -38.421875 L 152.03125 -203.8125 L 172.625 -203.8125 L 172.625 0 L 152.03125 0 L 43.15625 -165.390625 L 43.15625 0 Z M 22.28125 0 "/></g></g><g clip-rule="nonzero" clip-path="url(#9d392614c6)"><path style=" stroke:none;fill-rule:nonzero;fill:#53b430;fill-opacity:1;" d="M 1047.53125 344.992188 C 1050.324219 345.765625 1053.109375 345.757812 1055.898438 344.96875 C 1056.984375 344.660156 1057.996094 344.449219 1058.949219 344.332031 C 1061.140625 344.058594 1063.035156 344.992188 1065.203125 343.453125 C 1068.414062 341.164062 1071.257812 336.816406 1073.421875 333.496094 C 1074.976562 331.105469 1074.679688 328.613281 1074.261719 325.414062 C 1074.089844 324.09375 1073.761719 322.457031 1073.285156 320.511719 C 1073.148438 319.964844 1073.375 319.394531 1073.855469 319.082031 C 1076.488281 317.402344 1079.222656 315.890625 1082.042969 314.5625 C 1087.105469 312.179688 1092.886719 309.65625 1099.386719 306.984375 C 1107.425781 303.679688 1115.992188 301.125 1125.097656 299.308594 C 1125.914062 299.148438 1126.585938 299.226562 1127.109375 299.558594 C 1130.199219 301.496094 1133.222656 303.699219 1136.171875 306.1875 C 1141.9375 311.046875 1147.214844 316.253906 1151.992188 321.816406 C 1153.773438 323.886719 1155.378906 325.957031 1156.808594 328.015625 C 1159.5625 331.996094 1161.980469 335.851562 1162.378906 340.460938 C 1162.398438 340.695312 1162.660156 340.828125 1162.867188 340.707031 C 1163.824219 340.136719 1164.730469 339.488281 1165.574219 338.753906 C 1170.191406 334.746094 1173.296875 329.960938 1174.875 324.402344 C 1175.722656 321.402344 1176.15625 317.644531 1176.15625 313.132812 C 1176.15625 307.105469 1175.710938 300.945312 1174.582031 294.855469 C 1174.167969 292.621094 1173.8125 290.335938 1173.507812 288.007812 C 1173.421875 287.355469 1173.046875 286.78125 1172.480469 286.433594 C 1168.433594 283.980469 1164.324219 281.894531 1160.15625 280.175781 C 1154.414062 277.808594 1148.828125 275.945312 1143.414062 274.570312 C 1136.808594 272.921875 1131.382812 271.832031 1124.890625 271.980469 C 1121.109375 272.0625 1117.929688 272.511719 1115.355469 273.332031 C 1108.335938 275.550781 1101.660156 278.546875 1095.304688 282.316406 C 1087.628906 286.878906 1081.453125 290.828125 1076.769531 294.175781 C 1067.019531 301.144531 1057.292969 309.582031 1047.578125 319.496094 C 1044.675781 322.457031 1042.570312 325.550781 1041.273438 328.773438 C 1038.605469 335.371094 1039.851562 342.863281 1047.53125 344.988281 Z M 1047.53125 344.992188 "/></g><g clip-rule="nonzero" clip-path="url(#128664e670)"><path style=" stroke:none;fill-rule:nonzero;fill:#53b430;fill-opacity:1;" d="M 1348.640625 318.652344 C 1346.261719 316.589844 1344.113281 316.097656 1341.015625 316.285156 C 1338.480469 316.441406 1336.425781 317.21875 1334.855469 318.621094 C 1333.480469 319.847656 1332.46875 321.179688 1330.574219 321.632812 C 1327.667969 322.320312 1325.039062 324.609375 1323.355469 326.914062 C 1319.992188 331.535156 1321.417969 337.738281 1324.019531 342.46875 C 1325.171875 344.558594 1326.183594 346.457031 1327.070312 348.164062 C 1327.824219 349.613281 1327.769531 351.027344 1326.902344 352.414062 C 1325.183594 355.136719 1323.253906 357.609375 1321.089844 359.820312 C 1317.691406 363.296875 1312.023438 368.714844 1304.097656 376.050781 C 1301.453125 378.5 1297.65625 381.785156 1292.710938 385.894531 C 1290.785156 387.496094 1288.582031 388.875 1286.828125 390.621094 C 1286.707031 390.746094 1286.503906 390.738281 1286.390625 390.605469 L 1281.046875 384.261719 L 1270.570312 372.367188 C 1261.371094 362.144531 1252.792969 353.882812 1243.445312 344.59375 C 1242.78125 343.9375 1242.121094 343.203125 1241.453125 342.394531 C 1241.34375 342.261719 1241.386719 342.0625 1241.539062 341.976562 C 1242.832031 341.308594 1244.136719 340.597656 1245.460938 339.839844 C 1246.449219 339.269531 1247.414062 339.261719 1248.363281 339.816406 C 1252.605469 342.296875 1254.796875 343.761719 1258.238281 345.0625 C 1263.054688 346.871094 1269.007812 346.097656 1271.570312 341.019531 C 1273.003906 338.183594 1274.253906 335.71875 1275.3125 333.625 C 1275.828125 332.589844 1276.300781 330.933594 1276.726562 328.644531 C 1276.933594 327.546875 1277.3125 326.613281 1278.523438 326.726562 C 1279.785156 326.847656 1280.878906 326.835938 1281.789062 326.679688 C 1282.175781 326.613281 1282.667969 326.324219 1283.269531 325.816406 C 1284.308594 323.480469 1284.363281 321 1283.441406 318.375 C 1282.984375 317.074219 1282.503906 315.894531 1282.007812 314.847656 C 1281.570312 313.921875 1281.4375 312.75 1281.632812 311.988281 C 1283.386719 305.144531 1282.863281 298.808594 1280.070312 292.972656 C 1274.484375 281.308594 1260.972656 275.046875 1248.351562 276.933594 C 1237.277344 278.589844 1229.222656 285.578125 1227.152344 296.914062 C 1226.707031 299.324219 1226.523438 301.515625 1226.578125 303.492188 C 1226.730469 306.621094 1227.222656 309.734375 1228.054688 312.824219 C 1228.199219 313.371094 1227.921875 313.933594 1227.394531 314.140625 L 1219.390625 317.28125 C 1218.859375 317.488281 1218.257812 317.457031 1217.757812 317.183594 C 1217.007812 316.777344 1216.339844 316.351562 1215.753906 315.890625 C 1213.15625 313.855469 1209.101562 310.523438 1203.582031 305.898438 C 1200.136719 303.007812 1194.179688 298.527344 1185.703125 292.46875 C 1185.363281 292.226562 1185.011719 292.109375 1184.65625 292.132812 C 1184.429688 292.148438 1184.277344 292.367188 1184.328125 292.578125 C 1187.132812 304.367188 1188.25 317.328125 1184.648438 328.851562 C 1181.429688 339.179688 1174.277344 347.839844 1164.347656 352.15625 C 1163.535156 352.511719 1161.808594 353.164062 1159.164062 354.125 C 1149.660156 357.453125 1140.574219 361.6875 1131.90625 366.824219 C 1130.683594 367.546875 1129.46875 368.324219 1128.253906 369.148438 C 1127.230469 369.757812 1126.210938 370.425781 1125.195312 371.160156 C 1116.148438 377.753906 1107.21875 386.125 1101.871094 395.527344 C 1100.324219 398.246094 1097.960938 401.964844 1099.550781 404.367188 C 1100.007812 405.046875 1101.347656 404.742188 1101.945312 404.488281 C 1107.90625 401.914062 1113.890625 399.796875 1119.910156 398.121094 C 1129.445312 395.460938 1137.375 393.597656 1146.746094 392.285156 C 1157.949219 390.726562 1169.476562 390.671875 1181.339844 392.121094 C 1186.304688 392.730469 1192.582031 393.773438 1200.175781 395.253906 C 1200.820312 395.375 1202.339844 395.625 1204.730469 395.988281 C 1205.800781 396.148438 1206.558594 396.050781 1207.011719 395.699219 C 1209.230469 393.972656 1211.632812 392.675781 1214.226562 391.8125 C 1218.027344 390.550781 1220.332031 389.816406 1221.140625 389.609375 C 1222.183594 389.34375 1223.039062 389.335938 1223.71875 389.589844 C 1225.4375 390.234375 1227.152344 391.140625 1228.855469 392.296875 C 1231.890625 394.367188 1234.898438 396.4375 1237.859375 398.507812 C 1251.511719 408.390625 1260.371094 414.925781 1271.800781 422.199219 C 1273.878906 423.515625 1276.117188 424.808594 1278.523438 426.066406 C 1281.886719 427.824219 1285.515625 428.566406 1289.203125 427.582031 C 1293.378906 426.472656 1297.113281 423.941406 1300.410156 421.191406 C 1303.796875 418.359375 1306.878906 415.566406 1309.652344 412.800781 C 1317.769531 404.707031 1324.867188 395.808594 1330.945312 386.089844 C 1335.132812 379.089844 1338.832031 371.832031 1342.035156 364.3125 C 1343.542969 360.777344 1345.601562 357.773438 1348.210938 355.289062 C 1349.570312 353.992188 1350.601562 353.027344 1351.304688 352.386719 C 1354.355469 349.601562 1356.636719 346.226562 1357.789062 342.4375 C 1360.875 332.289062 1355.945312 324.976562 1348.625 318.644531 Z M 1348.640625 318.652344 "/></g><g clip-rule="nonzero" clip-path="url(#23fb319e84)"><path style=" stroke:none;fill-rule:nonzero;fill:#53b430;fill-opacity:1;" d="M 1242.277344 424.417969 C 1234.175781 417.40625 1224.40625 412.84375 1214.050781 409.417969 C 1193.742188 402.710938 1173.125 400.34375 1152.1875 402.328125 C 1145.878906 402.921875 1139.257812 404.046875 1132.335938 405.710938 C 1125.421875 407.367188 1118.960938 409.230469 1112.964844 411.292969 C 1109.332031 412.542969 1105.246094 414.542969 1100.699219 417.292969 C 1098.257812 418.761719 1095.875 420.550781 1093.542969 422.652344 C 1090.160156 425.699219 1086.914062 428.953125 1083.8125 432.410156 C 1076.324219 441.453125 1068.367188 450.105469 1059.921875 458.355469 C 1055.136719 463.035156 1051.5625 467.054688 1047.457031 471.535156 C 1046.472656 472.605469 1044.828125 474.65625 1045.101562 476.050781 C 1045.179688 476.464844 1045.507812 476.78125 1045.921875 476.839844 C 1046.953125 477 1047.980469 476.921875 1048.992188 476.605469 C 1057.292969 474.03125 1065.980469 471.066406 1074.132812 468.96875 C 1082.734375 466.757812 1087.082031 465.648438 1087.15625 465.628906 C 1104.554688 461.402344 1121.828125 458.332031 1140.160156 456.65625 C 1141.15625 456.582031 1142.128906 456.523438 1143.085938 456.457031 L 1175.992188 469.804688 C 1175.695312 470.175781 1175.390625 470.546875 1175.09375 470.921875 C 1169.257812 478.285156 1164.808594 483.828125 1161.742188 487.539062 C 1159.777344 489.914062 1157.894531 491.953125 1155.757812 494.136719 C 1154.269531 495.65625 1152.5625 496.832031 1150.632812 497.664062 C 1148.652344 497.90625 1146.328125 497.925781 1144.691406 498.144531 C 1140.269531 498.75 1135.785156 499.789062 1131.230469 501.265625 C 1127.144531 502.582031 1125.285156 505.042969 1124.296875 508.921875 C 1123.925781 510.371094 1123.691406 511.46875 1123.605469 512.210938 C 1123.234375 515.378906 1122.355469 520.667969 1120.964844 528.074219 C 1120.285156 531.691406 1119.496094 537.277344 1118.589844 544.816406 C 1117.621094 552.941406 1118.074219 563.371094 1124.589844 569.429688 C 1125.304688 570.089844 1126.335938 570.359375 1127.691406 570.21875 C 1130.519531 569.925781 1133.773438 564.75 1134.859375 562.464844 C 1135.90625 560.261719 1138.054688 555.933594 1141.3125 549.480469 C 1143.273438 545.59375 1145.800781 542.089844 1148.902344 538.964844 C 1149.164062 538.703125 1150.25 537.703125 1152.15625 535.953125 C 1158.609375 530.066406 1165.105469 524.285156 1171.667969 518.601562 C 1179.195312 512.714844 1186.753906 506.910156 1194.335938 501.191406 C 1200.027344 496.898438 1206.332031 491.480469 1213.261719 484.929688 C 1220.636719 477.945312 1227.503906 470.515625 1233.851562 462.625 C 1236.347656 459.523438 1238.710938 456.273438 1240.945312 452.875 C 1243.96875 448.277344 1246.523438 443.101562 1247.414062 437.617188 C 1248.050781 433.714844 1247.628906 430.964844 1245.371094 427.835938 C 1244.390625 426.488281 1243.367188 425.355469 1242.285156 424.425781 Z M 1242.277344 424.417969 "/></g><g clip-rule="nonzero" clip-path="url(#49aa90ead4)"><path style=" stroke:none;fill-rule:nonzero;fill:#53b430;fill-opacity:1;" d="M 1128.402344 467.664062 C 1128.449219 467.542969 1128.378906 467.414062 1128.25 467.40625 C 1127.84375 467.390625 1127.558594 467.40625 1127.40625 467.449219 C 1126.160156 467.8125 1123.175781 468.421875 1118.445312 469.277344 C 1113.054688 470.25 1104.183594 472.128906 1091.84375 474.910156 C 1087.785156 475.828125 1083.367188 476.9375 1078.582031 478.257812 C 1070.765625 480.410156 1060.972656 482.742188 1052.394531 485.601562 C 1044.738281 488.144531 1037.078125 490.609375 1029.390625 492.984375 C 1026.015625 493.890625 1021.25 495 1015.101562 496.324219 C 1012.324219 496.917969 1008.148438 497.949219 1002.570312 499.417969 C 990.671875 502.550781 979.773438 506.785156 967.753906 511.71875 C 964.753906 512.953125 961.203125 514.492188 957.109375 516.355469 C 951.957031 518.695312 948.398438 520.238281 946.449219 520.976562 C 941.21875 522.96875 937.066406 524.390625 932.207031 524.789062 C 930.496094 524.921875 929.445312 524.328125 928.492188 522.796875 C 926.773438 520.042969 924.425781 516.539062 921.171875 515.738281 C 919.398438 515.292969 917.5 515.027344 915.46875 514.929688 C 911.695312 514.742188 908.640625 516.765625 905.992188 519.003906 C 902.765625 521.730469 899.648438 524.238281 896.667969 526.527344 C 891.453125 530.519531 887.1875 534.152344 883.027344 538.035156 C 881.230469 539.71875 878.667969 542.46875 875.34375 546.292969 C 870.984375 551.308594 867.632812 556.292969 865.277344 561.25 C 864.300781 563.308594 863.753906 566.667969 866.625 567.316406 C 867.941406 567.613281 869.539062 567.488281 871.402344 566.914062 C 877.757812 564.984375 884.003906 562.71875 890.714844 559.8125 C 898.519531 556.4375 903.765625 554.25 906.449219 553.269531 C 911.835938 551.296875 917.382812 550.238281 923.09375 550.113281 C 930.296875 549.949219 937.835938 549.71875 945.714844 549.417969 C 953.882812 549.117188 960.558594 548.667969 965.773438 548.082031 C 972.78125 547.292969 979.414062 546.339844 985.679688 545.21875 C 1012.265625 540.441406 1037.378906 531.527344 1061.027344 518.488281 C 1069.246094 514.015625 1076.234375 509.800781 1081.984375 505.859375 C 1090.695312 499.886719 1099.589844 492.984375 1108.675781 485.160156 C 1114.328125 480.296875 1121.152344 473.914062 1127.746094 468.53125 C 1128.023438 468.300781 1128.242188 468.015625 1128.402344 467.667969 Z M 1128.402344 467.664062 "/></g></g></svg>