<svg xmlns="http://www.w3.org/2000/svg" xmlns:xlink="http://www.w3.org/1999/xlink" width="1080" zoomAndPan="magnify" viewBox="0 0 810 809.999993" height="1080" preserveAspectRatio="xMidYMid meet" version="1.2"><defs><clipPath id="ea432fb914"><path d="M 362 201 L 551 201 L 551 358.5 L 362 358.5 Z M 362 201 "/></clipPath><clipPath id="9fda322943"><path d="M 194.0625 262 L 440 262 L 440 356 L 194.0625 356 Z M 194.0625 262 "/></clipPath></defs><g id="11b6822be5"><rect x="0" width="810" y="0" height="809.999993" style="fill:#ffffff;fill-opacity:1;stroke:none;"/><rect x="0" width="810" y="0" height="809.999993" style="fill:#163853;fill-opacity:1;stroke:none;"/><path style=" stroke:none;fill-rule:nonzero;fill:#53b430;fill-opacity:1;" d="M 364.46875 148.9375 C 367.066406 149.65625 369.660156 149.652344 372.25 148.917969 C 373.261719 148.628906 374.207031 148.429688 375.09375 148.324219 C 377.132812 148.070312 378.894531 148.9375 380.910156 147.503906 C 383.898438 145.375 386.542969 141.332031 388.558594 138.242188 C 390.003906 136.015625 389.726562 133.699219 389.335938 130.722656 C 389.179688 129.492188 388.875 127.972656 388.425781 126.160156 C 388.304688 125.652344 388.511719 125.121094 388.957031 124.832031 C 391.410156 123.269531 393.953125 121.863281 396.578125 120.625 C 401.289062 118.410156 406.664062 116.0625 412.714844 113.578125 C 420.191406 110.503906 428.160156 108.128906 436.632812 106.4375 C 437.390625 106.285156 438.015625 106.359375 438.503906 106.667969 C 441.378906 108.472656 444.191406 110.523438 446.933594 112.835938 C 452.300781 117.355469 457.207031 122.203125 461.652344 127.375 C 463.308594 129.300781 464.804688 131.226562 466.132812 133.140625 C 468.695312 136.847656 470.945312 140.433594 471.316406 144.71875 C 471.332031 144.941406 471.578125 145.066406 471.769531 144.953125 C 472.660156 144.421875 473.503906 143.816406 474.289062 143.132812 C 478.585938 139.40625 481.472656 134.953125 482.941406 129.78125 C 483.730469 126.992188 484.132812 123.496094 484.132812 119.296875 C 484.132812 113.691406 483.71875 107.957031 482.667969 102.292969 C 482.285156 100.214844 481.953125 98.089844 481.667969 95.921875 C 481.589844 95.316406 481.238281 94.78125 480.714844 94.460938 C 476.949219 92.175781 473.125 90.234375 469.25 88.636719 C 463.90625 86.433594 458.710938 84.699219 453.671875 83.421875 C 447.527344 81.886719 442.476562 80.875 436.441406 81.011719 C 432.921875 81.089844 429.960938 81.507812 427.566406 82.269531 C 421.039062 84.332031 414.824219 87.121094 408.914062 90.628906 C 401.773438 94.871094 396.03125 98.546875 391.667969 101.660156 C 382.597656 108.144531 373.550781 115.996094 364.515625 125.21875 C 361.816406 127.972656 359.855469 130.847656 358.644531 133.847656 C 356.167969 139.988281 357.324219 146.957031 364.46875 148.933594 Z M 364.46875 148.9375 "/><path style=" stroke:none;fill-rule:nonzero;fill:#53b430;fill-opacity:1;" d="M 644.601562 124.433594 C 642.386719 122.511719 640.386719 122.054688 637.507812 122.230469 C 635.144531 122.375 633.238281 123.101562 631.773438 124.40625 C 630.5 125.546875 629.554688 126.78125 627.792969 127.207031 C 625.085938 127.84375 622.640625 129.972656 621.078125 132.121094 C 617.949219 136.417969 619.277344 142.191406 621.691406 146.589844 C 622.765625 148.53125 623.710938 150.300781 624.535156 151.886719 C 625.234375 153.238281 625.183594 154.554688 624.375 155.839844 C 622.777344 158.375 620.980469 160.675781 618.96875 162.730469 C 615.808594 165.96875 610.53125 171.003906 603.160156 177.832031 C 600.699219 180.109375 597.167969 183.164062 592.566406 186.988281 C 590.777344 188.480469 588.726562 189.761719 587.09375 191.390625 C 586.980469 191.5 586.792969 191.496094 586.6875 191.371094 L 581.71875 185.46875 L 571.96875 174.40625 C 563.410156 164.894531 555.429688 157.207031 546.734375 148.566406 C 546.117188 147.957031 545.503906 147.273438 544.882812 146.523438 C 544.78125 146.398438 544.820312 146.210938 544.960938 146.132812 C 546.164062 145.511719 547.378906 144.851562 548.609375 144.144531 C 549.53125 143.613281 550.425781 143.605469 551.308594 144.121094 C 555.257812 146.429688 557.296875 147.792969 560.496094 149 C 564.976562 150.683594 570.515625 149.96875 572.902344 145.238281 C 574.234375 142.601562 575.398438 140.308594 576.378906 138.359375 C 576.859375 137.398438 577.300781 135.859375 577.695312 133.730469 C 577.886719 132.707031 578.242188 131.835938 579.367188 131.945312 C 580.542969 132.058594 581.558594 132.046875 582.40625 131.898438 C 582.765625 131.835938 583.226562 131.570312 583.785156 131.097656 C 584.75 128.921875 584.800781 126.617188 583.941406 124.171875 C 583.519531 122.964844 583.074219 121.867188 582.609375 120.890625 C 582.203125 120.03125 582.078125 118.941406 582.257812 118.230469 C 583.890625 111.867188 583.40625 105.96875 580.808594 100.542969 C 575.613281 89.691406 563.039062 83.863281 551.296875 85.621094 C 540.996094 87.160156 533.5 93.664062 531.574219 104.207031 C 531.164062 106.449219 530.992188 108.488281 531.042969 110.328125 C 531.183594 113.238281 531.640625 116.136719 532.417969 119.011719 C 532.550781 119.519531 532.292969 120.042969 531.800781 120.234375 L 524.355469 123.15625 C 523.859375 123.347656 523.300781 123.320312 522.835938 123.066406 C 522.136719 122.6875 521.515625 122.292969 520.972656 121.863281 C 518.554688 119.972656 514.785156 116.871094 509.648438 112.566406 C 506.441406 109.878906 500.902344 105.710938 493.015625 100.074219 C 492.699219 99.847656 492.371094 99.738281 492.039062 99.761719 C 491.828125 99.773438 491.6875 99.976562 491.734375 100.175781 C 494.34375 111.144531 495.382812 123.203125 492.035156 133.921875 C 489.039062 143.527344 482.386719 151.589844 473.148438 155.605469 C 472.390625 155.929688 470.785156 156.542969 468.324219 157.433594 C 459.484375 160.527344 451.03125 164.472656 442.964844 169.25 C 441.828125 169.921875 440.699219 170.644531 439.570312 171.414062 C 438.617188 171.976562 437.667969 172.597656 436.722656 173.28125 C 428.308594 179.414062 420 187.203125 415.023438 195.953125 C 413.582031 198.484375 411.386719 201.9375 412.867188 204.175781 C 413.289062 204.808594 414.539062 204.527344 415.089844 204.289062 C 420.636719 201.894531 426.207031 199.921875 431.804688 198.363281 C 440.675781 195.890625 448.054688 194.15625 456.773438 192.9375 C 467.195312 191.484375 477.917969 191.433594 488.957031 192.785156 C 493.574219 193.347656 499.414062 194.320312 506.480469 195.699219 C 507.078125 195.8125 508.492188 196.042969 510.714844 196.382812 C 511.710938 196.527344 512.417969 196.4375 512.839844 196.109375 C 514.902344 194.507812 517.136719 193.296875 519.550781 192.496094 C 523.085938 191.320312 525.230469 190.636719 525.984375 190.445312 C 526.953125 190.195312 527.75 190.191406 528.382812 190.429688 C 529.980469 191.027344 531.574219 191.867188 533.160156 192.949219 C 535.984375 194.875 538.78125 196.800781 541.539062 198.726562 C 554.238281 207.921875 562.480469 213.996094 573.113281 220.765625 C 575.046875 221.988281 577.128906 223.191406 579.367188 224.363281 C 582.496094 226 585.875 226.6875 589.300781 225.773438 C 593.1875 224.738281 596.660156 222.386719 599.726562 219.828125 C 602.878906 217.195312 605.75 214.597656 608.332031 212.019531 C 615.882812 204.492188 622.484375 196.210938 628.136719 187.167969 C 632.035156 180.65625 635.472656 173.910156 638.457031 166.910156 C 639.855469 163.625 641.773438 160.828125 644.199219 158.519531 C 645.464844 157.308594 646.425781 156.410156 647.082031 155.816406 C 649.914062 153.226562 652.039062 150.085938 653.113281 146.5625 C 655.980469 137.117188 651.394531 130.316406 644.585938 124.425781 Z M 644.601562 124.433594 "/><g clip-rule="nonzero" clip-path="url(#ea432fb914)"><path style=" stroke:none;fill-rule:nonzero;fill:#53b430;fill-opacity:1;" d="M 545.648438 222.832031 C 538.109375 216.308594 529.023438 212.058594 519.386719 208.875 C 500.492188 202.632812 481.3125 200.429688 461.832031 202.277344 C 455.964844 202.832031 449.804688 203.875 443.363281 205.425781 C 436.933594 206.964844 430.921875 208.699219 425.34375 210.621094 C 421.964844 211.785156 418.164062 213.640625 413.933594 216.199219 C 411.664062 217.566406 409.445312 219.234375 407.273438 221.1875 C 404.128906 224.023438 401.105469 227.050781 398.222656 230.261719 C 391.257812 238.679688 383.851562 246.726562 375.996094 254.402344 C 371.546875 258.757812 368.21875 262.496094 364.402344 266.664062 C 363.484375 267.660156 361.957031 269.566406 362.210938 270.867188 C 362.285156 271.25 362.589844 271.542969 362.972656 271.601562 C 363.933594 271.746094 364.886719 271.675781 365.832031 271.378906 C 373.550781 268.984375 381.632812 266.230469 389.21875 264.277344 C 397.222656 262.21875 401.265625 261.1875 401.332031 261.167969 C 417.519531 257.238281 433.589844 254.378906 450.644531 252.820312 C 451.570312 252.753906 452.476562 252.695312 453.367188 252.636719 L 483.980469 265.054688 C 483.703125 265.398438 483.421875 265.742188 483.144531 266.09375 C 477.714844 272.945312 473.574219 278.101562 470.722656 281.550781 C 468.894531 283.761719 467.144531 285.660156 465.15625 287.691406 C 463.769531 289.105469 462.183594 290.199219 460.386719 290.972656 C 458.546875 291.199219 456.382812 291.214844 454.859375 291.417969 C 450.746094 291.984375 446.574219 292.949219 442.335938 294.324219 C 438.535156 295.546875 436.808594 297.835938 435.886719 301.445312 C 435.542969 302.792969 435.324219 303.816406 435.242188 304.503906 C 434.898438 307.453125 434.078125 312.375 432.785156 319.265625 C 432.152344 322.628906 431.417969 327.824219 430.578125 334.839844 C 429.675781 342.398438 430.097656 352.101562 436.160156 357.738281 C 436.824219 358.351562 437.785156 358.601562 439.042969 358.472656 C 441.675781 358.199219 444.703125 353.382812 445.714844 351.257812 C 446.6875 349.210938 448.683594 345.183594 451.71875 339.179688 C 453.542969 335.5625 455.890625 332.304688 458.777344 329.394531 C 459.019531 329.152344 460.03125 328.222656 461.804688 326.59375 C 467.808594 321.117188 473.851562 315.738281 479.957031 310.453125 C 486.960938 304.972656 493.992188 299.574219 501.046875 294.253906 C 506.339844 290.261719 512.207031 285.21875 518.652344 279.125 C 525.515625 272.628906 531.902344 265.714844 537.808594 258.375 C 540.132812 255.488281 542.328125 252.464844 544.40625 249.304688 C 547.21875 245.027344 549.597656 240.210938 550.425781 235.109375 C 551.019531 231.476562 550.625 228.917969 548.523438 226.011719 C 547.613281 224.757812 546.660156 223.699219 545.65625 222.835938 Z M 545.648438 222.832031 "/></g><g clip-rule="nonzero" clip-path="url(#9fda322943)"><path style=" stroke:none;fill-rule:nonzero;fill:#53b430;fill-opacity:1;" d="M 439.707031 263.0625 C 439.75 262.949219 439.683594 262.828125 439.5625 262.824219 C 439.1875 262.808594 438.921875 262.824219 438.777344 262.863281 C 437.621094 263.203125 434.84375 263.765625 430.441406 264.5625 C 425.425781 265.46875 417.175781 267.21875 405.691406 269.804688 C 401.921875 270.65625 397.808594 271.691406 393.359375 272.917969 C 386.082031 274.921875 376.972656 277.089844 368.992188 279.75 C 361.871094 282.117188 354.742188 284.410156 347.59375 286.617188 C 344.453125 287.460938 340.019531 288.492188 334.296875 289.726562 C 331.714844 290.277344 327.832031 291.238281 322.640625 292.605469 C 311.570312 295.519531 301.433594 299.457031 290.25 304.046875 C 287.460938 305.195312 284.15625 306.628906 280.347656 308.363281 C 275.554688 310.539062 272.242188 311.972656 270.429688 312.660156 C 265.5625 314.515625 261.699219 315.835938 257.179688 316.207031 C 255.589844 316.332031 254.609375 315.777344 253.722656 314.355469 C 252.125 311.792969 249.941406 308.53125 246.914062 307.789062 C 245.265625 307.375 243.496094 307.125 241.609375 307.035156 C 238.097656 306.859375 235.253906 308.742188 232.792969 310.824219 C 229.789062 313.363281 226.890625 315.695312 224.117188 317.824219 C 219.265625 321.539062 215.296875 324.917969 211.425781 328.53125 C 209.753906 330.097656 207.371094 332.65625 204.277344 336.214844 C 200.222656 340.878906 197.105469 345.515625 194.914062 350.128906 C 194.003906 352.042969 193.496094 355.167969 196.167969 355.773438 C 197.390625 356.050781 198.878906 355.929688 200.609375 355.398438 C 206.523438 353.601562 212.335938 351.496094 218.578125 348.792969 C 225.839844 345.652344 230.71875 343.617188 233.214844 342.703125 C 238.226562 340.867188 243.386719 339.882812 248.703125 339.765625 C 255.402344 339.613281 262.417969 339.398438 269.746094 339.121094 C 277.34375 338.839844 283.558594 338.421875 288.410156 337.878906 C 294.925781 337.144531 301.097656 336.257812 306.929688 335.214844 C 331.660156 330.769531 355.027344 322.476562 377.023438 310.347656 C 384.671875 306.183594 391.171875 302.261719 396.519531 298.597656 C 404.625 293.039062 412.898438 286.617188 421.355469 279.339844 C 426.613281 274.816406 432.960938 268.878906 439.09375 263.867188 C 439.355469 263.652344 439.558594 263.390625 439.707031 263.066406 Z M 439.707031 263.0625 "/></g><g style="fill:#ffffff;fill-opacity:1;"><g transform="translate(67.362159, 536.286429)"><path style="stroke:none" d="M 11.625 0 L 11.625 -115.921875 C 11.625 -121.671875 12.5625 -126.648438 14.4375 -130.859375 C 16.3125 -135.078125 18.816406 -138.320312 21.953125 -140.59375 C 25.097656 -142.863281 28.441406 -144.5 31.984375 -145.5 C 35.523438 -146.507812 39.367188 -146.945312 43.515625 -146.8125 C 78.015625 -145.875 99.546875 -144.804688 108.109375 -143.609375 L 108.109375 -120.34375 L 50.140625 -120.34375 C 47.597656 -120.34375 45.59375 -120.070312 44.125 -119.53125 C 42.65625 -119 41.617188 -118.0625 41.015625 -116.71875 C 40.410156 -115.382812 40.039062 -114.25 39.90625 -113.3125 C 39.78125 -112.375 39.71875 -110.972656 39.71875 -109.109375 L 39.71875 -86.234375 L 99.078125 -84.234375 L 99.078125 -60.96875 L 39.71875 -59.171875 L 39.71875 0 Z M 11.625 0 "/></g></g><g style="fill:#ffffff;fill-opacity:1;"><g transform="translate(186.088623, 536.286429)"><path style="stroke:none" d="M 11.625 -28.875 L 11.625 -116.328125 C 11.625 -121.273438 12.289062 -125.617188 13.625 -129.359375 C 14.96875 -133.109375 16.707031 -136.050781 18.84375 -138.1875 C 20.988281 -140.320312 23.5 -142.09375 26.375 -143.5 C 29.25 -144.90625 32.054688 -145.804688 34.796875 -146.203125 C 37.535156 -146.609375 40.441406 -146.8125 43.515625 -146.8125 C 78.015625 -145.875 99.546875 -144.804688 108.109375 -143.609375 L 108.109375 -120.34375 L 50.140625 -120.34375 C 47.597656 -120.34375 45.59375 -120.070312 44.125 -119.53125 C 42.65625 -119 41.617188 -118.0625 41.015625 -116.71875 C 40.410156 -115.382812 40.039062 -114.25 39.90625 -113.3125 C 39.78125 -112.375 39.71875 -110.972656 39.71875 -109.109375 L 39.71875 -86.234375 L 99.078125 -84.234375 L 99.078125 -60.96875 L 39.71875 -59.171875 L 39.71875 -36.296875 C 39.71875 -33.753906 40.050781 -31.710938 40.71875 -30.171875 C 41.382812 -28.640625 42.453125 -27.570312 43.921875 -26.96875 C 45.390625 -26.375 46.625 -26.039062 47.625 -25.96875 C 48.632812 -25.90625 50.140625 -25.875 52.140625 -25.875 L 108.109375 -25.875 L 108.109375 -2.8125 C 104.765625 -2.40625 97.875 -1.898438 87.4375 -1.296875 C 77.007812 -0.703125 67.382812 -0.269531 58.5625 0 L 45.53125 0.609375 C 42.457031 0.734375 39.582031 0.660156 36.90625 0.390625 C 34.226562 0.128906 31.285156 -0.597656 28.078125 -1.796875 C 24.867188 -3.003906 22.09375 -4.609375 19.75 -6.609375 C 17.414062 -8.617188 15.476562 -11.53125 13.9375 -15.34375 C 12.394531 -19.15625 11.625 -23.664062 11.625 -28.875 Z M 11.625 -28.875 "/></g></g><g style="fill:#ffffff;fill-opacity:1;"><g transform="translate(304.815087, 536.286429)"><path style="stroke:none" d="M 9.828125 -97.46875 L 9.828125 -110.109375 C 9.828125 -115.722656 10.492188 -120.734375 11.828125 -125.140625 C 13.171875 -129.554688 14.976562 -133.164062 17.25 -135.96875 C 19.519531 -138.78125 22.359375 -141.085938 25.765625 -142.890625 C 29.179688 -144.703125 32.789062 -145.972656 36.59375 -146.703125 C 40.40625 -147.441406 44.71875 -147.878906 49.53125 -148.015625 C 59.695312 -148.285156 70.191406 -147.816406 81.015625 -146.609375 C 91.847656 -145.410156 100.273438 -143.941406 106.296875 -142.203125 L 106.296875 -120.140625 C 91.054688 -121.472656 74.675781 -122.140625 57.15625 -122.140625 C 50.070312 -122.273438 45.09375 -121.503906 42.21875 -119.828125 C 39.34375 -118.160156 37.90625 -114.1875 37.90625 -107.90625 L 37.90625 -100.6875 C 37.90625 -95.070312 39.039062 -91.328125 41.3125 -89.453125 C 43.582031 -87.578125 47.660156 -86.640625 53.546875 -86.640625 L 76.8125 -86.640625 C 80.289062 -86.640625 83.53125 -86.304688 86.53125 -85.640625 C 89.539062 -84.972656 92.148438 -84.035156 94.359375 -82.828125 C 96.566406 -81.628906 98.570312 -80.226562 100.375 -78.625 C 102.1875 -77.019531 103.722656 -75.210938 104.984375 -73.203125 C 106.253906 -71.203125 107.320312 -69.164062 108.1875 -67.09375 C 109.0625 -65.019531 109.734375 -62.84375 110.203125 -60.5625 C 110.671875 -58.289062 111.003906 -56.117188 111.203125 -54.046875 C 111.410156 -51.972656 111.515625 -49.867188 111.515625 -47.734375 L 111.515625 -37.90625 C 111.515625 -31.488281 110.710938 -25.875 109.109375 -21.0625 C 107.503906 -16.25 105.460938 -12.4375 102.984375 -9.625 C 100.515625 -6.820312 97.441406 -4.550781 93.765625 -2.8125 C 90.085938 -1.070312 86.441406 0.0976562 82.828125 0.703125 C 79.222656 1.304688 75.28125 1.609375 71 1.609375 C 46.789062 1.609375 27.867188 -0.394531 14.234375 -4.40625 L 14.234375 -26.46875 C 28.941406 -25 45.988281 -24.265625 65.375 -24.265625 C 67.914062 -24.265625 70.085938 -24.394531 71.890625 -24.65625 C 73.703125 -24.925781 75.578125 -25.460938 77.515625 -26.265625 C 79.453125 -27.078125 80.921875 -28.382812 81.921875 -30.1875 C 82.929688 -31.988281 83.4375 -34.226562 83.4375 -36.90625 L 83.4375 -44.71875 C 83.4375 -49.40625 82.5 -52.882812 80.625 -55.15625 C 78.75 -57.425781 75.269531 -58.5625 70.1875 -58.5625 L 47.734375 -58.5625 C 22.460938 -58.695312 9.828125 -71.664062 9.828125 -97.46875 Z M 9.828125 -97.46875 "/></g></g><g style="fill:#ffffff;fill-opacity:1;"><g transform="translate(428.212688, 536.286429)"><path style="stroke:none" d="M 12.03125 0 L 12.03125 -146.8125 L 72.40625 -146.8125 C 95.800781 -146.8125 107.5 -132.640625 107.5 -104.296875 C 107.5 -96.273438 106.726562 -89.390625 105.1875 -83.640625 C 103.65625 -77.890625 101.785156 -73.507812 99.578125 -70.5 C 97.367188 -67.488281 94.523438 -65.144531 91.046875 -63.46875 C 87.578125 -61.800781 84.503906 -60.765625 81.828125 -60.359375 C 79.148438 -59.960938 76.007812 -59.765625 72.40625 -59.765625 C 68.53125 -59.765625 60.101562 -60.363281 47.125 -61.5625 C 34.15625 -62.769531 27.40625 -63.507812 26.875 -63.78125 L 26.875 0 Z M 26.875 -74.609375 L 72.40625 -74.609375 C 78.820312 -74.609375 83.765625 -76.546875 87.234375 -80.421875 C 90.710938 -84.296875 92.453125 -92.253906 92.453125 -104.296875 C 92.328125 -110.441406 91.59375 -115.519531 90.25 -119.53125 C 88.914062 -123.539062 87.078125 -126.347656 84.734375 -127.953125 C 82.398438 -129.554688 80.363281 -130.59375 78.625 -131.0625 C 76.882812 -131.53125 74.8125 -131.765625 72.40625 -131.765625 L 26.875 -131.765625 Z M 26.875 -74.609375 "/></g></g><g style="fill:#ffffff;fill-opacity:1;"><g transform="translate(549.74688, 536.286429)"><path style="stroke:none" d="M 16.046875 0 L 16.046875 -146.8125 L 30.890625 -146.8125 L 30.890625 0 Z M 16.046875 0 "/></g></g><g style="fill:#ffffff;fill-opacity:1;"><g transform="translate(597.678972, 536.286429)"><path style="stroke:none" d="M 16.046875 0 L 16.046875 -146.8125 L 31.28125 -146.8125 L 109.5 -27.671875 L 109.5 -146.8125 L 124.34375 -146.8125 L 124.34375 0 L 109.5 0 L 31.09375 -119.140625 L 31.09375 0 Z M 16.046875 0 "/></g></g><g style="fill:#ffffff;fill-opacity:1;"><g transform="translate(72.75, 609.946664)"><path style="stroke:none" d="M 9.765625 -29.21875 L 9.765625 -17.59375 L 26.5 -17.59375 L 26.5 -13.484375 L 9.765625 -13.484375 L 9.765625 0 L 5 0 L 5 -33.375 L 28.5625 -33.375 L 28.5625 -29.21875 Z M 9.765625 -29.21875 "/></g></g><g style="fill:#ffffff;fill-opacity:1;"><g transform="translate(114.897701, 609.946664)"><path style="stroke:none" d="M 29.21875 -4.140625 L 29.21875 0 L 5 0 L 5 -33.375 L 28.5625 -33.375 L 28.5625 -29.21875 L 9.765625 -29.21875 L 9.765625 -18.96875 L 26.5 -18.96875 L 26.5 -14.921875 L 9.765625 -14.921875 L 9.765625 -4.140625 Z M 29.21875 -4.140625 "/></g></g><g style="fill:#ffffff;fill-opacity:1;"><g transform="translate(158.714125, 609.946664)"><path style="stroke:none" d="M 5 -33.375 L 9.765625 -33.375 L 9.765625 0 L 5 0 Z M 5 -33.375 "/></g></g><g style="fill:#ffffff;fill-opacity:1;"><g transform="translate(185.366616, 609.946664)"><path style="stroke:none" d="M 27.3125 0 L 20.125 -10.25 C 19.226562 -10.1875 18.523438 -10.15625 18.015625 -10.15625 L 9.765625 -10.15625 L 9.765625 0 L 5 0 L 5 -33.375 L 18.015625 -33.375 C 22.335938 -33.375 25.738281 -32.335938 28.21875 -30.265625 C 30.695312 -28.203125 31.9375 -25.359375 31.9375 -21.734375 C 31.9375 -19.160156 31.300781 -16.96875 30.03125 -15.15625 C 28.757812 -13.34375 26.945312 -12.023438 24.59375 -11.203125 L 32.515625 0 Z M 17.875 -14.203125 C 20.894531 -14.203125 23.195312 -14.851562 24.78125 -16.15625 C 26.375 -17.457031 27.171875 -19.316406 27.171875 -21.734375 C 27.171875 -24.148438 26.375 -26 24.78125 -27.28125 C 23.195312 -28.570312 20.894531 -29.21875 17.875 -29.21875 L 9.765625 -29.21875 L 9.765625 -14.203125 Z M 17.875 -14.203125 "/></g></g><g style="fill:#ffffff;fill-opacity:1;"><g transform="translate(231.900657, 609.946664)"><path style="stroke:none" d="M 26.265625 -8.34375 L 8.53125 -8.34375 L 4.859375 0 L -0.046875 0 L 15.0625 -33.375 L 19.78125 -33.375 L 34.9375 0 L 29.9375 0 Z M 24.59375 -12.15625 L 17.40625 -28.5 L 10.203125 -12.15625 Z M 24.59375 -12.15625 "/></g></g><g style="fill:#ffffff;fill-opacity:1;"><g transform="translate(278.673088, 609.946664)"><path style="stroke:none" d=""/></g></g><g style="fill:#ffffff;fill-opacity:1;"><g transform="translate(303.37079, 609.946664)"><path style="stroke:none" d="M 5 -33.375 L 19.0625 -33.375 C 22.59375 -33.375 25.722656 -32.671875 28.453125 -31.265625 C 31.191406 -29.867188 33.316406 -27.90625 34.828125 -25.375 C 36.335938 -22.851562 37.09375 -19.957031 37.09375 -16.6875 C 37.09375 -13.414062 36.335938 -10.515625 34.828125 -7.984375 C 33.316406 -5.453125 31.191406 -3.488281 28.453125 -2.09375 C 25.722656 -0.695312 22.59375 0 19.0625 0 L 5 0 Z M 18.78125 -4.140625 C 21.476562 -4.140625 23.851562 -4.664062 25.90625 -5.71875 C 27.957031 -6.769531 29.539062 -8.238281 30.65625 -10.125 C 31.769531 -12.019531 32.328125 -14.207031 32.328125 -16.6875 C 32.328125 -19.164062 31.769531 -21.347656 30.65625 -23.234375 C 29.539062 -25.128906 27.957031 -26.597656 25.90625 -27.640625 C 23.851562 -28.691406 21.476562 -29.21875 18.78125 -29.21875 L 9.765625 -29.21875 L 9.765625 -4.140625 Z M 18.78125 -4.140625 "/></g></g><g style="fill:#ffffff;fill-opacity:1;"><g transform="translate(354.624916, 609.946664)"><path style="stroke:none" d="M 20.0625 0.375 C 16.695312 0.375 13.660156 -0.359375 10.953125 -1.828125 C 8.253906 -3.304688 6.132812 -5.347656 4.59375 -7.953125 C 3.050781 -10.566406 2.28125 -13.476562 2.28125 -16.6875 C 2.28125 -19.894531 3.050781 -22.800781 4.59375 -25.40625 C 6.132812 -28.007812 8.253906 -30.050781 10.953125 -31.53125 C 13.660156 -33.007812 16.695312 -33.75 20.0625 -33.75 C 23.40625 -33.75 26.425781 -33.007812 29.125 -31.53125 C 31.820312 -30.050781 33.929688 -28.015625 35.453125 -25.421875 C 36.984375 -22.835938 37.75 -19.925781 37.75 -16.6875 C 37.75 -13.445312 36.984375 -10.53125 35.453125 -7.9375 C 33.929688 -5.34375 31.820312 -3.304688 29.125 -1.828125 C 26.425781 -0.359375 23.40625 0.375 20.0625 0.375 Z M 20.0625 -3.859375 C 22.507812 -3.859375 24.710938 -4.414062 26.671875 -5.53125 C 28.628906 -6.644531 30.171875 -8.175781 31.296875 -10.125 C 32.421875 -12.082031 32.984375 -14.269531 32.984375 -16.6875 C 32.984375 -19.101562 32.421875 -21.285156 31.296875 -23.234375 C 30.171875 -25.191406 28.628906 -26.726562 26.671875 -27.84375 C 24.710938 -28.957031 22.507812 -29.515625 20.0625 -29.515625 C 17.625 -29.515625 15.410156 -28.957031 13.421875 -27.84375 C 11.429688 -26.726562 9.875 -25.191406 8.75 -23.234375 C 7.625 -21.285156 7.0625 -19.101562 7.0625 -16.6875 C 7.0625 -14.269531 7.625 -12.082031 8.75 -10.125 C 9.875 -8.175781 11.429688 -6.644531 13.421875 -5.53125 C 15.410156 -4.414062 17.625 -3.859375 20.0625 -3.859375 Z M 20.0625 -3.859375 "/></g></g><g style="fill:#ffffff;fill-opacity:1;"><g transform="translate(406.546536, 609.946664)"><path style="stroke:none" d=""/></g></g><g style="fill:#ffffff;fill-opacity:1;"><g transform="translate(431.244237, 609.946664)"><path style="stroke:none" d="M 29.21875 -4.140625 L 29.21875 0 L 5 0 L 5 -33.375 L 28.5625 -33.375 L 28.5625 -29.21875 L 9.765625 -29.21875 L 9.765625 -18.96875 L 26.5 -18.96875 L 26.5 -14.921875 L 9.765625 -14.921875 L 9.765625 -4.140625 Z M 29.21875 -4.140625 "/></g></g><g style="fill:#ffffff;fill-opacity:1;"><g transform="translate(475.060649, 609.946664)"><path style="stroke:none" d="M 14.734375 0.375 C 12.222656 0.375 9.796875 -0.0078125 7.453125 -0.78125 C 5.117188 -1.5625 3.285156 -2.570312 1.953125 -3.8125 L 3.71875 -7.53125 C 4.988281 -6.382812 6.613281 -5.453125 8.59375 -4.734375 C 10.582031 -4.023438 12.628906 -3.671875 14.734375 -3.671875 C 17.492188 -3.671875 19.554688 -4.140625 20.921875 -5.078125 C 22.296875 -6.015625 22.984375 -7.257812 22.984375 -8.8125 C 22.984375 -9.957031 22.609375 -10.890625 21.859375 -11.609375 C 21.109375 -12.328125 20.1875 -12.875 19.09375 -13.25 C 18 -13.632812 16.445312 -14.066406 14.4375 -14.546875 C 11.925781 -15.148438 9.898438 -15.75 8.359375 -16.34375 C 6.816406 -16.945312 5.5 -17.875 4.40625 -19.125 C 3.3125 -20.382812 2.765625 -22.082031 2.765625 -24.21875 C 2.765625 -26 3.234375 -27.601562 4.171875 -29.03125 C 5.109375 -30.457031 6.53125 -31.597656 8.4375 -32.453125 C 10.34375 -33.316406 12.710938 -33.75 15.546875 -33.75 C 17.515625 -33.75 19.453125 -33.492188 21.359375 -32.984375 C 23.265625 -32.472656 24.898438 -31.742188 26.265625 -30.796875 L 24.6875 -26.984375 C 23.289062 -27.867188 21.796875 -28.539062 20.203125 -29 C 18.617188 -29.46875 17.066406 -29.703125 15.546875 -29.703125 C 12.835938 -29.703125 10.804688 -29.207031 9.453125 -28.21875 C 8.109375 -27.238281 7.4375 -25.96875 7.4375 -24.40625 C 7.4375 -23.257812 7.816406 -22.328125 8.578125 -21.609375 C 9.335938 -20.898438 10.28125 -20.347656 11.40625 -19.953125 C 12.539062 -19.554688 14.078125 -19.132812 16.015625 -18.6875 C 18.523438 -18.082031 20.539062 -17.476562 22.0625 -16.875 C 23.59375 -16.269531 24.90625 -15.347656 26 -14.109375 C 27.101562 -12.867188 27.65625 -11.203125 27.65625 -9.109375 C 27.65625 -7.359375 27.175781 -5.757812 26.21875 -4.3125 C 25.269531 -2.863281 23.820312 -1.71875 21.875 -0.875 C 19.9375 -0.0390625 17.554688 0.375 14.734375 0.375 Z M 14.734375 0.375 "/></g></g><g style="fill:#ffffff;fill-opacity:1;"><g transform="translate(516.54088, 609.946664)"><path style="stroke:none" d="M 18.015625 -33.375 C 22.335938 -33.375 25.738281 -32.335938 28.21875 -30.265625 C 30.695312 -28.203125 31.9375 -25.359375 31.9375 -21.734375 C 31.9375 -18.109375 30.695312 -15.265625 28.21875 -13.203125 C 25.738281 -11.140625 22.335938 -10.109375 18.015625 -10.109375 L 9.765625 -10.109375 L 9.765625 0 L 5 0 L 5 -33.375 Z M 17.875 -14.25 C 20.894531 -14.25 23.195312 -14.890625 24.78125 -16.171875 C 26.375 -17.460938 27.171875 -19.316406 27.171875 -21.734375 C 27.171875 -24.148438 26.375 -26 24.78125 -27.28125 C 23.195312 -28.570312 20.894531 -29.21875 17.875 -29.21875 L 9.765625 -29.21875 L 9.765625 -14.25 Z M 17.875 -14.25 "/></g></g><g style="fill:#ffffff;fill-opacity:1;"><g transform="translate(562.83653, 609.946664)"><path style="stroke:none" d="M 20.0625 0.375 C 16.695312 0.375 13.660156 -0.359375 10.953125 -1.828125 C 8.253906 -3.304688 6.132812 -5.347656 4.59375 -7.953125 C 3.050781 -10.566406 2.28125 -13.476562 2.28125 -16.6875 C 2.28125 -19.894531 3.050781 -22.800781 4.59375 -25.40625 C 6.132812 -28.007812 8.253906 -30.050781 10.953125 -31.53125 C 13.660156 -33.007812 16.695312 -33.75 20.0625 -33.75 C 23.40625 -33.75 26.425781 -33.007812 29.125 -31.53125 C 31.820312 -30.050781 33.929688 -28.015625 35.453125 -25.421875 C 36.984375 -22.835938 37.75 -19.925781 37.75 -16.6875 C 37.75 -13.445312 36.984375 -10.53125 35.453125 -7.9375 C 33.929688 -5.34375 31.820312 -3.304688 29.125 -1.828125 C 26.425781 -0.359375 23.40625 0.375 20.0625 0.375 Z M 20.0625 -3.859375 C 22.507812 -3.859375 24.710938 -4.414062 26.671875 -5.53125 C 28.628906 -6.644531 30.171875 -8.175781 31.296875 -10.125 C 32.421875 -12.082031 32.984375 -14.269531 32.984375 -16.6875 C 32.984375 -19.101562 32.421875 -21.285156 31.296875 -23.234375 C 30.171875 -25.191406 28.628906 -26.726562 26.671875 -27.84375 C 24.710938 -28.957031 22.507812 -29.515625 20.0625 -29.515625 C 17.625 -29.515625 15.410156 -28.957031 13.421875 -27.84375 C 11.429688 -26.726562 9.875 -25.191406 8.75 -23.234375 C 7.625 -21.285156 7.0625 -19.101562 7.0625 -16.6875 C 7.0625 -14.269531 7.625 -12.082031 8.75 -10.125 C 9.875 -8.175781 11.429688 -6.644531 13.421875 -5.53125 C 15.410156 -4.414062 17.625 -3.859375 20.0625 -3.859375 Z M 20.0625 -3.859375 "/></g></g><g style="fill:#ffffff;fill-opacity:1;"><g transform="translate(614.75815, 609.946664)"><path style="stroke:none" d="M 27.3125 0 L 20.125 -10.25 C 19.226562 -10.1875 18.523438 -10.15625 18.015625 -10.15625 L 9.765625 -10.15625 L 9.765625 0 L 5 0 L 5 -33.375 L 18.015625 -33.375 C 22.335938 -33.375 25.738281 -32.335938 28.21875 -30.265625 C 30.695312 -28.203125 31.9375 -25.359375 31.9375 -21.734375 C 31.9375 -19.160156 31.300781 -16.96875 30.03125 -15.15625 C 28.757812 -13.34375 26.945312 -12.023438 24.59375 -11.203125 L 32.515625 0 Z M 17.875 -14.203125 C 20.894531 -14.203125 23.195312 -14.851562 24.78125 -16.15625 C 26.375 -17.457031 27.171875 -19.316406 27.171875 -21.734375 C 27.171875 -24.148438 26.375 -26 24.78125 -27.28125 C 23.195312 -28.570312 20.894531 -29.21875 17.875 -29.21875 L 9.765625 -29.21875 L 9.765625 -14.203125 Z M 17.875 -14.203125 "/></g></g><g style="fill:#ffffff;fill-opacity:1;"><g transform="translate(661.292167, 609.946664)"><path style="stroke:none" d="M 11.625 -29.21875 L 0.1875 -29.21875 L 0.1875 -33.375 L 27.796875 -33.375 L 27.796875 -29.21875 L 16.34375 -29.21875 L 16.34375 0 L 11.625 0 Z M 11.625 -29.21875 "/></g></g><g style="fill:#ffffff;fill-opacity:1;"><g transform="translate(701.151343, 609.946664)"><path style="stroke:none" d="M 29.21875 -4.140625 L 29.21875 0 L 5 0 L 5 -33.375 L 28.5625 -33.375 L 28.5625 -29.21875 L 9.765625 -29.21875 L 9.765625 -18.96875 L 26.5 -18.96875 L 26.5 -14.921875 L 9.765625 -14.921875 L 9.765625 -4.140625 Z M 29.21875 -4.140625 "/></g></g><g style="fill:#ffffff;fill-opacity:1;"><g transform="translate(72.75, 673.294119)"><path style="stroke:none" d="M 5 -33.375 L 19.0625 -33.375 C 22.59375 -33.375 25.722656 -32.671875 28.453125 -31.265625 C 31.191406 -29.867188 33.316406 -27.90625 34.828125 -25.375 C 36.335938 -22.851562 37.09375 -19.957031 37.09375 -16.6875 C 37.09375 -13.414062 36.335938 -10.515625 34.828125 -7.984375 C 33.316406 -5.453125 31.191406 -3.488281 28.453125 -2.09375 C 25.722656 -0.695312 22.59375 0 19.0625 0 L 5 0 Z M 18.78125 -4.140625 C 21.476562 -4.140625 23.851562 -4.664062 25.90625 -5.71875 C 27.957031 -6.769531 29.539062 -8.238281 30.65625 -10.125 C 31.769531 -12.019531 32.328125 -14.207031 32.328125 -16.6875 C 32.328125 -19.164062 31.769531 -21.347656 30.65625 -23.234375 C 29.539062 -25.128906 27.957031 -26.597656 25.90625 -27.640625 C 23.851562 -28.691406 21.476562 -29.21875 18.78125 -29.21875 L 9.765625 -29.21875 L 9.765625 -4.140625 Z M 18.78125 -4.140625 "/></g></g><g style="fill:#ffffff;fill-opacity:1;"><g transform="translate(124.004115, 673.294119)"><path style="stroke:none" d="M 29.21875 -4.140625 L 29.21875 0 L 5 0 L 5 -33.375 L 28.5625 -33.375 L 28.5625 -29.21875 L 9.765625 -29.21875 L 9.765625 -18.96875 L 26.5 -18.96875 L 26.5 -14.921875 L 9.765625 -14.921875 L 9.765625 -4.140625 Z M 29.21875 -4.140625 "/></g></g><g style="fill:#ffffff;fill-opacity:1;"><g transform="translate(167.820538, 673.294119)"><path style="stroke:none" d=""/></g></g><g style="fill:#ffffff;fill-opacity:1;"><g transform="translate(192.518251, 673.294119)"><path style="stroke:none" d="M 5 -33.375 L 9.765625 -33.375 L 9.765625 0 L 5 0 Z M 5 -33.375 "/></g></g><g style="fill:#ffffff;fill-opacity:1;"><g transform="translate(219.170743, 673.294119)"><path style="stroke:none" d="M 33.703125 -33.375 L 33.703125 0 L 29.796875 0 L 9.765625 -24.890625 L 9.765625 0 L 5 0 L 5 -33.375 L 8.921875 -33.375 L 28.9375 -8.484375 L 28.9375 -33.375 Z M 33.703125 -33.375 "/></g></g><g style="fill:#ffffff;fill-opacity:1;"><g transform="translate(269.757375, 673.294119)"><path style="stroke:none" d="M 5 -33.375 L 19.0625 -33.375 C 22.59375 -33.375 25.722656 -32.671875 28.453125 -31.265625 C 31.191406 -29.867188 33.316406 -27.90625 34.828125 -25.375 C 36.335938 -22.851562 37.09375 -19.957031 37.09375 -16.6875 C 37.09375 -13.414062 36.335938 -10.515625 34.828125 -7.984375 C 33.316406 -5.453125 31.191406 -3.488281 28.453125 -2.09375 C 25.722656 -0.695312 22.59375 0 19.0625 0 L 5 0 Z M 18.78125 -4.140625 C 21.476562 -4.140625 23.851562 -4.664062 25.90625 -5.71875 C 27.957031 -6.769531 29.539062 -8.238281 30.65625 -10.125 C 31.769531 -12.019531 32.328125 -14.207031 32.328125 -16.6875 C 32.328125 -19.164062 31.769531 -21.347656 30.65625 -23.234375 C 29.539062 -25.128906 27.957031 -26.597656 25.90625 -27.640625 C 23.851562 -28.691406 21.476562 -29.21875 18.78125 -29.21875 L 9.765625 -29.21875 L 9.765625 -4.140625 Z M 18.78125 -4.140625 "/></g></g><g style="fill:#ffffff;fill-opacity:1;"><g transform="translate(321.011501, 673.294119)"><path style="stroke:none" d="M 26.265625 -8.34375 L 8.53125 -8.34375 L 4.859375 0 L -0.046875 0 L 15.0625 -33.375 L 19.78125 -33.375 L 34.9375 0 L 29.9375 0 Z M 24.59375 -12.15625 L 17.40625 -28.5 L 10.203125 -12.15625 Z M 24.59375 -12.15625 "/></g></g><g style="fill:#ffffff;fill-opacity:1;"><g transform="translate(367.783932, 673.294119)"><path style="stroke:none" d="M 5 -33.375 L 9.765625 -33.375 L 9.765625 0 L 5 0 Z M 5 -33.375 "/></g></g><g style="fill:#ffffff;fill-opacity:1;"><g transform="translate(394.436413, 673.294119)"><path style="stroke:none" d="M 26.265625 -8.34375 L 8.53125 -8.34375 L 4.859375 0 L -0.046875 0 L 15.0625 -33.375 L 19.78125 -33.375 L 34.9375 0 L 29.9375 0 Z M 24.59375 -12.15625 L 17.40625 -28.5 L 10.203125 -12.15625 Z M 24.59375 -12.15625 "/></g></g><g style="fill:#ffffff;fill-opacity:1;"><g transform="translate(441.208844, 673.294119)"><path style="stroke:none" d="M 11.625 -29.21875 L 0.1875 -29.21875 L 0.1875 -33.375 L 27.796875 -33.375 L 27.796875 -29.21875 L 16.34375 -29.21875 L 16.34375 0 L 11.625 0 Z M 11.625 -29.21875 "/></g></g><g style="fill:#ffffff;fill-opacity:1;"><g transform="translate(481.067996, 673.294119)"><path style="stroke:none" d="M 18.828125 0.375 C 14.378906 0.375 10.914062 -0.894531 8.4375 -3.4375 C 5.957031 -5.976562 4.71875 -9.628906 4.71875 -14.390625 L 4.71875 -33.375 L 9.484375 -33.375 L 9.484375 -14.59375 C 9.484375 -7.4375 12.613281 -3.859375 18.875 -3.859375 C 21.925781 -3.859375 24.257812 -4.738281 25.875 -6.5 C 27.5 -8.269531 28.3125 -10.96875 28.3125 -14.59375 L 28.3125 -33.375 L 32.9375 -33.375 L 32.9375 -14.390625 C 32.9375 -9.597656 31.695312 -5.9375 29.21875 -3.40625 C 26.738281 -0.882812 23.273438 0.375 18.828125 0.375 Z M 18.828125 0.375 "/></g></g><g style="fill:#ffffff;fill-opacity:1;"><g transform="translate(530.653412, 673.294119)"><path style="stroke:none" d="M 27.453125 -17.3125 C 29.390625 -16.769531 30.914062 -15.789062 32.03125 -14.375 C 33.144531 -12.957031 33.703125 -11.171875 33.703125 -9.015625 C 33.703125 -6.117188 32.613281 -3.890625 30.4375 -2.328125 C 28.257812 -0.773438 25.085938 0 20.921875 0 L 5 0 L 5 -33.375 L 19.96875 -33.375 C 23.78125 -33.375 26.726562 -32.609375 28.8125 -31.078125 C 30.894531 -29.554688 31.9375 -27.441406 31.9375 -24.734375 C 31.9375 -22.992188 31.53125 -21.488281 30.71875 -20.21875 C 29.914062 -18.945312 28.828125 -17.976562 27.453125 -17.3125 Z M 9.765625 -29.515625 L 9.765625 -18.828125 L 19.546875 -18.828125 C 21.992188 -18.828125 23.875 -19.28125 25.1875 -20.1875 C 26.507812 -21.09375 27.171875 -22.421875 27.171875 -24.171875 C 27.171875 -25.921875 26.507812 -27.25 25.1875 -28.15625 C 23.875 -29.0625 21.992188 -29.515625 19.546875 -29.515625 Z M 20.734375 -3.859375 C 23.441406 -3.859375 25.476562 -4.300781 26.84375 -5.1875 C 28.207031 -6.082031 28.890625 -7.484375 28.890625 -9.390625 C 28.890625 -13.109375 26.171875 -14.96875 20.734375 -14.96875 L 9.765625 -14.96875 L 9.765625 -3.859375 Z M 20.734375 -3.859375 "/></g></g><g style="fill:#ffffff;fill-opacity:1;"><g transform="translate(578.617819, 673.294119)"><path style="stroke:none" d="M 26.265625 -8.34375 L 8.53125 -8.34375 L 4.859375 0 L -0.046875 0 L 15.0625 -33.375 L 19.78125 -33.375 L 34.9375 0 L 29.9375 0 Z M 24.59375 -12.15625 L 17.40625 -28.5 L 10.203125 -12.15625 Z M 24.59375 -12.15625 "/></g></g></g></svg>